<svg xmlns:dc="http://purl.org/dc/elements/1.1/" xmlns:cc="http://creativecommons.org/ns#" xmlns:rdf="http://www.w3.org/1999/02/22-rdf-syntax-ns#" xmlns:svg="http://www.w3.org/2000/svg" xmlns="http://www.w3.org/2000/svg" id="svg244" height="91.310003mm" width="66.440001mm" version="1.0">
  <metadata id="metadata248">
    <rdf:RDF>
      <cc:Work rdf:about="">
        <dc:format>image/svg+xml</dc:format>
        <dc:type rdf:resource="http://purl.org/dc/dcmitype/StillImage"/>
      </cc:Work>
    </rdf:RDF>
  </metadata>
  <defs id="defs6">
    <clipPath id="clipWmfPath1" clipPathUnits="userSpaceOnUse">
      <path id="path2" d="M 0,0 L 251.00735,0 L 251.00735,345.0042 L 0,345.0042 z"/>
    </clipPath>
    <pattern y="0" x="0" height="6" width="6" patternUnits="userSpaceOnUse" id="WMFhbasepattern"/>
  </defs>
  <path id="path8" d="  M 9.0002634,333.00405   L 9.0002634,11.000134   L 230.74009,11.000134   L 230.74009,333.00405   L 9.0002634,333.00405  z " clip-path="url(#clipWmfPath1)" style="fill:#e5e5e5;fill-rule:nonzero;fill-opacity:1;stroke:none;"/>
  <path id="path10" d="  M 230.74009,333.20406   L 230.74009,332.80405   L 9.2002693,332.80405   L 9.2002693,11.200136   L 230.54008,11.200136   L 230.54008,332.80405   L 9.2002693,332.80405   L 9.2002693,11.000134   L 8.8002576,11.000134   L 8.8002576,333.20406   L 230.94009,333.20406   L 230.94009,10.800131   L 8.8002576,10.800131   L 8.8002576,333.20406   L 230.74009,333.20406  z " clip-path="url(#clipWmfPath1)" style="fill:#000000;fill-rule:nonzero;fill-opacity:1;stroke:#000000;stroke-width:0.066668615px;stroke-linecap:round;stroke-linejoin:round;stroke-miterlimit:4;stroke-dasharray:none;stroke-opacity:1;"/>
  <path id="path12" d="  M 34.201001,105.33462   L 34.201001,107.46797   L 35.734379,107.66798   L 36.934414,108.33465   L 37.867775,109.468   L 38.60113,111.13469   L 39.134479,113.33471   L 39.467822,116.06808   L 39.667828,123.33483   L 39.667828,186.46894   L 39.467822,193.80236   L 39.134479,196.53573   L 38.60113,198.73575   L 37.867775,200.33577   L 36.934414,201.46912   L 35.734379,202.13579   L 34.201001,202.3358   L 34.201001,204.60249   L 47.468056,204.60249   L 47.468056,202.3358   L 45.934678,202.13579   L 44.734643,201.46912   L 43.734613,200.33577   L 43.067927,198.73575   L 42.601247,196.53573   L 42.267904,193.80236   L 42.134567,190.46898   L 42.067898,186.46894   L 42.067898,123.33483   L 56.201645,204.60249   L 56.801663,204.60249   L 70.868741,119.66812   L 70.868741,186.46894   L 70.735404,192.66901   L 70.468729,195.33571   L 70.068718,197.73574   L 69.4687,199.6691   L 68.668677,201.06911   L 67.668647,202.00246   L 66.335275,202.3358   L 66.335275,204.60249   L 81.135708,204.60249   L 81.135708,202.3358   L 79.735667,202.06913   L 78.602301,201.33578   L 77.735609,200.0691   L 77.068923,198.26908   L 76.668911,196.00239   L 76.402236,193.33569   L 76.20223,186.46894   L 76.20223,119.66812   L 76.468905,113.73472   L 76.868917,111.60136   L 77.402266,110.00134   L 78.068952,108.80132   L 78.935644,108.00131   L 79.935673,107.60131   L 81.135708,107.46797   L 81.135708,105.33462   L 70.202055,105.33462   L 58.335041,179.86886   L 58.068366,180.53553   L 57.801692,179.73552   L 45.134654,105.33462   L 34.201001,105.33462  z " clip-path="url(#clipWmfPath1)" style="fill:#cccccc;fill-rule:nonzero;fill-opacity:1;stroke:none;"/>
  <path id="path14" d="  M 167.27156,97.667855   L 86.135855,97.667855   L 126.80371,20.933588   L 167.27156,97.667855  z " clip-path="url(#clipWmfPath1)" style="fill:#cccccc;fill-rule:nonzero;fill-opacity:1;stroke:none;"/>
  <path id="path16" d="  M 137.13735,25.066972   L 145.27092,33.800411   L 129.00378,66.400808   L 120.80354,57.667368   L 137.13735,25.066972  z " clip-path="url(#clipWmfPath1)" style="fill:#cccccc;fill-rule:nonzero;fill-opacity:1;stroke:none;"/>
  <path id="path18" d="  M 33.067635,238.4029   L 33.067635,240.26959   L 34.201001,240.46959   L 35.067693,241.13627   L 35.867717,242.20295   L 36.467734,243.66963   L 36.867746,245.46965   L 37.201089,247.60301   L 37.401095,252.73641   L 37.401095,313.73715   L 37.201089,318.80388   L 36.467734,322.67059   L 35.867717,324.13728   L 35.067693,325.13729   L 34.201001,325.80396   L 33.067635,326.00397   L 33.067635,328.00399   L 47.534725,328.00399   L 47.534725,326.00397   L 46.401358,325.80396   L 45.467998,325.13729   L 44.734643,324.13728   L 44.134625,322.67059   L 43.40127,318.80388   L 43.201265,313.73715   L 43.201265,285.27014   L 59.268401,285.27014   L 59.268401,313.73715   L 59.001727,318.80388   L 58.268372,322.67059   L 57.601686,324.13728   L 56.868331,325.13729   L 55.934971,325.80396   L 54.801604,326.00397   L 54.801604,328.00399   L 69.335363,328.00399   L 69.335363,326.00397   L 68.201996,325.80396   L 67.268636,325.13729   L 66.535281,324.13728   L 65.935263,322.67059   L 65.201908,318.80388   L 65.001903,313.73715   L 65.001903,252.73641   L 65.201908,247.60301   L 65.535252,245.46965   L 65.935263,243.66963   L 66.535281,242.20295   L 67.268636,241.13627   L 68.201996,240.46959   L 69.335363,240.26959   L 69.335363,238.4029   L 54.801604,238.4029   L 54.801604,240.26959   L 55.934971,240.46959   L 56.868331,241.13627   L 57.601686,242.20295   L 58.268372,243.66963   L 59.001727,247.60301   L 59.268401,252.73641   L 59.268401,279.27007   L 43.201265,279.27007   L 43.201265,252.73641   L 43.40127,247.60301   L 43.734613,245.46965   L 44.134625,243.66963   L 44.734643,242.20295   L 45.467998,241.13627   L 46.401358,240.46959   L 47.534725,240.26959   L 47.534725,238.4029   L 33.067635,238.4029  z " clip-path="url(#clipWmfPath1)" style="fill:#cccccc;fill-rule:nonzero;fill-opacity:1;stroke:none;"/>
  <path id="path20" d="  M 108.46984,238.4029   L 108.46984,240.26959   L 109.60321,240.40293   L 110.60324,240.8696   L 111.40326,241.73628   L 112.06995,242.93629   L 112.6033,244.60298   L 112.93664,246.66967   L 113.20331,252.26974   L 113.20331,294.20358   L 113.40332,302.33701   L 114.00334,309.5371   L 115.00337,315.67051   L 115.73672,318.40387   L 116.47008,320.8039   L 117.33677,322.93726   L 118.3368,324.80395   L 119.47016,326.40397   L 120.6702,327.73732   L 122.00357,328.804   L 123.40361,329.53734   L 124.93699,330.00402   L 126.60371,330.13735   L 128.33709,330.00402   L 129.93714,329.47068   L 131.40385,328.73733   L 132.73722,327.67065   L 134.00392,326.27064   L 135.13729,324.60395   L 136.13732,322.67059   L 137.07068,320.47057   L 137.8707,318.07054   L 138.53739,315.33717   L 139.60409,309.20376   L 140.2041,302.13701   L 140.40411,294.20358   L 140.40411,252.26974   L 140.67078,247.00301   L 141.00413,244.93631   L 141.47081,243.26963   L 142.13749,241.93628   L 142.93752,241.00293   L 143.93755,240.46959   L 145.07091,240.26959   L 145.07091,238.4029   L 133.27057,238.4029   L 133.27057,240.26959   L 134.40393,240.46959   L 135.33729,241.00293   L 136.13732,241.93628   L 136.73734,243.26963   L 137.53736,247.00301   L 137.80403,252.26974   L 137.80403,292.60356   L 137.6707,298.6703   L 137.40402,304.47037   L 136.804,309.7371   L 135.87064,314.33716   L 134.60394,318.20387   L 133.87059,319.73722   L 133.00389,321.07057   L 132.00386,322.13725   L 130.93717,322.93726   L 129.73713,323.4706   L 128.40376,323.60394   L 127.07039,323.4706   L 125.80368,323.0706   L 124.67032,322.40392   L 123.60362,321.47058   L 122.73693,320.27056   L 121.87023,318.87055   L 120.53686,315.40384   L 119.53683,311.13712   L 118.87015,306.13706   L 118.5368,300.47032   L 118.40347,294.20358   L 118.40347,252.26974   L 118.67014,246.66967   L 119.00348,244.60298   L 119.53683,242.93629   L 120.20352,241.73628   L 121.00354,240.8696   L 122.07024,240.40293   L 123.27027,240.26959   L 123.27027,238.4029   L 108.46984,238.4029  z " clip-path="url(#clipWmfPath1)" style="fill:#cccccc;fill-rule:nonzero;fill-opacity:1;stroke:none;"/>
  <path id="path22" d="  M 168.40493,236.46954   L 167.20489,236.46954   L 167.07156,238.73624   L 166.60488,240.26959   L 165.87152,241.00293   L 165.00483,241.0696   L 164.0048,240.06959   L 162.33809,238.73624   L 160.13802,237.53622   L 158.87132,237.13622   L 157.47128,237.00288   L 156.53792,237.06955   L 155.67122,237.40289   L 153.93784,238.53624   L 152.40446,240.40293   L 151.07109,242.86962   L 149.93772,246.00299   L 149.07103,249.73637   L 148.53768,253.93642   L 148.33768,258.66981   L 148.53768,263.93655   L 149.07103,268.5366   L 149.93772,272.46998   L 151.07109,275.87002   L 152.40446,278.93673   L 153.93784,281.67009   L 157.2046,286.87016   L 159.87135,290.87021   L 162.53809,295.47026   L 163.67146,298.2703   L 164.53815,301.40367   L 165.13817,304.93704   L 165.33817,309.07043   L 165.20484,312.6038   L 164.87149,315.73718   L 164.33814,318.53721   L 163.60479,320.87057   L 162.67143,322.67059   L 161.53806,324.07061   L 160.33803,324.93729   L 158.93799,325.20396   L 157.80462,325.07062   L 156.80459,324.67062   L 155.87123,324.07061   L 154.93787,323.20393   L 153.33782,320.8039   L 151.93778,317.7372   L 150.73775,314.07049   L 149.73772,309.93711   L 148.13767,300.80366   L 147.0043,300.80366   L 148.47101,329.73735   L 149.60438,329.73735   L 149.93772,326.60397   L 150.33773,325.7373   L 150.60441,325.5373   L 151.07109,325.47063   L 151.87111,325.67063   L 152.60447,326.20397   L 154.20451,327.80399   L 156.20457,329.40401   L 157.53794,329.93735   L 158.07129,330.07068   L 159.13799,330.13735   L 160.20469,330.00402   L 161.27139,329.60401   L 162.27142,329.004   L 163.33811,328.20399   L 165.20484,325.87063   L 166.93822,322.80393   L 168.40493,319.00388   L 169.5383,314.60383   L 170.27165,309.67044   L 170.53833,304.27037   L 170.27165,299.07031   L 169.5383,294.47025   L 168.4716,290.2702   L 167.07156,286.53682   L 165.47151,283.20345   L 163.73813,280.20341   L 160.33803,274.93668   L 157.80462,270.93663   L 155.40455,266.20324   L 154.40452,263.46987   L 153.6045,260.40317   L 153.07115,257.00313   L 152.87114,253.20308   L 153.00448,250.73638   L 153.27115,248.46969   L 153.73783,246.403   L 154.40452,244.66964   L 155.13787,243.20296   L 156.00457,242.13628   L 156.93793,241.46961   L 157.87129,241.20294   L 158.93799,241.33627   L 159.93801,241.66961   L 161.80474,243.06962   L 163.53812,245.26965   L 165.00483,248.20302   L 166.20486,251.7364   L 167.13823,255.73645   L 167.73824,260.1365   L 168.00492,264.86989   L 169.27162,264.86989   L 168.40493,236.46954  z " clip-path="url(#clipWmfPath1)" style="fill:#cccccc;fill-rule:nonzero;fill-opacity:1;stroke:none;"/>
  <path id="path24" d="  M 172.47172,238.4029   L 172.47172,240.26959   L 173.60508,240.40293   L 174.60511,240.93627   L 175.33847,241.73628   L 176.00515,242.93629   L 176.47183,244.53631   L 176.73851,246.46967   L 177.00518,251.66973   L 177.00518,314.8705   L 176.73851,320.00389   L 176.47183,321.93725   L 176.00515,323.4706   L 175.33847,324.60395   L 174.60511,325.40396   L 173.60508,325.87063   L 172.47172,326.00397   L 172.47172,328.00399   L 201.33923,328.00399   L 203.60596,305.60372   L 202.53926,305.60372   L 201.00588,312.07046   L 200.07252,314.93717   L 199.13916,317.47053   L 198.0058,319.60389   L 196.73909,321.27058   L 195.40572,322.33726   L 193.87234,322.8706   L 186.87214,323.60394   L 185.6721,323.60394   L 184.20539,323.33727   L 183.20536,322.27059   L 182.67201,320.2039   L 182.47201,316.73719   L 182.47201,283.73679   L 190.00556,283.73679   L 191.53894,283.80345   L 192.80564,284.07012   L 193.93901,284.67013   L 194.93904,285.73681   L 195.67239,287.33683   L 196.27241,289.73686   L 196.67242,292.9369   L 196.87243,297.13695   L 197.87246,297.13695   L 197.87246,264.86989   L 196.87243,264.86989   L 196.67242,268.93661   L 196.27241,272.06998   L 195.67239,274.40334   L 194.93904,276.00336   L 193.93901,277.07004   L 192.80564,277.60338   L 191.53894,277.87005   L 190.00556,277.93672   L 182.47201,277.93672   L 182.47201,245.26965   L 182.80535,243.40296   L 183.20536,242.80295   L 183.67204,242.60295   L 190.80558,242.60295   L 192.53897,242.66962   L 194.20568,243.06962   L 195.67239,243.80297   L 196.9391,245.13632   L 198.0058,247.00301   L 198.87249,249.60304   L 199.47251,253.13641   L 199.73918,257.60314   L 200.67254,257.60314   L 200.67254,238.4029   L 172.47172,238.4029  z " clip-path="url(#clipWmfPath1)" style="fill:#cccccc;fill-rule:nonzero;fill-opacity:1;stroke:none;"/>
  <path id="path26" d="  M 81.802394,115.33474   L 81.802394,117.33476   L 83.00243,117.53476   L 84.002459,118.20144   L 84.802482,119.20145   L 85.469168,120.66814   L 86.269192,124.46818   L 86.535866,129.53491   L 86.535866,190.66899   L 86.269192,195.66905   L 85.469168,199.40243   L 84.802482,200.80244   L 84.002459,201.80246   L 83.00243,202.40246   L 81.802394,202.60247   L 81.802394,204.66916   L 97.202845,204.66916   L 97.202845,202.60247   L 96.00281,202.40246   L 95.002781,201.80246   L 94.202757,200.80244   L 93.536071,199.40243   L 93.069391,197.66907   L 92.736048,195.66905   L 92.469373,190.66899   L 92.469373,129.53491   L 92.736048,124.46818   L 93.069391,122.40149   L 93.536071,120.66814   L 94.202757,119.20145   L 95.002781,118.20144   L 96.00281,117.53476   L 97.202845,117.33476   L 97.202845,115.33474   L 81.802394,115.33474  z " clip-path="url(#clipWmfPath1)" style="fill:#cccccc;fill-rule:nonzero;fill-opacity:1;stroke:none;"/>
  <path id="path28" d="  M 133.93725,188.66896   L 132.80389,186.46894   L 130.07047,191.93567   L 128.5371,194.3357   L 126.87038,196.40239   L 125.137,198.06908   L 123.40361,199.33576   L 121.53689,200.13577   L 119.73684,200.40244   L 117.93679,200.20244   L 116.27007,199.53576   L 114.80336,198.40241   L 113.40332,196.93573   L 112.20328,195.13571   L 111.06992,193.00235   L 109.2032,187.93562   L 107.80316,181.86888   L 106.86979,175.13546   L 106.33645,167.93538   L 106.13644,160.53529   L 106.26978,153.00186   L 106.73646,145.5351   L 107.53648,138.46835   L 108.80318,132.06827   L 110.53657,126.60154   L 111.60327,124.26818   L 112.8033,122.33482   L 114.20334,120.7348   L 115.67005,119.60146   L 117.40344,118.86811   L 119.27016,118.60144   L 120.47019,118.73478   L 121.60356,119.13478   L 122.73693,119.73479   L 123.80362,120.60147   L 125.80368,122.93483   L 127.60374,126.00153   L 129.13711,129.80158   L 130.40382,134.0683   L 131.27051,138.86836   L 131.80386,144.06842   L 133.07056,144.06842   L 132.60388,114.06805   L 131.47051,114.06805   L 130.73716,116.26808   L 129.93714,117.73477   L 129.40379,118.13477   L 128.87044,118.26811   L 127.60374,117.80143   L 125.27033,116.06808   L 123.27027,114.93473   L 121.20355,114.26806   L 118.87015,114.06805   L 116.87009,114.26806   L 114.9367,114.86806   L 113.00331,115.93474   L 111.20325,117.26809   L 109.53654,119.06812   L 107.93649,121.13481   L 106.40311,123.6015   L 105.00307,126.40154   L 102.66967,132.80162   L 100.86962,140.40171   L 99.736253,149.00181   L 99.336241,158.4686   L 99.40291,163.60199   L 99.669584,168.60205   L 100.66961,177.86883   L 102.26966,186.1356   L 103.26969,189.80231   L 104.46972,193.20235   L 105.8031,196.26906   L 107.26981,199.00242   L 108.86985,201.33578   L 110.60324,203.26914   L 112.46996,204.86916   L 114.47002,206.00251   L 116.60341,206.66918   L 118.87015,206.93585   L 121.13688,206.60251   L 123.33694,205.66917   L 125.337,204.13582   L 127.20372,202.00246   L 129.00378,199.40243   L 130.67049,196.26906   L 133.93725,188.66896  z " clip-path="url(#clipWmfPath1)" style="fill:#cccccc;fill-rule:nonzero;fill-opacity:1;stroke:none;"/>
  <path id="path30" d="  M 184.80541,103.46793   L 182.80535,103.7346   L 180.93863,104.40127   L 179.13858,105.53462   L 177.40519,107.13464   L 175.80515,109.06799   L 174.27177,111.46802   L 172.9384,114.20139   L 171.67169,117.26809   L 170.53833,120.66814   L 169.5383,124.46818   L 167.93825,132.80162   L 166.93822,142.20173   L 166.67155,147.26846   L 166.60488,152.53519   L 166.87155,163.60199   L 167.73824,173.86878   L 168.40493,178.60217   L 169.20495,183.06889   L 171.20501,191.06899   L 172.40505,194.60237   L 173.73842,197.66907   L 175.20513,200.33577   L 176.87184,202.60247   L 178.6719,204.40249   L 180.53862,205.73584   L 182.60534,206.53585   L 184.80541,206.80252   L 186.93881,206.53585   L 188.93886,205.73584   L 190.80558,204.40249   L 192.60564,202.60247   L 194.20568,200.33577   L 195.67239,197.66907   L 197.07244,194.60237   L 198.27247,191.06899   L 200.27253,183.06889   L 201.07255,178.60217   L 201.73924,173.86878   L 202.6726,163.60199   L 202.93927,152.53519   L 202.8726,147.26846   L 202.60593,142.20173   L 201.6059,132.80162   L 200.07252,124.46818   L 199.07249,120.66814   L 197.93913,117.26809   L 196.67242,114.20139   L 195.27238,111.46802   L 193.80567,109.06799   L 192.20563,107.13464   L 190.47224,105.53462   L 188.67219,104.40127   L 186.80547,103.7346   L 184.80541,103.46793  z    M 184.80541,108.46799   L 186.47212,108.73466   L 187.93883,109.468   L 189.33888,110.66801   L 190.53891,112.3347   L 191.67228,114.33472   L 192.67231,116.66809   L 194.33902,122.40149   L 195.53906,129.06824   L 196.40575,136.53499   L 196.87243,144.40176   L 197.00577,152.53519   L 196.87243,160.73529   L 196.47242,169.13539   L 195.73906,177.33549   L 194.53903,184.86892   L 192.93898,191.40233   L 191.93895,194.20236   L 190.80558,196.53573   L 189.53888,198.46908   L 188.13884,199.93577   L 186.53879,200.80244   L 184.80541,201.13578   L 183.07203,200.80244   L 181.47198,199.93577   L 180.00527,198.46908   L 178.73857,196.53573   L 177.6052,194.20236   L 176.60517,191.40233   L 174.93845,184.86892   L 173.80509,177.33549   L 173.00506,169.13539   L 172.60505,160.73529   L 172.47172,152.53519   L 172.60505,144.40176   L 173.1384,136.53499   L 173.93842,129.06824   L 175.20513,122.40149   L 176.87184,116.66809   L 177.87187,114.33472   L 179.00524,112.3347   L 180.27194,110.66801   L 181.60532,109.468   L 183.13869,108.73466   L 184.80541,108.46799  z   " clip-path="url(#clipWmfPath1)" style="fill:#cccccc;fill-rule:evenodd;fill-opacity:1;stroke:none;"/>
  <path id="path32" d="  M 140.93746,130.86826   L 140.93746,189.60231   L 140.80412,195.53571   L 140.53745,197.73574   L 140.13744,199.53576   L 139.47075,200.93578   L 138.60406,201.86912   L 137.47069,202.40246   L 136.00398,202.60247   L 136.00398,204.66916   L 151.4711,204.66916   L 151.4711,202.60247   L 150.00439,202.40246   L 148.80436,201.86912   L 148.00433,200.93578   L 147.40431,199.53576   L 146.8043,195.53571   L 146.67096,189.60231   L 146.67096,163.40199   L 149.93772,163.40199   L 163.33811,204.66916   L 172.27171,204.66916   L 172.27171,202.60247   L 171.40502,202.3358   L 170.47166,201.53579   L 169.5383,200.33577   L 168.6716,198.73575   L 166.87155,194.80237   L 165.2715,190.20231   L 155.67122,162.46864   L 157.53794,161.60197   L 159.40467,160.00195   L 161.13805,157.80192   L 162.7381,155.00189   L 164.0048,151.73518   L 165.0715,147.93513   L 165.73818,143.66842   L 165.93819,139.13503   L 165.87152,135.66832   L 165.60485,132.53495   L 164.60482,127.20155   L 163.93813,125.00152   L 163.13811,123.06816   L 162.20475,121.40148   L 161.20472,119.93479   L 160.07135,118.73478   L 158.93799,117.73477   L 156.47125,116.33475   L 153.93784,115.53474   L 151.33776,115.33474   L 136.00398,115.33474   L 136.00398,117.33476   L 137.47069,117.53476   L 138.60406,118.0681   L 139.47075,119.06812   L 140.13744,120.5348   L 140.53745,122.33482   L 140.80412,124.73485   L 140.93746,130.86826  z    M 146.67096,158.60193   L 146.67096,124.00151   L 146.87097,121.53481   L 147.47098,120.40147   L 148.40434,120.00146   L 149.60438,120.00146   L 150.27107,120.00146   L 152.33779,120.26813   L 154.13785,121.00147   L 155.73789,122.33482   L 157.13793,124.26818   L 158.20463,126.86821   L 159.00465,130.13492   L 159.47133,134.2683   L 159.67134,139.13503   L 159.338,145.26843   L 158.93799,147.8018   L 158.47131,150.00183   L 157.80462,151.86851   L 157.07126,153.46853   L 155.33788,155.8019   L 154.33785,156.66857   L 153.33782,157.33525   L 151.13776,158.13526   L 148.87102,158.53526   L 146.67096,158.60193  z   " clip-path="url(#clipWmfPath1)" style="fill:#cccccc;fill-rule:evenodd;fill-opacity:1;stroke:none;"/>
  <path id="path34" d="  M 88.935937,237.00288   L 87.002547,237.20289   L 85.135825,237.86956   L 83.402441,238.86957   L 81.735726,240.26959   L 80.202348,242.06961   L 78.735638,244.20297   L 77.402266,246.66967   L 76.135562,249.4697   L 75.002195,252.53641   L 74.068835,255.93645   L 72.468788,263.46987   L 71.535427,272.00331   L 71.202084,281.33676   L 71.468759,291.27021   L 72.335451,300.47032   L 73.735492,308.73709   L 74.668852,312.53714   L 75.668882,315.93718   L 76.868917,319.07055   L 78.202289,321.87058   L 79.668999,324.33728   L 81.269045,326.3373   L 82.935761,327.93732   L 84.802482,329.13734   L 86.802541,329.87068   L 88.935937,330.13735   L 91.002664,329.87068   L 92.936054,329.13734   L 94.736106,327.93732   L 96.402822,326.3373   L 98.002869,324.33728   L 99.40291,321.87058   L 100.73628,319.07055   L 101.93632,315.93718   L 103.00301,312.53714   L 103.86971,308.73709   L 105.33642,300.47032   L 106.20311,291.27021   L 106.46978,281.33676   L 106.13644,272.00331   L 105.20308,263.46987   L 103.6697,255.93645   L 102.66967,252.53641   L 101.60297,249.4697   L 100.33627,246.66967   L 99.002898,244.20297   L 97.602857,242.06961   L 96.00281,240.26959   L 94.402763,238.86957   L 92.669379,237.86956   L 90.802658,237.20289   L 88.935937,237.00288  z    M 88.935937,241.46961   L 90.535983,241.66961   L 91.936024,242.40295   L 93.269397,243.46963   L 94.469432,244.93631   L 95.53613,246.73634   L 96.46949,248.8697   L 98.069537,253.93642   L 99.202904,260.00316   L 100.00293,266.66991   L 100.46961,273.80333   L 100.60294,281.13675   L 100.46961,288.53684   L 100.0696,296.07027   L 99.40291,303.47036   L 98.269543,310.27044   L 96.736165,316.20385   L 95.802804,318.67054   L 94.669438,320.87057   L 93.469403,322.60393   L 92.13603,323.93728   L 90.602652,324.73729   L 88.935937,325.00396   L 87.202552,324.73729   L 85.669174,323.93728   L 84.269133,322.60393   L 83.00243,320.87057   L 81.869063,318.67054   L 80.935702,316.20385   L 80.06901,313.33715   L 79.335656,310.27044   L 78.202289,303.47036   L 77.468934,296.07027   L 77.068923,288.53684   L 76.935585,281.13675   L 77.068923,273.80333   L 77.535603,266.66991   L 78.335626,260.00316   L 79.535661,253.93642   L 81.135708,248.8697   L 82.135737,246.73634   L 83.269104,244.93631   L 84.469139,243.46963   L 85.802511,242.40295   L 87.33589,241.66961   L 88.935937,241.46961  z   " clip-path="url(#clipWmfPath1)" style="fill:#cccccc;fill-rule:evenodd;fill-opacity:1;stroke:none;"/>
  <path id="path36" d="  M 31.000907,224.53607   L 31.000907,222.06937   L 206.0727,222.06937   L 206.0727,224.53607   L 31.000907,224.53607  z " clip-path="url(#clipWmfPath1)" style="fill:#cccccc;fill-rule:evenodd;fill-opacity:1;stroke:none;"/>
  <path id="path38" d="  M 205.20601,108.93466   L 206.40604,109.33466   L 207.20607,110.73468   L 207.67275,112.3347   L 207.3394,114.06805   L 206.93939,114.8014   L 206.40604,115.33474   L 205.80602,115.66807   L 205.20601,115.80141   L 204.67266,115.66807   L 204.13931,115.33474   L 203.60596,114.8014   L 203.13928,114.06805   L 202.93927,113.26805   L 202.93927,112.3347   L 203.00594,111.46802   L 203.27262,110.73468   L 203.60596,110.06801   L 204.13931,109.33466   L 205.20601,108.93466  z    M 205.20601,109.13466   L 204.67266,109.268   L 204.20598,109.80134   L 203.33929,110.80135   L 203.13928,112.3347   L 203.33929,114.06805   L 204.20598,115.06807   L 205.20601,115.53474   L 205.80602,115.4014   L 206.2727,115.06807   L 207.1394,114.06805   L 207.40607,112.3347   L 207.1394,110.80135   L 206.73938,110.13467   L 206.2727,109.80134   L 205.80602,109.268   L 205.20601,109.13466  z    M 204.00597,110.26801   L 205.20601,110.26801   L 206.0727,110.53468   L 206.2727,111.40136   L 206.13937,112.1347   L 205.47268,112.40137   L 206.13937,113.80138   L 206.40604,114.26806   L 206.60605,114.26806   L 206.60605,114.53473   L 206.0727,114.53473   L 205.006,112.40137   L 204.87266,112.40137   L 204.87266,114.06805   L 205.006,114.26806   L 205.27268,114.26806   L 205.27268,114.53473   L 203.87263,114.53473   L 203.87263,114.26806   L 204.13931,114.26806   L 204.20598,114.06805   L 204.20598,113.73472   L 204.20598,111.00135   L 204.20598,110.73468   L 204.20598,110.33468   L 204.00597,110.33468   L 204.00597,110.26801  z    M 204.87266,112.20137   L 205.27268,112.20137   L 205.53935,111.86803   L 205.60602,111.40136   L 205.47268,110.73468   L 205.33934,110.40134   L 205.07267,110.33468   L 204.87266,110.33468   L 204.87266,112.20137  z   " clip-path="url(#clipWmfPath1)" style="fill:#bfbfbf;fill-rule:evenodd;fill-opacity:1;stroke:none;"/>
  <path id="path40" d="  M 51.468173,26.000316   L 212.33955,26.000316   L 212.33955,41.000499   L 51.468173,41.000499   L 51.468173,26.000316  z " clip-path="url(#clipWmfPath1)" style="fill:#000000;fill-rule:nonzero;fill-opacity:1;stroke:none;"/>
  <path id="path42" d="  M 51.468173,26.000316   L 212.33955,26.000316   L 212.33955,41.000499   L 51.468173,41.000499   L 51.468173,26.000316  z " clip-path="url(#clipWmfPath1)" style="fill:none;stroke:#000000;stroke-width:0.066668615px;stroke-linecap:round;stroke-linejoin:round;stroke-miterlimit:4;stroke-dasharray:none;stroke-opacity:1;"/>
  <path id="path44" d="  M 57.135006,36.267108   L 206.67272,36.267108   L 206.67272,30.800375   L 57.135006,30.800375   L 57.135006,36.267108  z " clip-path="url(#clipWmfPath1)" style="fill:#ffffff;fill-rule:nonzero;fill-opacity:1;stroke:none;"/>
  <path id="path46" d="  M 57.135006,36.267108   L 206.67272,36.267108   L 206.67272,30.800375   L 57.135006,30.800375   L 57.135006,36.267108  z " clip-path="url(#clipWmfPath1)" style="fill:none;stroke:#000000;stroke-width:0.066668615px;stroke-linecap:round;stroke-linejoin:round;stroke-miterlimit:4;stroke-dasharray:none;stroke-opacity:1;"/>
  <path id="path48" d="  M 51.468173,61.60075   L 212.33955,61.60075   L 212.33955,76.600932   L 51.468173,76.600932   L 51.468173,61.60075  z " clip-path="url(#clipWmfPath1)" style="fill:#000000;fill-rule:nonzero;fill-opacity:1;stroke:none;"/>
  <path id="path50" d="  M 51.468173,61.60075   L 212.33955,61.60075   L 212.33955,76.600932   L 51.468173,76.600932   L 51.468173,61.60075  z " clip-path="url(#clipWmfPath1)" style="fill:none;stroke:#000000;stroke-width:0.066668615px;stroke-linecap:round;stroke-linejoin:round;stroke-miterlimit:4;stroke-dasharray:none;stroke-opacity:1;"/>
  <path id="path52" d="  M 57.135006,71.867541   L 206.67272,71.867541   L 206.67272,66.400808   L 57.135006,66.400808   L 57.135006,71.867541  z " clip-path="url(#clipWmfPath1)" style="fill:#ffffff;fill-rule:nonzero;fill-opacity:1;stroke:none;"/>
  <path id="path54" d="  M 57.135006,71.867541   L 206.67272,71.867541   L 206.67272,66.400808   L 57.135006,66.400808   L 57.135006,71.867541  z " clip-path="url(#clipWmfPath1)" style="fill:none;stroke:#000000;stroke-width:0.066668615px;stroke-linecap:round;stroke-linejoin:round;stroke-miterlimit:4;stroke-dasharray:none;stroke-opacity:1;"/>
  <path id="path56" d="  M 51.468173,97.201183   L 212.33955,97.201183   L 212.33955,112.20137   L 51.468173,112.20137   L 51.468173,97.201183  z " clip-path="url(#clipWmfPath1)" style="fill:#000000;fill-rule:nonzero;fill-opacity:1;stroke:none;"/>
  <path id="path58" d="  M 51.468173,97.201183   L 212.33955,97.201183   L 212.33955,112.20137   L 51.468173,112.20137   L 51.468173,97.201183  z " clip-path="url(#clipWmfPath1)" style="fill:none;stroke:#000000;stroke-width:0.066668615px;stroke-linecap:round;stroke-linejoin:round;stroke-miterlimit:4;stroke-dasharray:none;stroke-opacity:1;"/>
  <path id="path60" d="  M 57.135006,107.46797   L 206.67272,107.46797   L 206.67272,102.00124   L 57.135006,102.00124   L 57.135006,107.46797  z " clip-path="url(#clipWmfPath1)" style="fill:#ffffff;fill-rule:nonzero;fill-opacity:1;stroke:none;"/>
  <path id="path62" d="  M 57.135006,107.46797   L 206.67272,107.46797   L 206.67272,102.00124   L 57.135006,102.00124   L 57.135006,107.46797  z " clip-path="url(#clipWmfPath1)" style="fill:none;stroke:#000000;stroke-width:0.066668615px;stroke-linecap:round;stroke-linejoin:round;stroke-miterlimit:4;stroke-dasharray:none;stroke-opacity:1;"/>
  <path id="path64" d="  M 51.468173,132.80162   L 212.33955,132.80162   L 212.33955,147.8018   L 51.468173,147.8018   L 51.468173,132.80162  z " clip-path="url(#clipWmfPath1)" style="fill:#000000;fill-rule:nonzero;fill-opacity:1;stroke:none;"/>
  <path id="path66" d="  M 51.468173,132.80162   L 212.33955,132.80162   L 212.33955,147.8018   L 51.468173,147.8018   L 51.468173,132.80162  z " clip-path="url(#clipWmfPath1)" style="fill:none;stroke:#000000;stroke-width:0.066668615px;stroke-linecap:round;stroke-linejoin:round;stroke-miterlimit:4;stroke-dasharray:none;stroke-opacity:1;"/>
  <path id="path68" d="  M 57.135006,143.06841   L 206.67272,143.06841   L 206.67272,137.60167   L 57.135006,137.60167   L 57.135006,143.06841  z " clip-path="url(#clipWmfPath1)" style="fill:#ffffff;fill-rule:nonzero;fill-opacity:1;stroke:none;"/>
  <path id="path70" d="  M 57.135006,143.06841   L 206.67272,143.06841   L 206.67272,137.60167   L 57.135006,137.60167   L 57.135006,143.06841  z " clip-path="url(#clipWmfPath1)" style="fill:none;stroke:#000000;stroke-width:0.066668615px;stroke-linecap:round;stroke-linejoin:round;stroke-miterlimit:4;stroke-dasharray:none;stroke-opacity:1;"/>
  <path id="path72" d="  M 51.001493,166.93536   L 211.87287,166.93536   L 211.87287,181.93555   L 51.001493,181.93555   L 51.001493,166.93536  z " clip-path="url(#clipWmfPath1)" style="fill:#000000;fill-rule:nonzero;fill-opacity:1;stroke:none;"/>
  <path id="path74" d="  M 51.001493,166.93536   L 211.87287,166.93536   L 211.87287,181.93555   L 51.001493,181.93555   L 51.001493,166.93536  z " clip-path="url(#clipWmfPath1)" style="fill:none;stroke:#000000;stroke-width:0.066668615px;stroke-linecap:round;stroke-linejoin:round;stroke-miterlimit:4;stroke-dasharray:none;stroke-opacity:1;"/>
  <path id="path76" d="  M 56.668325,177.20216   L 206.20604,177.20216   L 206.20604,171.73542   L 56.668325,171.73542   L 56.668325,177.20216  z " clip-path="url(#clipWmfPath1)" style="fill:#ffffff;fill-rule:nonzero;fill-opacity:1;stroke:none;"/>
  <path id="path78" d="  M 56.668325,177.20216   L 206.20604,177.20216   L 206.20604,171.73542   L 56.668325,171.73542   L 56.668325,177.20216  z " clip-path="url(#clipWmfPath1)" style="fill:none;stroke:#000000;stroke-width:0.066668615px;stroke-linecap:round;stroke-linejoin:round;stroke-miterlimit:4;stroke-dasharray:none;stroke-opacity:1;"/>
  <path id="path80" d="  M 51.001493,202.5358   L 211.87287,202.5358   L 211.87287,217.53598   L 51.001493,217.53598   L 51.001493,202.5358  z " clip-path="url(#clipWmfPath1)" style="fill:#000000;fill-rule:nonzero;fill-opacity:1;stroke:none;"/>
  <path id="path82" d="  M 51.001493,202.5358   L 211.87287,202.5358   L 211.87287,217.53598   L 51.001493,217.53598   L 51.001493,202.5358  z " clip-path="url(#clipWmfPath1)" style="fill:none;stroke:#000000;stroke-width:0.066668615px;stroke-linecap:round;stroke-linejoin:round;stroke-miterlimit:4;stroke-dasharray:none;stroke-opacity:1;"/>
  <path id="path84" d="  M 56.668325,212.80259   L 206.20604,212.80259   L 206.20604,207.33586   L 56.668325,207.33586   L 56.668325,212.80259  z " clip-path="url(#clipWmfPath1)" style="fill:#ffffff;fill-rule:nonzero;fill-opacity:1;stroke:none;"/>
  <path id="path86" d="  M 56.668325,212.80259   L 206.20604,212.80259   L 206.20604,207.33586   L 56.668325,207.33586   L 56.668325,212.80259  z " clip-path="url(#clipWmfPath1)" style="fill:none;stroke:#000000;stroke-width:0.066668615px;stroke-linecap:round;stroke-linejoin:round;stroke-miterlimit:4;stroke-dasharray:none;stroke-opacity:1;"/>
  <path id="path88" d="  M 51.001493,238.13623   L 211.87287,238.13623   L 211.87287,253.13641   L 51.001493,253.13641   L 51.001493,238.13623  z " clip-path="url(#clipWmfPath1)" style="fill:#000000;fill-rule:nonzero;fill-opacity:1;stroke:none;"/>
  <path id="path90" d="  M 51.001493,238.13623   L 211.87287,238.13623   L 211.87287,253.13641   L 51.001493,253.13641   L 51.001493,238.13623  z " clip-path="url(#clipWmfPath1)" style="fill:none;stroke:#000000;stroke-width:0.066668615px;stroke-linecap:round;stroke-linejoin:round;stroke-miterlimit:4;stroke-dasharray:none;stroke-opacity:1;"/>
  <path id="path92" d="  M 56.668325,248.40302   L 206.20604,248.40302   L 206.20604,242.93629   L 56.668325,242.93629   L 56.668325,248.40302  z " clip-path="url(#clipWmfPath1)" style="fill:#ffffff;fill-rule:nonzero;fill-opacity:1;stroke:none;"/>
  <path id="path94" d="  M 56.668325,248.40302   L 206.20604,248.40302   L 206.20604,242.93629   L 56.668325,242.93629   L 56.668325,248.40302  z " clip-path="url(#clipWmfPath1)" style="fill:none;stroke:#000000;stroke-width:0.066668615px;stroke-linecap:round;stroke-linejoin:round;stroke-miterlimit:4;stroke-dasharray:none;stroke-opacity:1;"/>
  <path id="path96" d="  M 51.001493,274.00333   L 211.87287,274.00333   L 211.87287,289.00352   L 51.001493,289.00352   L 51.001493,274.00333  z " clip-path="url(#clipWmfPath1)" style="fill:#000000;fill-rule:nonzero;fill-opacity:1;stroke:none;"/>
  <path id="path98" d="  M 51.001493,274.00333   L 211.87287,274.00333   L 211.87287,289.00352   L 51.001493,289.00352   L 51.001493,274.00333  z " clip-path="url(#clipWmfPath1)" style="fill:none;stroke:#000000;stroke-width:0.066668615px;stroke-linecap:round;stroke-linejoin:round;stroke-miterlimit:4;stroke-dasharray:none;stroke-opacity:1;"/>
  <path id="path100" d="  M 56.668325,284.27013   L 206.20604,284.27013   L 206.20604,278.80339   L 56.668325,278.80339   L 56.668325,284.27013  z " clip-path="url(#clipWmfPath1)" style="fill:#ffffff;fill-rule:nonzero;fill-opacity:1;stroke:none;"/>
  <path id="path102" d="  M 56.668325,284.27013   L 206.20604,284.27013   L 206.20604,278.80339   L 56.668325,278.80339   L 56.668325,284.27013  z " clip-path="url(#clipWmfPath1)" style="fill:none;stroke:#000000;stroke-width:0.066668615px;stroke-linecap:round;stroke-linejoin:round;stroke-miterlimit:4;stroke-dasharray:none;stroke-opacity:1;"/>
  <path id="path104" d="  M 141.33747,274.87001   L 142.3375,275.00335   L 143.13752,275.47002   L 143.73754,276.13669   L 143.93755,276.87004   L 143.93755,286.33682   L 143.73754,287.07016   L 143.13752,287.67017   L 142.3375,288.0035   L 141.33747,288.13684   L 121.60356,288.13684   L 120.60353,288.0035   L 119.80351,287.6035   L 119.20349,287.00349   L 119.00348,286.27015   L 119.00348,276.87004   L 119.20349,276.13669   L 119.80351,275.47002   L 120.60353,275.00335   L 121.60356,274.87001   L 141.33747,274.87001  z " clip-path="url(#clipWmfPath1)" style="fill:#ffffff;fill-rule:nonzero;fill-opacity:1;stroke:none;"/>
  <path id="path106" d="  M 121.60356,274.33667   L 121.60356,275.40335   L 141.2708,275.40335   L 142.13749,275.47002   L 142.80418,275.87002   L 143.27086,276.40336   L 143.4042,276.9367   L 143.4042,286.27015   L 143.27086,286.80349   L 142.87085,287.27016   L 142.20416,287.53683   L 141.2708,287.6035   L 121.60356,287.6035   L 120.73687,287.53683   L 120.13685,287.2035   L 119.67017,286.73682   L 119.53683,286.20348   L 119.53683,276.9367   L 119.67017,276.40336   L 120.13685,275.87002   L 120.80354,275.47002   L 121.60356,275.40335   L 141.2708,275.40335   L 142.27083,275.53669   L 142.40417,274.47001   L 141.33747,274.33667   L 121.53689,274.33667   L 120.40352,274.53667   L 119.47016,275.07001   L 118.73681,275.87002   L 118.47013,276.80337   L 118.47013,286.33682   L 118.73681,287.27016   L 119.47016,288.0035   L 120.47019,288.47018   L 121.53689,288.67018   L 141.33747,288.67018   L 142.47084,288.47018   L 143.4042,288.07017   L 144.20422,287.33683   L 144.4709,286.40349   L 144.4709,276.80337   L 144.20422,275.87002   L 143.47087,275.07001   L 142.53751,274.53667   L 141.33747,274.33667   L 121.60356,274.33667  z " clip-path="url(#clipWmfPath1)" style="fill:#000000;fill-rule:nonzero;fill-opacity:1;stroke:#000000;stroke-width:0.066668615px;stroke-linecap:round;stroke-linejoin:round;stroke-miterlimit:4;stroke-dasharray:none;stroke-opacity:1;"/>
  <path id="path108" d="  M 52.001522,238.0029   L 212.8729,238.0029   L 212.8729,253.00308   L 52.001522,253.00308   L 52.001522,238.0029  z " clip-path="url(#clipWmfPath1)" style="fill:#000000;fill-rule:nonzero;fill-opacity:1;stroke:none;"/>
  <path id="path110" d="  M 52.001522,238.0029   L 212.8729,238.0029   L 212.8729,253.00308   L 52.001522,253.00308   L 52.001522,238.0029  z " clip-path="url(#clipWmfPath1)" style="fill:none;stroke:#000000;stroke-width:0.066668615px;stroke-linecap:round;stroke-linejoin:round;stroke-miterlimit:4;stroke-dasharray:none;stroke-opacity:1;"/>
  <path id="path112" d="  M 57.668355,248.26969   L 207.20607,248.26969   L 207.20607,242.80295   L 57.668355,242.80295   L 57.668355,248.26969  z " clip-path="url(#clipWmfPath1)" style="fill:#ffffff;fill-rule:nonzero;fill-opacity:1;stroke:none;"/>
  <path id="path114" d="  M 57.668355,248.26969   L 207.20607,248.26969   L 207.20607,242.80295   L 57.668355,242.80295   L 57.668355,248.26969  z " clip-path="url(#clipWmfPath1)" style="fill:none;stroke:#000000;stroke-width:0.066668615px;stroke-linecap:round;stroke-linejoin:round;stroke-miterlimit:4;stroke-dasharray:none;stroke-opacity:1;"/>
  <path id="path116" d="  M 142.3375,238.86957   L 143.33753,239.00291   L 144.13755,239.46958   L 144.73757,240.13626   L 144.93758,240.8696   L 144.93758,250.33638   L 144.73757,251.06972   L 144.13755,251.66973   L 143.33753,252.00307   L 142.3375,252.1364   L 122.60359,252.1364   L 121.60356,252.00307   L 120.80354,251.60306   L 120.20352,251.00305   L 120.00351,250.26971   L 120.00351,240.8696   L 120.20352,240.13626   L 120.80354,239.46958   L 121.60356,239.00291   L 122.60359,238.86957   L 142.3375,238.86957  z " clip-path="url(#clipWmfPath1)" style="fill:#ffffff;fill-rule:nonzero;fill-opacity:1;stroke:none;"/>
  <path id="path118" d="  M 122.60359,238.33623   L 122.60359,239.40291   L 142.27083,239.40291   L 143.13752,239.46958   L 143.80421,239.86959   L 144.27089,240.40293   L 144.40423,240.93627   L 144.40423,250.26971   L 144.27089,250.80305   L 143.87088,251.26972   L 143.20419,251.53639   L 142.27083,251.60306   L 122.60359,251.60306   L 121.7369,251.53639   L 121.13688,251.20306   L 120.6702,250.73638   L 120.53686,250.20304   L 120.53686,240.93627   L 120.6702,240.40293   L 121.13688,239.86959   L 121.80357,239.46958   L 122.60359,239.40291   L 142.27083,239.40291   L 143.27086,239.53625   L 143.4042,238.46957   L 142.3375,238.33623   L 122.53692,238.33623   L 121.40355,238.53624   L 120.47019,239.06958   L 119.73684,239.86959   L 119.47016,240.80293   L 119.47016,250.33638   L 119.73684,251.26972   L 120.47019,252.00307   L 121.47022,252.46974   L 122.53692,252.66974   L 142.3375,252.66974   L 143.47087,252.46974   L 144.40423,252.06973   L 145.20425,251.33639   L 145.47092,250.40305   L 145.47092,240.80293   L 145.20425,239.86959   L 144.4709,239.06958   L 143.53753,238.53624   L 142.3375,238.33623   L 122.60359,238.33623  z " clip-path="url(#clipWmfPath1)" style="fill:#000000;fill-rule:nonzero;fill-opacity:1;stroke:#000000;stroke-width:0.066668615px;stroke-linecap:round;stroke-linejoin:round;stroke-miterlimit:4;stroke-dasharray:none;stroke-opacity:1;"/>
  <path id="path120" d="  M 51.001493,203.00247   L 211.87287,203.00247   L 211.87287,218.00265   L 51.001493,218.00265   L 51.001493,203.00247  z " clip-path="url(#clipWmfPath1)" style="fill:#000000;fill-rule:nonzero;fill-opacity:1;stroke:none;"/>
  <path id="path122" d="  M 51.001493,203.00247   L 211.87287,203.00247   L 211.87287,218.00265   L 51.001493,218.00265   L 51.001493,203.00247  z " clip-path="url(#clipWmfPath1)" style="fill:none;stroke:#000000;stroke-width:0.066668615px;stroke-linecap:round;stroke-linejoin:round;stroke-miterlimit:4;stroke-dasharray:none;stroke-opacity:1;"/>
  <path id="path124" d="  M 56.668325,213.26926   L 206.20604,213.26926   L 206.20604,207.80253   L 56.668325,207.80253   L 56.668325,213.26926  z " clip-path="url(#clipWmfPath1)" style="fill:#ffffff;fill-rule:nonzero;fill-opacity:1;stroke:none;"/>
  <path id="path126" d="  M 56.668325,213.26926   L 206.20604,213.26926   L 206.20604,207.80253   L 56.668325,207.80253   L 56.668325,213.26926  z " clip-path="url(#clipWmfPath1)" style="fill:none;stroke:#000000;stroke-width:0.066668615px;stroke-linecap:round;stroke-linejoin:round;stroke-miterlimit:4;stroke-dasharray:none;stroke-opacity:1;"/>
  <path id="path128" d="  M 141.33747,203.86915   L 142.3375,204.00248   L 143.13752,204.46916   L 143.73754,205.13583   L 143.93755,205.86917   L 143.93755,215.33595   L 143.73754,216.0693   L 143.13752,216.6693   L 142.3375,217.00264   L 141.33747,217.13598   L 121.60356,217.13598   L 120.60353,217.00264   L 119.80351,216.60264   L 119.20349,216.00263   L 119.00348,215.26929   L 119.00348,205.86917   L 119.20349,205.13583   L 119.80351,204.46916   L 120.60353,204.00248   L 121.60356,203.86915   L 141.33747,203.86915  z " clip-path="url(#clipWmfPath1)" style="fill:#ffffff;fill-rule:nonzero;fill-opacity:1;stroke:none;"/>
  <path id="path130" d="  M 121.60356,203.33581   L 121.60356,204.40249   L 141.2708,204.40249   L 142.13749,204.46916   L 142.80418,204.86916   L 143.27086,205.4025   L 143.4042,205.93584   L 143.4042,215.26929   L 143.27086,215.80263   L 142.87085,216.2693   L 142.20416,216.53597   L 141.2708,216.60264   L 121.60356,216.60264   L 120.73687,216.53597   L 120.13685,216.20263   L 119.67017,215.73596   L 119.53683,215.20262   L 119.53683,205.93584   L 119.67017,205.4025   L 120.13685,204.86916   L 120.80354,204.46916   L 121.60356,204.40249   L 141.2708,204.40249   L 142.27083,204.53582   L 142.40417,203.46914   L 141.33747,203.33581   L 121.53689,203.33581   L 120.40352,203.53581   L 119.47016,204.06915   L 118.73681,204.86916   L 118.47013,205.8025   L 118.47013,215.33595   L 118.73681,216.2693   L 119.47016,217.00264   L 120.47019,217.46931   L 121.53689,217.66932   L 141.33747,217.66932   L 142.47084,217.46931   L 143.4042,217.06931   L 144.20422,216.33597   L 144.4709,215.40262   L 144.4709,205.8025   L 144.20422,204.86916   L 143.47087,204.06915   L 142.53751,203.53581   L 141.33747,203.33581   L 121.60356,203.33581  z " clip-path="url(#clipWmfPath1)" style="fill:#000000;fill-rule:nonzero;fill-opacity:1;stroke:#000000;stroke-width:0.066668615px;stroke-linecap:round;stroke-linejoin:round;stroke-miterlimit:4;stroke-dasharray:none;stroke-opacity:1;"/>
  <path id="path132" d="  M 51.001493,26.000316   L 211.87287,26.000316   L 211.87287,41.000499   L 51.001493,41.000499   L 51.001493,26.000316  z " clip-path="url(#clipWmfPath1)" style="fill:#000000;fill-rule:nonzero;fill-opacity:1;stroke:none;"/>
  <path id="path134" d="  M 51.001493,26.000316   L 211.87287,26.000316   L 211.87287,41.000499   L 51.001493,41.000499   L 51.001493,26.000316  z " clip-path="url(#clipWmfPath1)" style="fill:none;stroke:#000000;stroke-width:0.066668615px;stroke-linecap:round;stroke-linejoin:round;stroke-miterlimit:4;stroke-dasharray:none;stroke-opacity:1;"/>
  <path id="path136" d="  M 56.668325,36.267108   L 206.20604,36.267108   L 206.20604,30.800375   L 56.668325,30.800375   L 56.668325,36.267108  z " clip-path="url(#clipWmfPath1)" style="fill:#ffffff;fill-rule:nonzero;fill-opacity:1;stroke:none;"/>
  <path id="path138" d="  M 56.668325,36.267108   L 206.20604,36.267108   L 206.20604,30.800375   L 56.668325,30.800375   L 56.668325,36.267108  z " clip-path="url(#clipWmfPath1)" style="fill:none;stroke:#000000;stroke-width:0.066668615px;stroke-linecap:round;stroke-linejoin:round;stroke-miterlimit:4;stroke-dasharray:none;stroke-opacity:1;"/>
  <path id="path140" d="  M 141.33747,26.866994   L 142.3375,27.000329   L 143.13752,27.467001   L 143.73754,28.133676   L 143.93755,28.867018   L 143.93755,38.3338   L 143.73754,39.067142   L 143.13752,39.667149   L 142.3375,40.000487   L 141.33747,40.133822   L 121.60356,40.133822   L 120.60353,40.000487   L 119.80351,39.600482   L 119.20349,39.000475   L 119.00348,38.267132   L 119.00348,28.867018   L 119.20349,28.133676   L 119.80351,27.467001   L 120.60353,27.000329   L 121.60356,26.866994   L 141.33747,26.866994  z " clip-path="url(#clipWmfPath1)" style="fill:#ffffff;fill-rule:nonzero;fill-opacity:1;stroke:none;"/>
  <path id="path142" d="  M 121.60356,26.333654   L 121.60356,27.400333   L 141.2708,27.400333   L 142.13749,27.467001   L 142.80418,27.867006   L 143.27086,28.400346   L 143.4042,28.933685   L 143.4042,38.267132   L 143.27086,38.800472   L 142.87085,39.267145   L 142.20416,39.533814   L 141.2708,39.600482   L 121.60356,39.600482   L 120.73687,39.533814   L 120.13685,39.200477   L 119.67017,38.733805   L 119.53683,38.200465   L 119.53683,28.933685   L 119.67017,28.400346   L 120.13685,27.867006   L 120.80354,27.467001   L 121.60356,27.400333   L 141.2708,27.400333   L 142.27083,27.533668   L 142.40417,26.466989   L 141.33747,26.333654   L 121.53689,26.333654   L 120.40352,26.533656   L 119.47016,27.066996   L 118.73681,27.867006   L 118.47013,28.80035   L 118.47013,38.3338   L 118.73681,39.267145   L 119.47016,40.000487   L 120.47019,40.467159   L 121.53689,40.667162   L 141.33747,40.667162   L 142.47084,40.467159   L 143.4042,40.067154   L 144.20422,39.333812   L 144.4709,38.400467   L 144.4709,28.80035   L 144.20422,27.867006   L 143.47087,27.066996   L 142.53751,26.533656   L 141.33747,26.333654   L 121.60356,26.333654  z " clip-path="url(#clipWmfPath1)" style="fill:#000000;fill-rule:nonzero;fill-opacity:1;stroke:#000000;stroke-width:0.066668615px;stroke-linecap:round;stroke-linejoin:round;stroke-miterlimit:4;stroke-dasharray:none;stroke-opacity:1;"/>
  <path id="path144" d="  M 52.001522,62.000755   L 212.8729,62.000755   L 212.8729,77.000937   L 52.001522,77.000937   L 52.001522,62.000755  z " clip-path="url(#clipWmfPath1)" style="fill:#000000;fill-rule:nonzero;fill-opacity:1;stroke:none;"/>
  <path id="path146" d="  M 52.001522,62.000755   L 212.8729,62.000755   L 212.8729,77.000937   L 52.001522,77.000937   L 52.001522,62.000755  z " clip-path="url(#clipWmfPath1)" style="fill:none;stroke:#000000;stroke-width:0.066668615px;stroke-linecap:round;stroke-linejoin:round;stroke-miterlimit:4;stroke-dasharray:none;stroke-opacity:1;"/>
  <path id="path148" d="  M 57.668355,72.267546   L 207.20607,72.267546   L 207.20607,66.800813   L 57.668355,66.800813   L 57.668355,72.267546  z " clip-path="url(#clipWmfPath1)" style="fill:#ffffff;fill-rule:nonzero;fill-opacity:1;stroke:none;"/>
  <path id="path150" d="  M 57.668355,72.267546   L 207.20607,72.267546   L 207.20607,66.800813   L 57.668355,66.800813   L 57.668355,72.267546  z " clip-path="url(#clipWmfPath1)" style="fill:none;stroke:#000000;stroke-width:0.066668615px;stroke-linecap:round;stroke-linejoin:round;stroke-miterlimit:4;stroke-dasharray:none;stroke-opacity:1;"/>
  <path id="path152" d="  M 142.3375,62.867432   L 143.33753,63.000767   L 144.13755,63.467439   L 144.73757,64.134114   L 144.93758,64.867456   L 144.93758,74.334238   L 144.73757,75.06758   L 144.13755,75.667588   L 143.33753,76.000925   L 142.3375,76.13426   L 122.60359,76.13426   L 121.60356,76.000925   L 120.80354,75.60092   L 120.20352,75.000913   L 120.00351,74.26757   L 120.00351,64.867456   L 120.20352,64.134114   L 120.80354,63.467439   L 121.60356,63.000767   L 122.60359,62.867432   L 142.3375,62.867432  z " clip-path="url(#clipWmfPath1)" style="fill:#ffffff;fill-rule:nonzero;fill-opacity:1;stroke:none;"/>
  <path id="path154" d="  M 122.60359,62.334092   L 122.60359,63.400772   L 142.27083,63.400772   L 143.13752,63.467439   L 143.80421,63.867444   L 144.27089,64.400784   L 144.40423,64.934124   L 144.40423,74.26757   L 144.27089,74.80091   L 143.87088,75.267583   L 143.20419,75.534253   L 142.27083,75.60092   L 122.60359,75.60092   L 121.7369,75.534253   L 121.13688,75.200915   L 120.6702,74.734243   L 120.53686,74.200903   L 120.53686,64.934124   L 120.6702,64.400784   L 121.13688,63.867444   L 121.80357,63.467439   L 122.60359,63.400772   L 142.27083,63.400772   L 143.27086,63.534107   L 143.4042,62.467427   L 142.3375,62.334092   L 122.53692,62.334092   L 121.40355,62.534094   L 120.47019,63.067434   L 119.73684,63.867444   L 119.47016,64.800789   L 119.47016,74.334238   L 119.73684,75.267583   L 120.47019,76.000925   L 121.47022,76.467597   L 122.53692,76.6676   L 142.3375,76.6676   L 143.47087,76.467597   L 144.40423,76.067592   L 145.20425,75.33425   L 145.47092,74.400905   L 145.47092,64.800789   L 145.20425,63.867444   L 144.4709,63.067434   L 143.53753,62.534094   L 142.3375,62.334092   L 122.60359,62.334092  z " clip-path="url(#clipWmfPath1)" style="fill:#000000;fill-rule:nonzero;fill-opacity:1;stroke:#000000;stroke-width:0.066668615px;stroke-linecap:round;stroke-linejoin:round;stroke-miterlimit:4;stroke-dasharray:none;stroke-opacity:1;"/>
  <g id="g156" clip-path="url(#clipWmfPath1)"/>
  <g id="g168" clip-path="url(#clipWmfPath1)">
    <text id="text166" y="0.000000" x="0.000000" transform="matrix(1.000000,-0.000000,0.000000,1.000000,123.336943,37.933795) rotate(180,8.92364501953125, 0.5)" style="font-size:10.687500px;font-style:normal;font-variant:normal;font-weight:400;font-stretch:Condensed;line-height:125.000000%;letter-spacing:0px;word-spacing:0px;fill:#000000;fill-opacity:1;stroke:none;font-family:Helvetica-Narrow;text-align:start;text-anchor:start;" xml:space="preserve"><tspan id="tspan164" y="0.000000" x="0.000000"><tspan id="tspan158" style="fill:#000000;font-size:10.687500px;font-style:normal;font-variant:normal;font-weight:400;font-stretch:Condensed;font-family:Helvetica-Narrow;" dy="0.000000" dx="0.000000">S</tspan><tspan id="tspan160" style="fill:#000000;font-size:10.687500px;font-style:normal;font-variant:normal;font-weight:400;font-stretch:Condensed;font-family:Helvetica-Narrow;" dy="0.000000" dx="-0.195026">L</tspan><tspan id="tspan162" style="fill:#000000;font-size:10.687500px;font-style:normal;font-variant:normal;font-weight:400;font-stretch:Condensed;font-family:Helvetica-Narrow;" dy="0.000000" dx="0.003525">1</tspan></tspan></text>
  </g>
  <g id="g170" clip-path="url(#clipWmfPath1)"/>
  <g id="g182" clip-path="url(#clipWmfPath1)">
    <text id="text180" y="0.000000" x="0.000000" transform="matrix(1.000000,-0.000000,0.000000,1.000000,124.270304,73.467561) rotate(180,8.88189697265625, 0.5)" style="font-size:10.687500px;font-style:normal;font-variant:normal;font-weight:400;font-stretch:Condensed;line-height:125.000000%;letter-spacing:0px;word-spacing:0px;fill:#000000;fill-opacity:1;stroke:none;font-family:Helvetica-Narrow;text-align:start;text-anchor:start;" xml:space="preserve"><tspan id="tspan178" y="0.000000" x="0.000000"><tspan id="tspan172" style="fill:#000000;font-size:10.687500px;font-style:normal;font-variant:normal;font-weight:400;font-stretch:Condensed;font-family:Helvetica-Narrow;" dy="0.000000" dx="0.000000">S</tspan><tspan id="tspan174" style="fill:#000000;font-size:10.687500px;font-style:normal;font-variant:normal;font-weight:400;font-stretch:Condensed;font-family:Helvetica-Narrow;" dy="0.000000" dx="-0.102346">L</tspan><tspan id="tspan176" style="fill:#000000;font-size:10.687500px;font-style:normal;font-variant:normal;font-weight:400;font-stretch:Condensed;font-family:Helvetica-Narrow;" dy="0.000000" dx="0.003525">2</tspan></tspan></text>
  </g>
  <g id="g184" clip-path="url(#clipWmfPath1)"/>
  <g id="g196" clip-path="url(#clipWmfPath1)">
    <text id="text194" y="0.000000" x="0.000000" transform="matrix(1.000000,-0.000000,0.000000,1.000000,122.870263,214.269274) rotate(180,8.988876342773438, 0.5)" style="font-size:10.687500px;font-style:normal;font-variant:normal;font-weight:400;font-stretch:Condensed;line-height:125.000000%;letter-spacing:0px;word-spacing:0px;fill:#000000;fill-opacity:1;stroke:none;font-family:Helvetica-Narrow;text-align:start;text-anchor:start;" xml:space="preserve"><tspan id="tspan192" y="0.000000" x="0.000000"><tspan id="tspan186" style="fill:#000000;font-size:10.687500px;font-style:normal;font-variant:normal;font-weight:400;font-stretch:Condensed;font-family:Helvetica-Narrow;" dy="0.000000" dx="0.000000">S</tspan><tspan id="tspan188" style="fill:#000000;font-size:10.687500px;font-style:normal;font-variant:normal;font-weight:400;font-stretch:Condensed;font-family:Helvetica-Narrow;" dy="0.000000" dx="-0.102346">L</tspan><tspan id="tspan190" style="fill:#000000;font-size:10.687500px;font-style:normal;font-variant:normal;font-weight:400;font-stretch:Condensed;font-family:Helvetica-Narrow;" dy="0.000000" dx="0.003525">3</tspan></tspan></text>
  </g>
  <g id="g198" clip-path="url(#clipWmfPath1)"/>
  <g id="g210" clip-path="url(#clipWmfPath1)">
    <text id="text208" y="0.000000" x="0.000000" transform="matrix(1.000000,-0.000000,0.000000,1.000000,124.270304,249.869708) rotate(180,9.116729736328125, 0.5)" style="font-size:10.687500px;font-style:normal;font-variant:normal;font-weight:400;font-stretch:Condensed;line-height:125.000000%;letter-spacing:0px;word-spacing:0px;fill:#000000;fill-opacity:1;stroke:none;font-family:Helvetica-Narrow;text-align:start;text-anchor:start;" xml:space="preserve"><tspan id="tspan206" y="0.000000" x="0.000000"><tspan id="tspan200" style="fill:#000000;font-size:10.687500px;font-style:normal;font-variant:normal;font-weight:400;font-stretch:Condensed;font-family:Helvetica-Narrow;" dy="0.000000" dx="0.000000">S</tspan><tspan id="tspan202" style="fill:#000000;font-size:10.687500px;font-style:normal;font-variant:normal;font-weight:400;font-stretch:Condensed;font-family:Helvetica-Narrow;" dy="0.000000" dx="-0.102346">L</tspan><tspan id="tspan204" style="fill:#000000;font-size:10.687500px;font-style:normal;font-variant:normal;font-weight:400;font-stretch:Condensed;font-family:Helvetica-Narrow;" dy="0.000000" dx="0.003525">4</tspan></tspan></text>
  </g>
  <g id="g212" clip-path="url(#clipWmfPath1)"/>
  <g id="g224" clip-path="url(#clipWmfPath1)">
    <text id="text222" y="0.000000" x="0.000000" transform="matrix(1.000000,-0.000000,0.000000,1.000000,122.336914,285.403473) rotate(180,8.949737548828125, 0.5)" style="font-size:10.687500px;font-style:normal;font-variant:normal;font-weight:400;font-stretch:Condensed;line-height:125.000000%;letter-spacing:0px;word-spacing:0px;fill:#000000;fill-opacity:1;stroke:none;font-family:Helvetica-Narrow;text-align:start;text-anchor:start;" xml:space="preserve"><tspan id="tspan220" y="0.000000" x="0.000000"><tspan id="tspan214" style="fill:#000000;font-size:10.687500px;font-style:normal;font-variant:normal;font-weight:400;font-stretch:Condensed;font-family:Helvetica-Narrow;" dy="0.000000" dx="0.000000">S</tspan><tspan id="tspan216" style="fill:#000000;font-size:10.687500px;font-style:normal;font-variant:normal;font-weight:400;font-stretch:Condensed;font-family:Helvetica-Narrow;" dy="0.000000" dx="-0.102346">L</tspan><tspan id="tspan218" style="fill:#000000;font-size:10.687500px;font-style:normal;font-variant:normal;font-weight:400;font-stretch:Condensed;font-family:Helvetica-Narrow;" dy="0.000000" dx="0.003525">5</tspan></tspan></text>
  </g>
  <g id="g226" clip-path="url(#clipWmfPath1)"/>
  <g id="g242" clip-path="url(#clipWmfPath1)">
    <text id="text240" y="0.000000" x="0.000000" transform="matrix(1.000000,-0.000000,0.000000,1.000000,120.870205,55.467342) rotate(180,16.216506958007812, 0.5)" style="font-size:9.312500px;font-style:normal;font-variant:normal;font-weight:400;font-stretch:Condensed;line-height:125.000000%;letter-spacing:0px;word-spacing:0px;fill:#000000;fill-opacity:1;stroke:none;font-family:Helvetica-Narrow;text-align:start;text-anchor:start;" xml:space="preserve"><tspan id="tspan238" y="0.000000" x="0.000000"><tspan id="tspan228" style="fill:#000000;font-size:9.312500px;font-style:normal;font-variant:normal;font-weight:400;font-stretch:Condensed;font-family:Helvetica-Narrow;" dy="0.000000" dx="0.000000">3</tspan><tspan id="tspan230" style="fill:#000000;font-size:9.312500px;font-style:normal;font-variant:normal;font-weight:400;font-stretch:Condensed;font-family:Helvetica-Narrow;" dy="0.000000" dx="0.183584">4</tspan><tspan id="tspan232" style="fill:#000000;font-size:9.312500px;font-style:normal;font-variant:normal;font-weight:400;font-stretch:Condensed;font-family:Helvetica-Narrow;" dy="0.000000" dx="0.183584">1</tspan><tspan id="tspan234" style="fill:#000000;font-size:9.312500px;font-style:normal;font-variant:normal;font-weight:400;font-stretch:Condensed;font-family:Helvetica-Narrow;" dy="0.000000" dx="0.183584">2</tspan><tspan id="tspan236" style="fill:#000000;font-size:9.312500px;font-style:normal;font-variant:normal;font-weight:400;font-stretch:Condensed;font-family:Helvetica-Narrow;" dy="0.000000" dx="0.183584">9</tspan></tspan></text>
  </g>
</svg>
