<svg xmlns:dc="http://purl.org/dc/elements/1.1/" xmlns:cc="http://creativecommons.org/ns#" xmlns:rdf="http://www.w3.org/1999/02/22-rdf-syntax-ns#" xmlns:svg="http://www.w3.org/2000/svg" xmlns="http://www.w3.org/2000/svg" id="svg246" height="89.990001mm" width="106.13mm" version="1.0">
  <metadata id="metadata250">
    <rdf:RDF>
      <cc:Work rdf:about="">
        <dc:format>image/svg+xml</dc:format>
        <dc:type rdf:resource="http://purl.org/dc/dcmitype/StillImage"/>
      </cc:Work>
    </rdf:RDF>
  </metadata>
  <defs id="defs6">
    <clipPath id="clipWmfPath1" clipPathUnits="userSpaceOnUse">
      <path id="path2" d="M 0,0 L 401.0168,0 L 401.0168,340.01522 L 0,340.01522 z"/>
    </clipPath>
    <pattern y="0" x="0" height="6" width="6" patternUnits="userSpaceOnUse" id="WMFhbasepattern"/>
  </defs>
  <path id="path8" d="  M 36.001508,328.01468   L 36.001508,19.000851   L 382.016,19.000851   L 382.016,328.01468   L 36.001508,328.01468  z " clip-path="url(#clipWmfPath1)" style="fill:#e5e5e5;fill-rule:nonzero;fill-opacity:1;stroke:none;"/>
  <path id="path10" d="  M 382.016,328.21469   L 382.016,327.81467   L 36.201516,327.81467   L 36.201516,19.200859   L 381.81599,19.200859   L 381.81599,327.81467   L 36.201516,327.81467   L 36.201516,19.000851   L 35.801499,19.000851   L 35.801499,328.21469   L 382.21601,328.21469   L 382.21601,18.800842   L 35.801499,18.800842   L 35.801499,328.21469   L 382.016,328.21469  z " clip-path="url(#clipWmfPath1)" style="fill:#000000;fill-rule:nonzero;fill-opacity:1;stroke:#000000;stroke-width:0.066669457px;stroke-linecap:round;stroke-linejoin:round;stroke-miterlimit:4;stroke-dasharray:none;stroke-opacity:1;"/>
  <path id="path12" d="  M 98.737469,103.13795   L 98.737469,105.07137   L 100.67088,105.27138   L 102.20428,105.87141   L 103.40433,106.93812   L 104.27103,108.40485   L 104.93773,110.40494   L 105.33775,112.93839   L 105.60442,119.67202   L 105.60442,177.60795   L 105.33775,184.34159   L 104.93773,186.87503   L 104.27103,188.87512   L 103.40433,190.34185   L 102.20428,191.40857   L 100.67088,192.00859   L 98.737469,192.2086   L 98.737469,194.20869   L 115.67151,194.20869   L 115.67151,192.2086   L 113.67143,192.00859   L 112.13803,191.40857   L 110.87131,190.34185   L 110.00461,188.87512   L 109.40458,186.87503   L 109.00457,184.34159   L 108.73789,177.60795   L 108.73789,119.67202   L 126.87198,194.20869   L 127.73868,194.20869   L 145.80611,116.2052   L 145.80611,177.60795   L 145.6061,183.27487   L 145.27275,185.74165   L 144.7394,187.94175   L 143.93936,189.74183   L 142.93932,191.07522   L 141.53926,191.94193   L 139.87252,192.2086   L 139.87252,194.20869   L 159.00666,194.20869   L 159.00666,192.2086   L 157.13991,191.94193   L 155.67319,191.27523   L 154.60648,190.07518   L 153.73977,188.4751   L 153.20642,186.40834   L 152.8064,183.8749   L 152.67306,180.94143   L 152.60639,177.60795   L 152.60639,116.2052   L 152.67306,113.20507   L 153.00641,110.80496   L 153.47309,108.87154   L 154.13979,107.33814   L 155.00649,106.27142   L 156.13987,105.60473   L 157.47326,105.20471   L 159.00666,105.07137   L 159.00666,103.13795   L 144.87273,103.13795   L 129.60543,171.47434   L 129.33875,172.14104   L 128.93873,171.40767   L 112.73805,103.13795   L 98.737469,103.13795  z " clip-path="url(#clipWmfPath1)" style="fill:#cccccc;fill-rule:nonzero;fill-opacity:1;stroke:none;"/>
  <path id="path14" d="  M 269.54462,96.070967   L 165.34026,96.070967   L 217.54244,25.667816   L 269.54462,96.070967  z " clip-path="url(#clipWmfPath1)" style="fill:#cccccc;fill-rule:nonzero;fill-opacity:1;stroke:none;"/>
  <path id="path16" d="  M 230.94301,29.401316   L 241.27677,37.401674   L 220.34256,67.403017   L 209.87546,59.335989   L 230.94301,29.401316  z " clip-path="url(#clipWmfPath1)" style="fill:#cccccc;fill-rule:nonzero;fill-opacity:1;stroke:none;"/>
  <path id="path18" d="  M 97.27074,225.27675   L 97.27074,226.94349   L 98.670799,227.1435   L 99.870849,227.74353   L 100.80422,228.74357   L 101.53759,230.07697   L 102.07094,231.74371   L 102.47096,233.7438   L 102.73764,238.41067   L 102.73764,294.47985   L 102.47096,299.14672   L 102.07094,301.08014   L 101.53759,302.68022   L 100.80422,304.01361   L 99.870849,304.94698   L 98.670799,305.54701   L 97.27074,305.74702   L 97.27074,307.5471   L 115.80485,307.5471   L 115.80485,305.74702   L 114.33812,305.54701   L 113.13807,304.94698   L 112.13803,304.01361   L 111.40467,302.68022   L 110.80464,301.08014   L 110.40462,299.14672   L 110.13795,294.47985   L 110.13795,268.34535   L 130.80548,268.34535   L 130.80548,294.47985   L 130.47213,299.14672   L 130.07211,301.08014   L 129.47209,302.68022   L 128.67206,304.01361   L 127.73868,304.94698   L 126.47196,305.54701   L 125.0719,305.74702   L 125.0719,307.5471   L 143.73935,307.5471   L 143.73935,305.74702   L 142.27263,305.54701   L 141.13924,304.94698   L 140.1392,304.01361   L 139.40584,302.68022   L 138.87248,301.08014   L 138.53914,299.14672   L 138.27246,294.47985   L 138.27246,238.41067   L 138.53914,233.7438   L 138.87248,231.74371   L 139.40584,230.07697   L 140.1392,228.74357   L 141.13924,227.74353   L 142.27263,227.1435   L 143.73935,226.94349   L 143.73935,225.27675   L 125.0719,225.27675   L 125.0719,226.94349   L 126.47196,227.1435   L 127.73868,227.74353   L 128.67206,228.74357   L 129.47209,230.07697   L 130.07211,231.74371   L 130.47213,233.7438   L 130.80548,238.41067   L 130.80548,262.87843   L 110.13795,262.87843   L 110.13795,238.41067   L 110.40462,233.7438   L 110.80464,231.74371   L 111.40467,230.07697   L 112.13803,228.74357   L 113.13807,227.74353   L 114.33812,227.1435   L 115.80485,226.94349   L 115.80485,225.27675   L 97.27074,225.27675  z " clip-path="url(#clipWmfPath1)" style="fill:#cccccc;fill-rule:nonzero;fill-opacity:1;stroke:none;"/>
  <path id="path20" d="  M 194.00813,225.27675   L 194.00813,226.94349   L 195.54152,227.07683   L 196.80824,227.54352   L 197.87495,228.27689   L 198.74166,229.41027   L 199.34168,230.94367   L 199.80837,232.87709   L 200.07505,235.21053   L 200.14172,238.01065   L 200.14172,276.47904   L 200.40839,283.94604   L 201.20843,290.54634   L 202.47515,296.21326   L 203.34185,298.68004   L 204.34189,300.88013   L 205.47527,302.88022   L 206.74199,304.61364   L 208.20872,306.08037   L 209.74212,307.28042   L 211.40885,308.2138   L 213.2756,308.94716   L 215.20901,309.34718   L 217.34244,309.48052   L 219.54253,309.34718   L 221.60928,308.88049   L 223.47603,308.2138   L 225.20943,307.21375   L 226.8095,305.94703   L 228.27623,304.41363   L 230.743,300.61346   L 232.67641,295.87991   L 234.0098,290.21299   L 234.80983,283.74603   L 235.07651,276.47904   L 235.07651,238.01065   L 235.40986,233.21044   L 235.80988,231.27702   L 236.47657,229.74362   L 237.2766,228.54356   L 238.27665,227.61019   L 239.54337,227.1435   L 241.01009,226.94349   L 241.01009,225.27675   L 225.9428,225.27675   L 225.9428,226.94349   L 227.40952,227.1435   L 228.60957,227.61019   L 229.60962,228.54356   L 230.40965,229.74362   L 231.00967,231.27702   L 231.40969,233.21044   L 231.74304,238.01065   L 231.74304,275.07898   L 231.6097,280.67923   L 231.20968,285.94613   L 230.40965,290.74635   L 229.27627,295.01321   L 227.6762,298.48003   L 226.67616,299.94676   L 225.54278,301.21348   L 224.27606,302.14686   L 222.876,302.88022   L 221.3426,303.34691   L 219.6092,303.48025   L 217.87579,303.34691   L 216.27572,302.94689   L 214.809,302.34687   L 213.54228,301.48016   L 211.27552,299.14672   L 209.60878,295.94658   L 208.34206,292.01307   L 207.47536,287.41287   L 207.00867,282.21263   L 206.87533,276.47904   L 206.87533,238.01065   L 207.20868,232.87709   L 207.60869,230.94367   L 208.27539,229.41027   L 209.07542,228.27689   L 210.14213,227.54352   L 211.47552,227.07683   L 213.00892,226.94349   L 213.00892,225.27675   L 194.00813,225.27675  z " clip-path="url(#clipWmfPath1)" style="fill:#cccccc;fill-rule:nonzero;fill-opacity:1;stroke:none;"/>
  <path id="path22" d="  M 271.01135,223.47667   L 269.47795,223.47667   L 269.27794,225.54343   L 268.67792,226.94349   L 267.74455,227.74353   L 267.21119,227.87687   L 266.61117,227.8102   L 265.34445,226.87682   L 263.21102,225.6101   L 260.41091,224.47671   L 258.74417,224.14337   L 256.94409,224.01003   L 255.81071,224.0767   L 254.61066,224.34338   L 252.47724,225.41009   L 250.47716,227.1435   L 248.74375,229.41027   L 247.27702,232.27706   L 246.14364,235.67722   L 245.47695,239.54406   L 245.21027,243.87758   L 245.47695,248.74447   L 246.14364,252.87799   L 247.27702,256.47815   L 248.74375,259.67829   L 250.41049,262.41175   L 252.3439,265.01186   L 256.61075,269.81208   L 260.07756,273.41224   L 261.81096,275.479   L 263.4777,277.6791   L 264.87776,280.21254   L 266.07781,283.07934   L 266.81117,286.41282   L 267.07785,290.21299   L 266.94451,293.41313   L 266.47783,296.27993   L 265.74446,298.81338   L 264.81109,300.9468   L 263.61104,302.68022   L 262.14431,303.88027   L 260.54425,304.68031   L 258.74417,304.94698   L 257.34411,304.81364   L 256.07739,304.4803   L 254.81067,303.88027   L 253.67729,303.08023   L 252.61058,302.08019   L 251.61054,300.9468   L 249.87713,298.14668   L 248.34373,294.74653   L 247.01035,291.01303   L 245.87696,286.87951   L 244.94359,282.61265   L 243.47686,282.61265   L 245.41028,309.14717   L 246.81034,309.14717   L 246.94368,307.48043   L 247.27702,306.28038   L 247.81038,305.54701   L 248.67708,305.28033   L 249.74379,305.48034   L 250.67717,305.94703   L 252.74392,307.41376   L 253.94397,308.14713   L 255.34403,308.81382   L 257.07743,309.28051   L 259.07752,309.48052   L 260.47758,309.34718   L 261.81096,309.01383   L 264.47774,307.68044   L 266.94451,305.54701   L 269.21127,302.74689   L 271.07802,299.28006   L 272.54475,295.27988   L 273.0781,293.07979   L 273.47812,290.74635   L 273.81147,285.81279   L 273.7448,283.34602   L 273.47812,281.01258   L 272.54475,276.74572   L 271.14469,272.94555   L 269.34461,269.47873   L 267.27786,266.41193   L 265.0111,263.6118   L 260.61091,258.81159   L 257.41078,255.14475   L 255.81071,253.078   L 254.34399,250.81123   L 253.0106,248.27778   L 252.01055,245.47765   L 251.34386,242.34418   L 251.07718,238.87736   L 251.21052,236.61059   L 251.61054,234.54383   L 252.21056,232.61041   L 253.07727,231.01034   L 254.01064,229.67695   L 255.07735,228.74357   L 256.2774,228.07688   L 257.47745,227.87687   L 260.14423,228.34355   L 262.611,229.61028   L 264.74442,231.61037   L 266.67784,234.27715   L 268.21123,237.54397   L 269.34461,241.2108   L 270.14465,245.27765   L 270.47799,249.61117   L 272.14473,249.61117   L 271.01135,223.47667  z " clip-path="url(#clipWmfPath1)" style="fill:#cccccc;fill-rule:nonzero;fill-opacity:1;stroke:none;"/>
  <path id="path24" d="  M 276.27824,225.27675   L 276.27824,226.94349   L 277.74497,227.07683   L 278.94502,227.54352   L 279.94506,228.34355   L 280.74509,229.41027   L 281.34512,230.877   L 281.74513,232.67708   L 282.07848,237.4773   L 282.07848,295.54656   L 281.74513,300.21344   L 281.34512,302.01352   L 280.74509,303.41358   L 279.94506,304.4803   L 278.94502,305.21366   L 277.74497,305.61368   L 276.27824,305.74702   L 276.27824,307.5471   L 313.27979,307.5471   L 316.21324,287.01285   L 314.81318,287.01285   L 312.8131,292.94645   L 311.67972,295.54656   L 310.413,297.88   L 309.01294,299.88009   L 307.41287,301.34682   L 305.67947,302.41354   L 303.74605,302.88022   L 294.74568,303.48025   L 293.27895,303.48025   L 291.27887,303.21357   L 290.61217,302.88022   L 290.01215,302.2802   L 289.61213,301.48016   L 289.34545,300.41345   L 289.21211,298.94672   L 289.14544,297.2133   L 289.14544,266.94528   L 298.67918,266.94528   L 300.61259,267.01195   L 302.346,267.21196   L 303.81272,267.74532   L 305.01277,268.74536   L 306.01282,270.2121   L 306.74618,272.41219   L 307.27954,275.34566   L 307.54621,279.2125   L 308.81293,279.2125   L 308.81293,249.61117   L 307.54621,249.61117   L 307.27954,253.34467   L 306.74618,256.21147   L 306.01282,258.3449   L 305.01277,259.81163   L 303.81272,260.81167   L 302.346,261.34503   L 300.61259,261.54504   L 298.67918,261.61171   L 289.14544,261.61171   L 289.14544,231.61037   L 289.54546,229.94363   L 290.01215,229.41027   L 290.67884,229.21026   L 299.74589,229.21026   L 302.01265,229.27693   L 304.0794,229.61028   L 306.01282,230.34364   L 307.67955,231.47703   L 309.01294,233.21044   L 310.07965,235.61055   L 310.81302,238.81069   L 311.14636,242.94421   L 312.54642,242.94421   L 312.54642,225.27675   L 276.27824,225.27675  z " clip-path="url(#clipWmfPath1)" style="fill:#cccccc;fill-rule:nonzero;fill-opacity:1;stroke:none;"/>
  <path id="path26" d="  M 159.74002,112.33836   L 159.74002,114.13844   L 161.27342,114.33845   L 162.60681,114.93848   L 163.67352,115.87185   L 164.47356,117.13858   L 165.14025,118.80532   L 165.54027,120.67207   L 165.87361,125.33894   L 165.87361,181.40812   L 165.54027,186.00833   L 165.14025,187.94175   L 164.47356,189.54182   L 163.67352,190.80854   L 162.60681,191.74192   L 161.27342,192.27527   L 159.74002,192.47528   L 159.74002,194.27536   L 179.67419,194.27536   L 179.67419,192.47528   L 178.14079,192.27527   L 176.8074,191.74192   L 175.74069,190.80854   L 174.94066,189.54182   L 174.27397,187.94175   L 173.87395,186.00833   L 173.5406,181.40812   L 173.5406,125.33894   L 173.87395,120.67207   L 174.27397,118.80532   L 174.94066,117.13858   L 175.74069,115.87185   L 176.8074,114.93848   L 178.14079,114.33845   L 179.67419,114.13844   L 179.67419,112.33836   L 159.74002,112.33836  z " clip-path="url(#clipWmfPath1)" style="fill:#cccccc;fill-rule:nonzero;fill-opacity:1;stroke:none;"/>
  <path id="path28" d="  M 226.8095,179.60804   L 225.2761,177.60795   L 223.60937,180.27474   L 221.74262,182.67484   L 219.74254,184.87494   L 217.67578,186.74169   L 215.47569,188.27509   L 213.20893,189.40848   L 210.8755,190.14184   L 208.54207,190.40852   L 206.20864,190.20851   L 204.14188,189.60849   L 202.20847,188.60844   L 200.40839,187.27505   L 198.80833,185.60831   L 197.40827,183.67489   L 196.14155,181.40812   L 195.00817,178.94134   L 194.07479,176.27456   L 193.20809,173.40776   L 192.00804,167.20748   L 191.27468,160.60719   L 191.07467,153.80688   L 191.27468,146.87324   L 191.80803,140.00627   L 192.87474,133.53931   L 193.60811,130.47251   L 194.47481,127.67238   L 195.47485,125.0056   L 196.6749,122.67216   L 198.07496,120.53873   L 199.60836,118.73865   L 201.34177,117.33859   L 203.34185,116.2052   L 205.47527,115.53851   L 207.87537,115.3385   L 209.40877,115.47184   L 210.8755,115.80518   L 212.27556,116.40521   L 213.67562,117.13858   L 216.27572,119.27201   L 218.60916,122.1388   L 220.60924,125.53895   L 222.20931,129.53913   L 223.34269,133.93933   L 224.00938,138.67287   L 225.60945,138.67287   L 225.07609,111.13831   L 223.67603,111.13831   L 222.67599,113.1384   L 221.54261,114.47179   L 220.87592,114.87181   L 220.20922,115.00515   L 219.40919,114.93848   L 218.54249,114.53846   L 215.60903,112.93839   L 213.00892,111.93834   L 210.40881,111.33832   L 207.34202,111.13831   L 204.74191,111.33832   L 202.27514,111.87167   L 199.87504,112.80505   L 197.54161,114.13844   L 195.34151,115.73851   L 193.27476,117.67193   L 191.34135,119.9387   L 189.60794,122.47215   L 187.9412,125.27227   L 186.54115,128.40575   L 185.27443,131.73923   L 184.20771,135.33939   L 183.40768,139.20623   L 182.80766,143.20641   L 182.40764,147.47327   L 182.2743,151.94013   L 182.40764,156.67368   L 182.67432,161.20722   L 183.20767,165.60741   L 183.94104,169.74093   L 184.87441,173.60777   L 186.00779,177.2746   L 187.34118,180.67475   L 188.87458,183.80823   L 190.60798,186.60835   L 192.47473,189.07513   L 194.54148,191.27523   L 196.74157,193.07531   L 199.14167,194.47537   L 201.74178,195.54209   L 204.47523,196.20878   L 207.34202,196.40879   L 210.27547,196.14211   L 213.07559,195.20874   L 215.60903,193.80868   L 218.0758,191.87526   L 220.40923,189.47515   L 222.60932,186.60835   L 224.74275,183.27487   L 226.8095,179.60804  z " clip-path="url(#clipWmfPath1)" style="fill:#cccccc;fill-rule:nonzero;fill-opacity:1;stroke:none;"/>
  <path id="path30" d="  M 292.0789,101.40454   L 289.54546,101.60455   L 287.07869,102.27124   L 284.74526,103.33796   L 282.54517,104.73802   L 280.47841,106.5381   L 278.61167,108.7382   L 276.81159,111.27165   L 275.21153,114.07177   L 273.7448,117.20525   L 272.41141,120.67207   L 271.3447,124.3389   L 270.41133,128.33908   L 269.67796,132.53927   L 269.14461,136.93946   L 268.81126,141.60634   L 268.67792,146.40655   L 268.74459,151.60679   L 269.07794,156.60701   L 269.47795,161.40723   L 270.14465,166.00743   L 270.94468,170.40763   L 272.01139,174.47448   L 273.21144,178.34132   L 274.54483,181.87481   L 276.07823,185.00828   L 277.8783,187.87508   L 279.74505,190.34185   L 281.87847,192.40861   L 284.14523,194.07535   L 286.612,195.27541   L 289.27878,196.00877   L 292.0789,196.27545   L 294.81235,196.00877   L 297.41246,195.27541   L 299.87923,194.07535   L 302.07932,192.40861   L 304.21274,190.34185   L 306.07949,187.87508   L 307.81289,185.00828   L 309.41296,181.87481   L 310.74635,178.34132   L 311.9464,174.47448   L 313.81314,166.00743   L 314.94652,156.60701   L 315.27987,151.60679   L 315.34654,146.40655   L 315.2132,141.60634   L 314.94652,136.93946   L 314.41317,132.53927   L 313.6798,128.33908   L 312.74643,124.3389   L 311.61305,120.67207   L 310.34633,117.20525   L 308.94627,114.07177   L 307.27954,111.27165   L 305.54613,108.7382   L 303.61272,106.5381   L 301.54596,104.73802   L 299.34587,103.33796   L 297.07911,102.27124   L 294.61234,101.60455   L 292.0789,101.40454  z    M 292.0789,105.93808   L 294.21232,106.20475   L 296.14574,106.87145   L 297.87914,107.93816   L 299.47921,109.47157   L 300.87927,111.33832   L 302.21266,113.47175   L 303.34604,116.00519   L 304.34608,118.73865   L 305.87948,124.87226   L 306.94619,131.67256   L 307.54621,138.93955   L 307.74622,146.40655   L 307.61288,153.94022   L 307.01286,161.6739   L 306.07949,169.20757   L 304.54609,176.14122   L 303.61272,179.27469   L 302.47933,182.14149   L 301.21262,184.67493   L 299.74589,186.87503   L 298.14582,188.60844   L 296.34574,189.94184   L 294.27899,190.80854   L 292.0789,191.07522   L 289.81214,190.80854   L 287.74538,189.94184   L 285.94531,188.60844   L 284.27857,186.87503   L 282.81184,184.67493   L 281.54512,182.14149   L 280.41174,179.27469   L 279.4117,176.14122   L 277.94497,169.20757   L 276.94493,161.6739   L 276.41158,153.94022   L 276.27824,146.40655   L 276.47825,138.93955   L 277.07827,131.67256   L 278.14498,124.87226   L 278.87835,121.67211   L 279.74505,118.73865   L 280.74509,116.00519   L 281.87847,113.47175   L 283.21186,111.33832   L 284.61192,109.47157   L 286.21199,107.93816   L 288.01206,106.87145   L 289.94548,106.20475   L 292.0789,105.93808  z   " clip-path="url(#clipWmfPath1)" style="fill:#cccccc;fill-rule:evenodd;fill-opacity:1;stroke:none;"/>
  <path id="path32" d="  M 235.67654,126.539   L 235.67654,180.47475   L 235.47653,185.94166   L 235.20985,188.00842   L 235.00984,188.67511   L 234.6765,189.67516   L 233.87646,190.94188   L 232.74308,191.80859   L 231.27635,192.27527   L 229.34294,192.47528   L 229.34294,194.27536   L 249.21044,194.27536   L 249.21044,192.47528   L 247.27702,192.27527   L 245.81029,191.80859   L 244.74358,190.94188   L 243.94355,189.67516   L 243.47686,188.00842   L 243.14352,185.94166   L 243.01018,180.47475   L 243.01018,156.47367   L 247.27702,156.47367   L 264.54441,194.27536   L 275.87822,194.27536   L 275.87822,192.47528   L 274.74484,192.2086   L 273.61146,191.47524   L 272.47808,190.40852   L 271.27803,188.94179   L 269.01127,185.27496   L 266.94451,181.0081   L 254.67733,155.60697   L 257.07743,154.80693   L 259.47753,153.3402   L 261.67763,151.27344   L 263.67771,148.73999   L 265.34445,145.67319   L 266.67784,142.20637   L 267.54454,138.33953   L 267.81122,134.13934   L 267.67788,130.93919   L 267.34453,128.0724   L 266.14448,123.13885   L 265.21111,121.13876   L 264.21107,119.33868   L 263.01102,117.80527   L 261.7443,116.53855   L 260.34424,115.40517   L 258.87751,114.53846   L 255.74404,113.20507   L 252.47724,112.53837   L 249.21044,112.33836   L 229.34294,112.33836   L 229.34294,114.13844   L 231.27635,114.33845   L 232.74308,114.80514   L 233.87646,115.73851   L 234.6765,117.00524   L 235.20985,118.73865   L 235.47653,120.87208   L 235.67654,126.539  z    M 243.01018,151.94013   L 243.01018,120.27205   L 243.27686,118.00528   L 243.6102,117.33859   L 244.07689,116.93857   L 245.27694,116.60522   L 246.81034,116.60522   L 247.67704,116.60522   L 250.34382,116.80523   L 252.67725,117.53859   L 254.744,118.73865   L 256.54408,120.47206   L 257.94414,122.87217   L 258.94418,125.93897   L 259.61087,129.67247   L 259.81088,134.13934   L 259.67754,137.13947   L 259.41086,139.80626   L 258.87751,142.07303   L 258.27748,144.07312   L 257.41078,145.80653   L 256.47741,147.27326   L 254.21065,149.40669   L 251.61054,150.80675   L 248.81042,151.54012   L 245.87696,151.87346   L 243.01018,151.94013  z   " clip-path="url(#clipWmfPath1)" style="fill:#cccccc;fill-rule:evenodd;fill-opacity:1;stroke:none;"/>
  <path id="path34" d="  M 169.00708,224.01003   L 166.54031,224.21004   L 164.14021,224.81006   L 161.87345,225.74344   L 159.74002,227.01016   L 157.73994,228.6769   L 155.87319,230.61032   L 154.13979,232.87709   L 152.53972,235.41054   L 151.13966,238.27733   L 149.87294,241.34414   L 148.73956,244.67762   L 147.87286,248.27778   L 147.1395,252.07795   L 146.60614,256.07813   L 146.33946,260.27832   L 146.20612,264.67851   L 146.27279,269.34539   L 146.53947,273.81226   L 147.67285,282.2793   L 149.47293,289.87964   L 150.60631,293.34646   L 152.00637,296.47994   L 153.47309,299.34673   L 155.2065,301.94685   L 157.07325,304.14695   L 159.14,306.0137   L 161.34009,307.48043   L 163.74019,308.61381   L 166.27363,309.28051   L 169.00708,309.48052   L 171.67386,309.28051   L 174.14063,308.61381   L 176.47406,307.48043   L 178.60748,306.0137   L 180.60756,304.14695   L 182.47431,301.94685   L 184.14105,299.34673   L 185.67444,296.47994   L 187.00783,293.34646   L 188.20788,289.87964   L 189.20792,286.21281   L 190.00796,282.2793   L 190.60798,278.14578   L 191.07467,273.81226   L 191.40802,269.34539   L 191.47469,264.67851   L 191.34135,260.27832   L 191.07467,256.07813   L 190.54131,252.07795   L 189.80795,248.27778   L 188.94125,244.67762   L 187.87454,241.34414   L 186.60782,238.27733   L 185.20776,235.41054   L 183.60769,232.87709   L 181.94095,230.61032   L 180.07421,228.6769   L 178.07412,227.01016   L 176.00737,225.74344   L 173.74061,224.81006   L 171.40718,224.21004   L 169.00708,224.01003  z    M 169.00708,228.07688   L 171.00716,228.27689   L 172.87391,228.87691   L 174.54064,229.87696   L 176.00737,231.27702   L 177.40743,232.87709   L 178.60748,234.87718   L 180.67423,239.54406   L 182.14096,245.07764   L 183.141,251.27791   L 183.74103,257.81154   L 183.94104,264.54518   L 183.8077,271.34548   L 183.27434,278.27912   L 182.40764,285.01276   L 181.00758,291.27971   L 180.07421,294.07983   L 179.0075,296.67995   L 177.80745,299.01338   L 176.40739,300.9468   L 174.87399,302.54688   L 173.07392,303.74693   L 171.1405,304.4803   L 169.00708,304.74697   L 166.80699,304.4803   L 164.8069,303.74693   L 163.00683,302.54688   L 161.40676,300.9468   L 159.94003,299.01338   L 158.67331,296.67995   L 157.6066,294.07983   L 156.67323,291.27971   L 155.27317,285.01276   L 154.3398,278.27912   L 153.80644,271.34548   L 153.6731,264.54518   L 153.87311,257.81154   L 154.40647,251.27791   L 155.40651,245.07764   L 156.13987,242.21084   L 156.93991,239.54406   L 157.87328,237.07728   L 159.00666,234.87718   L 160.27338,232.87709   L 161.67344,231.27702   L 163.20684,229.87696   L 165.00691,228.87691   L 166.87366,228.27689   L 169.00708,228.07688  z   " clip-path="url(#clipWmfPath1)" style="fill:#cccccc;fill-rule:evenodd;fill-opacity:1;stroke:none;"/>
  <path id="path36" d="  M 94.537293,212.54285   L 94.537293,210.27608   L 319.28004,210.27608   L 319.28004,212.54285   L 94.537293,212.54285  z " clip-path="url(#clipWmfPath1)" style="fill:#cccccc;fill-rule:evenodd;fill-opacity:1;stroke:none;"/>
  <path id="path38" d="  M 318.21333,106.47143   L 318.94669,106.5381   L 319.81339,106.80478   L 320.41342,107.40481   L 320.88011,108.0715   L 321.34679,109.47157   L 321.21345,110.40494   L 320.94678,111.13831   L 320.48009,111.87167   L 319.81339,112.33836   L 319.01336,112.67171   L 318.21333,112.73838   L 316.81327,112.33836   L 315.61322,111.13831   L 315.34654,110.40494   L 315.27987,109.47157   L 315.34654,108.7382   L 315.67989,108.0715   L 316.81327,106.80478   L 317.54663,106.5381   L 318.21333,106.47143  z    M 318.21333,106.67144   L 317.6133,106.80478   L 316.87994,107.2048   L 316.41325,107.60482   L 315.94657,108.20484   L 315.67989,108.87154   L 315.61322,109.47157   L 315.67989,110.33827   L 315.94657,111.13831   L 316.34658,111.605   L 316.87994,112.07168   L 318.21333,112.4717   L 318.94669,112.40503   L 319.61339,112.07168   L 320.74677,111.13831   L 321.01344,109.47157   L 320.74677,108.20484   L 320.14674,107.53815   L 319.61339,107.2048   L 318.94669,106.80478   L 318.21333,106.67144  z    M 316.7466,107.60482   L 318.21333,107.60482   L 319.28004,107.8715   L 319.61339,108.67153   L 319.41338,109.33823   L 318.61334,109.60491   L 319.48005,110.87163   L 319.81339,111.27165   L 320.0134,111.27165   L 320.0134,111.53833   L 319.28004,111.53833   L 317.94665,109.60491   L 317.87998,109.60491   L 317.87998,111.13831   L 317.94665,111.27165   L 318.41334,111.27165   L 318.41334,111.53833   L 316.54659,111.53833   L 316.54659,111.27165   L 316.81327,111.27165   L 316.87994,111.13831   L 317.01328,110.80496   L 317.01328,108.33818   L 316.87994,108.0715   L 316.87994,107.67149   L 316.7466,107.67149   L 316.7466,107.60482  z    M 317.87998,109.4049   L 318.41334,109.4049   L 318.61334,109.07155   L 318.88002,108.67153   L 318.61334,108.0715   L 318.48001,107.73816   L 318.07999,107.67149   L 317.87998,107.67149   L 317.87998,109.4049  z   " clip-path="url(#clipWmfPath1)" style="fill:#bfbfbf;fill-rule:evenodd;fill-opacity:1;stroke:none;"/>
  <path id="path40" d="  M 362.61519,68.73641   L 201.74178,68.73641   L 201.74178,83.737082   L 362.61519,83.737082   L 362.61519,68.73641  z " clip-path="url(#clipWmfPath1)" style="fill:#000000;fill-rule:nonzero;fill-opacity:1;stroke:none;"/>
  <path id="path42" d="  M 362.61519,68.73641   L 201.74178,68.73641   L 201.74178,83.737082   L 362.61519,83.737082   L 362.61519,68.73641  z " clip-path="url(#clipWmfPath1)" style="fill:none;stroke:#000000;stroke-width:0.066669457px;stroke-linecap:round;stroke-linejoin:round;stroke-miterlimit:4;stroke-dasharray:none;stroke-opacity:1;"/>
  <path id="path44" d="  M 356.88161,78.936867   L 207.34202,78.936867   L 207.34202,73.469955   L 356.88161,73.469955   L 356.88161,78.936867  z " clip-path="url(#clipWmfPath1)" style="fill:#ffffff;fill-rule:nonzero;fill-opacity:1;stroke:none;"/>
  <path id="path46" d="  M 356.88161,78.936867   L 207.34202,78.936867   L 207.34202,73.469955   L 356.88161,73.469955   L 356.88161,78.936867  z " clip-path="url(#clipWmfPath1)" style="fill:none;stroke:#000000;stroke-width:0.066669457px;stroke-linecap:round;stroke-linejoin:round;stroke-miterlimit:4;stroke-dasharray:none;stroke-opacity:1;"/>
  <path id="path48" d="  M 362.61519,104.13799   L 201.74178,104.13799   L 201.74178,119.13867   L 362.61519,119.13867   L 362.61519,104.13799  z " clip-path="url(#clipWmfPath1)" style="fill:#000000;fill-rule:nonzero;fill-opacity:1;stroke:none;"/>
  <path id="path50" d="  M 362.61519,104.13799   L 201.74178,104.13799   L 201.74178,119.13867   L 362.61519,119.13867   L 362.61519,104.13799  z " clip-path="url(#clipWmfPath1)" style="fill:none;stroke:#000000;stroke-width:0.066669457px;stroke-linecap:round;stroke-linejoin:round;stroke-miterlimit:4;stroke-dasharray:none;stroke-opacity:1;"/>
  <path id="path52" d="  M 356.88161,114.33845   L 207.34202,114.33845   L 207.34202,108.87154   L 356.88161,108.87154   L 356.88161,114.33845  z " clip-path="url(#clipWmfPath1)" style="fill:#ffffff;fill-rule:nonzero;fill-opacity:1;stroke:none;"/>
  <path id="path54" d="  M 356.88161,114.33845   L 207.34202,114.33845   L 207.34202,108.87154   L 356.88161,108.87154   L 356.88161,114.33845  z " clip-path="url(#clipWmfPath1)" style="fill:none;stroke:#000000;stroke-width:0.066669457px;stroke-linecap:round;stroke-linejoin:round;stroke-miterlimit:4;stroke-dasharray:none;stroke-opacity:1;"/>
  <path id="path56" d="  M 192.94141,104.13799   L 91.003811,104.13799   L 91.003811,119.13867   L 192.94141,119.13867   L 192.94141,104.13799  z " clip-path="url(#clipWmfPath1)" style="fill:#000000;fill-rule:nonzero;fill-opacity:1;stroke:none;"/>
  <path id="path58" d="  M 192.94141,104.13799   L 91.003811,104.13799   L 91.003811,119.13867   L 192.94141,119.13867   L 192.94141,104.13799  z " clip-path="url(#clipWmfPath1)" style="fill:none;stroke:#000000;stroke-width:0.066669457px;stroke-linecap:round;stroke-linejoin:round;stroke-miterlimit:4;stroke-dasharray:none;stroke-opacity:1;"/>
  <path id="path60" d="  M 187.47452,114.33845   L 96.404038,114.33845   L 96.404038,108.87154   L 187.47452,108.87154   L 187.47452,114.33845  z " clip-path="url(#clipWmfPath1)" style="fill:#ffffff;fill-rule:nonzero;fill-opacity:1;stroke:none;"/>
  <path id="path62" d="  M 187.47452,114.33845   L 96.404038,114.33845   L 96.404038,108.87154   L 187.47452,108.87154   L 187.47452,114.33845  z " clip-path="url(#clipWmfPath1)" style="fill:none;stroke:#000000;stroke-width:0.066669457px;stroke-linecap:round;stroke-linejoin:round;stroke-miterlimit:4;stroke-dasharray:none;stroke-opacity:1;"/>
  <path id="path64" d="  M 362.61519,33.001477   L 201.74178,33.001477   L 201.74178,48.002149   L 362.61519,48.002149   L 362.61519,33.001477  z " clip-path="url(#clipWmfPath1)" style="fill:#000000;fill-rule:nonzero;fill-opacity:1;stroke:none;"/>
  <path id="path66" d="  M 362.61519,33.001477   L 201.74178,33.001477   L 201.74178,48.002149   L 362.61519,48.002149   L 362.61519,33.001477  z " clip-path="url(#clipWmfPath1)" style="fill:none;stroke:#000000;stroke-width:0.066669457px;stroke-linecap:round;stroke-linejoin:round;stroke-miterlimit:4;stroke-dasharray:none;stroke-opacity:1;"/>
  <path id="path68" d="  M 356.88161,43.201934   L 207.34202,43.201934   L 207.34202,37.735022   L 356.88161,37.735022   L 356.88161,43.201934  z " clip-path="url(#clipWmfPath1)" style="fill:#ffffff;fill-rule:nonzero;fill-opacity:1;stroke:none;"/>
  <path id="path70" d="  M 356.88161,43.201934   L 207.34202,43.201934   L 207.34202,37.735022   L 356.88161,37.735022   L 356.88161,43.201934  z " clip-path="url(#clipWmfPath1)" style="fill:none;stroke:#000000;stroke-width:0.066669457px;stroke-linecap:round;stroke-linejoin:round;stroke-miterlimit:4;stroke-dasharray:none;stroke-opacity:1;"/>
  <path id="path72" d="  M 292.0789,33.868183   L 293.07894,34.001522   L 293.87897,34.46821   L 294.479,35.134906   L 294.67901,35.868272   L 294.67901,45.335363   L 294.479,46.068729   L 293.87897,46.668756   L 293.07894,47.002104   L 292.0789,47.135443   L 272.34474,47.135443   L 271.3447,47.002104   L 270.54466,46.602086   L 269.94464,46.002059   L 269.74463,45.268693   L 269.74463,35.868272   L 269.94464,35.134906   L 270.54466,34.46821   L 271.3447,34.001522   L 272.34474,33.868183   L 292.0789,33.868183  z " clip-path="url(#clipWmfPath1)" style="fill:#ffffff;fill-rule:nonzero;fill-opacity:1;stroke:none;"/>
  <path id="path74" d="  M 272.34474,33.334826   L 272.34474,34.40154   L 292.01223,34.40154   L 292.87893,34.46821   L 293.54563,34.868227   L 294.01231,35.401585   L 294.14565,35.934942   L 294.14565,45.268693   L 294.01231,45.80205   L 293.6123,46.268738   L 292.9456,46.535416   L 292.01223,46.602086   L 272.41141,46.602086   L 271.47804,46.535416   L 270.87801,46.202068   L 270.41133,45.735381   L 270.27799,45.202023   L 270.27799,35.934942   L 270.41133,35.401585   L 270.87801,34.868227   L 271.54471,34.46821   L 272.41141,34.40154   L 292.01223,34.40154   L 293.01227,34.534879   L 293.14561,33.468165   L 292.14557,33.334826   L 272.27807,33.334826   L 271.14469,33.534834   L 270.21132,34.068192   L 269.47795,34.868227   L 269.21127,35.801603   L 269.21127,45.335363   L 269.47795,46.268738   L 270.21132,47.002104   L 271.21136,47.468792   L 272.27807,47.6688   L 292.14557,47.6688   L 293.21228,47.468792   L 294.14565,47.068774   L 294.94569,46.335407   L 295.21236,45.402032   L 295.21236,35.801603   L 294.94569,34.868227   L 294.21232,34.068192   L 293.27895,33.534834   L 292.14557,33.334826   L 272.34474,33.334826  z " clip-path="url(#clipWmfPath1)" style="fill:#000000;fill-rule:nonzero;fill-opacity:1;stroke:#000000;stroke-width:0.066669457px;stroke-linecap:round;stroke-linejoin:round;stroke-miterlimit:4;stroke-dasharray:none;stroke-opacity:1;"/>
  <g id="g76" clip-path="url(#clipWmfPath1)"/>
  <g id="g88" clip-path="url(#clipWmfPath1)">
    <text id="text86" y="0.000000" x="0.000000" transform="matrix(1.000000,-0.000000,0.000000,1.000000,273.011434,44.001970) rotate(180,8.92364501953125, 0.5)" style="font-size:10.687500px;font-style:normal;font-variant:normal;font-weight:400;font-stretch:Condensed;line-height:125.000000%;letter-spacing:0px;word-spacing:0px;fill:#000000;fill-opacity:1;stroke:none;font-family:Helvetica-Narrow;text-align:start;text-anchor:start;" xml:space="preserve"><tspan id="tspan84" y="0.000000" x="0.000000"><tspan id="tspan78" style="fill:#000000;font-size:10.687500px;font-style:normal;font-variant:normal;font-weight:400;font-stretch:Condensed;font-family:Helvetica-Narrow;" dy="0.000000" dx="0.000000">S</tspan><tspan id="tspan80" style="fill:#000000;font-size:10.687500px;font-style:normal;font-variant:normal;font-weight:400;font-stretch:Condensed;font-family:Helvetica-Narrow;" dy="0.000000" dx="-0.194939">L</tspan><tspan id="tspan82" style="fill:#000000;font-size:10.687500px;font-style:normal;font-variant:normal;font-weight:400;font-stretch:Condensed;font-family:Helvetica-Narrow;" dy="0.000000" dx="0.003601">1</tspan></tspan></text>
  </g>
  <path id="path90" d="  M 362.68186,139.20623   L 78.069936,139.20623   L 78.069936,154.2069   L 362.68186,154.2069   L 362.68186,139.20623  z " clip-path="url(#clipWmfPath1)" style="fill:#000000;fill-rule:nonzero;fill-opacity:1;stroke:none;"/>
  <path id="path92" d="  M 362.68186,139.20623   L 78.069936,139.20623   L 78.069936,154.2069   L 362.68186,154.2069   L 362.68186,139.20623  z " clip-path="url(#clipWmfPath1)" style="fill:none;stroke:#000000;stroke-width:0.066669457px;stroke-linecap:round;stroke-linejoin:round;stroke-miterlimit:4;stroke-dasharray:none;stroke-opacity:1;"/>
  <path id="path94" d="  M 352.5481,149.40669   L 88.003686,149.40669   L 88.003686,143.93978   L 352.5481,143.93978   L 352.5481,149.40669  z " clip-path="url(#clipWmfPath1)" style="fill:#ffffff;fill-rule:nonzero;fill-opacity:1;stroke:none;"/>
  <path id="path96" d="  M 352.5481,149.40669   L 88.003686,149.40669   L 88.003686,143.93978   L 352.5481,143.93978   L 352.5481,149.40669  z " clip-path="url(#clipWmfPath1)" style="fill:none;stroke:#000000;stroke-width:0.066669457px;stroke-linecap:round;stroke-linejoin:round;stroke-miterlimit:4;stroke-dasharray:none;stroke-opacity:1;"/>
  <path id="path98" d="  M 230.27631,140.07294   L 231.27635,140.20628   L 232.07639,140.67296   L 232.67641,141.33966   L 232.87642,142.07303   L 232.87642,151.54012   L 232.67641,152.27348   L 232.07639,152.87351   L 231.27635,153.20686   L 230.27631,153.3402   L 210.54215,153.3402   L 209.54211,153.20686   L 208.74208,152.80684   L 208.14205,152.20681   L 207.94204,151.47345   L 207.94204,142.07303   L 208.14205,141.33966   L 208.74208,140.67296   L 209.54211,140.20628   L 210.54215,140.07294   L 230.27631,140.07294  z " clip-path="url(#clipWmfPath1)" style="fill:#ffffff;fill-rule:nonzero;fill-opacity:1;stroke:none;"/>
  <path id="path100" d="  M 210.54215,139.53958   L 210.54215,140.60629   L 230.20964,140.60629   L 231.07634,140.67296   L 231.74304,141.07298   L 232.20973,141.60634   L 232.34306,142.1397   L 232.34306,151.47345   L 232.20973,152.0068   L 231.80971,152.47349   L 231.14301,152.74017   L 230.20964,152.80684   L 210.60882,152.80684   L 209.67545,152.74017   L 209.07542,152.40682   L 208.60874,151.94013   L 208.4754,151.40678   L 208.4754,142.1397   L 208.60874,141.60634   L 209.07542,141.07298   L 209.74212,140.67296   L 210.60882,140.60629   L 230.20964,140.60629   L 231.20968,140.73963   L 231.34302,139.67292   L 230.34298,139.53958   L 210.47548,139.53958   L 209.3421,139.73959   L 208.40873,140.27295   L 207.67536,141.07298   L 207.40869,142.00636   L 207.40869,151.54012   L 207.67536,152.47349   L 208.40873,153.20686   L 209.40877,153.67355   L 210.47548,153.87355   L 230.34298,153.87355   L 231.40969,153.67355   L 232.34306,153.27353   L 233.1431,152.54016   L 233.40978,151.60679   L 233.40978,142.00636   L 233.1431,141.07298   L 232.40973,140.27295   L 231.47636,139.73959   L 230.34298,139.53958   L 210.54215,139.53958  z " clip-path="url(#clipWmfPath1)" style="fill:#000000;fill-rule:nonzero;fill-opacity:1;stroke:#000000;stroke-width:0.066669457px;stroke-linecap:round;stroke-linejoin:round;stroke-miterlimit:4;stroke-dasharray:none;stroke-opacity:1;"/>
  <path id="path102" d="  M 362.68186,174.2078   L 78.069936,174.2078   L 78.069936,189.20847   L 362.68186,189.20847   L 362.68186,174.2078  z " clip-path="url(#clipWmfPath1)" style="fill:#000000;fill-rule:nonzero;fill-opacity:1;stroke:none;"/>
  <path id="path104" d="  M 362.68186,174.2078   L 78.069936,174.2078   L 78.069936,189.20847   L 362.68186,189.20847   L 362.68186,174.2078  z " clip-path="url(#clipWmfPath1)" style="fill:none;stroke:#000000;stroke-width:0.066669457px;stroke-linecap:round;stroke-linejoin:round;stroke-miterlimit:4;stroke-dasharray:none;stroke-opacity:1;"/>
  <path id="path106" d="  M 352.5481,184.40825   L 88.003686,184.40825   L 88.003686,178.94134   L 352.5481,178.94134   L 352.5481,184.40825  z " clip-path="url(#clipWmfPath1)" style="fill:#ffffff;fill-rule:nonzero;fill-opacity:1;stroke:none;"/>
  <path id="path108" d="  M 352.5481,184.40825   L 88.003686,184.40825   L 88.003686,178.94134   L 352.5481,178.94134   L 352.5481,184.40825  z " clip-path="url(#clipWmfPath1)" style="fill:none;stroke:#000000;stroke-width:0.066669457px;stroke-linecap:round;stroke-linejoin:round;stroke-miterlimit:4;stroke-dasharray:none;stroke-opacity:1;"/>
  <path id="path110" d="  M 230.27631,175.0745   L 231.27635,175.20784   L 232.07639,175.67453   L 232.67641,176.34123   L 232.87642,177.07459   L 232.87642,186.54168   L 232.67641,187.27505   L 232.07639,187.87508   L 231.27635,188.20842   L 230.27631,188.34176   L 210.54215,188.34176   L 209.54211,188.20842   L 208.74208,187.80841   L 208.14205,187.20838   L 207.94204,186.47501   L 207.94204,177.07459   L 208.14205,176.34123   L 208.74208,175.67453   L 209.54211,175.20784   L 210.54215,175.0745   L 230.27631,175.0745  z " clip-path="url(#clipWmfPath1)" style="fill:#ffffff;fill-rule:nonzero;fill-opacity:1;stroke:none;"/>
  <path id="path112" d="  M 210.54215,174.54115   L 210.54215,175.60786   L 230.20964,175.60786   L 231.07634,175.67453   L 231.74304,176.07455   L 232.20973,176.60791   L 232.34306,177.14126   L 232.34306,186.47501   L 232.20973,187.00837   L 231.80971,187.47506   L 231.14301,187.74174   L 230.20964,187.80841   L 210.60882,187.80841   L 209.67545,187.74174   L 209.07542,187.40839   L 208.60874,186.9417   L 208.4754,186.40834   L 208.4754,177.14126   L 208.60874,176.60791   L 209.07542,176.07455   L 209.74212,175.67453   L 210.60882,175.60786   L 230.20964,175.60786   L 231.20968,175.7412   L 231.34302,174.67449   L 230.34298,174.54115   L 210.47548,174.54115   L 209.3421,174.74116   L 208.40873,175.27451   L 207.67536,176.07455   L 207.40869,177.00792   L 207.40869,186.54168   L 207.67536,187.47506   L 208.40873,188.20842   L 209.40877,188.67511   L 210.47548,188.87512   L 230.34298,188.87512   L 231.40969,188.67511   L 232.34306,188.27509   L 233.1431,187.54173   L 233.40978,186.60835   L 233.40978,177.00792   L 233.1431,176.07455   L 232.40973,175.27451   L 231.47636,174.74116   L 230.34298,174.54115   L 210.54215,174.54115  z " clip-path="url(#clipWmfPath1)" style="fill:#000000;fill-rule:nonzero;fill-opacity:1;stroke:#000000;stroke-width:0.066669457px;stroke-linecap:round;stroke-linejoin:round;stroke-miterlimit:4;stroke-dasharray:none;stroke-opacity:1;"/>
  <path id="path114" d="  M 361.68181,208.20932   L 77.069894,208.20932   L 77.069894,223.20999   L 361.68181,223.20999   L 361.68181,208.20932  z " clip-path="url(#clipWmfPath1)" style="fill:#000000;fill-rule:nonzero;fill-opacity:1;stroke:none;"/>
  <path id="path116" d="  M 361.68181,208.20932   L 77.069894,208.20932   L 77.069894,223.20999   L 361.68181,223.20999   L 361.68181,208.20932  z " clip-path="url(#clipWmfPath1)" style="fill:none;stroke:#000000;stroke-width:0.066669457px;stroke-linecap:round;stroke-linejoin:round;stroke-miterlimit:4;stroke-dasharray:none;stroke-opacity:1;"/>
  <path id="path118" d="  M 351.54806,218.40978   L 87.003644,218.40978   L 87.003644,212.94287   L 351.54806,212.94287   L 351.54806,218.40978  z " clip-path="url(#clipWmfPath1)" style="fill:#ffffff;fill-rule:nonzero;fill-opacity:1;stroke:none;"/>
  <path id="path120" d="  M 351.54806,218.40978   L 87.003644,218.40978   L 87.003644,212.94287   L 351.54806,212.94287   L 351.54806,218.40978  z " clip-path="url(#clipWmfPath1)" style="fill:none;stroke:#000000;stroke-width:0.066669457px;stroke-linecap:round;stroke-linejoin:round;stroke-miterlimit:4;stroke-dasharray:none;stroke-opacity:1;"/>
  <path id="path122" d="  M 229.27627,209.07603   L 230.27631,209.20936   L 231.07634,209.67605   L 231.67637,210.34275   L 231.87638,211.07612   L 231.87638,220.54321   L 231.67637,221.27657   L 231.07634,221.8766   L 230.27631,222.20995   L 229.27627,222.34329   L 209.54211,222.34329   L 208.54207,222.20995   L 207.74203,221.80993   L 207.14201,221.2099   L 206.942,220.47654   L 206.942,211.07612   L 207.14201,210.34275   L 207.74203,209.67605   L 208.54207,209.20936   L 209.54211,209.07603   L 229.27627,209.07603  z " clip-path="url(#clipWmfPath1)" style="fill:#ffffff;fill-rule:nonzero;fill-opacity:1;stroke:none;"/>
  <path id="path124" d="  M 209.54211,208.54267   L 209.54211,209.60938   L 229.2096,209.60938   L 230.0763,209.67605   L 230.743,210.07607   L 231.20968,210.60943   L 231.34302,211.14278   L 231.34302,220.47654   L 231.20968,221.00989   L 230.80967,221.47658   L 230.14297,221.74326   L 229.2096,221.80993   L 209.60878,221.80993   L 208.67541,221.74326   L 208.07538,221.40991   L 207.60869,220.94322   L 207.47536,220.40987   L 207.47536,211.14278   L 207.60869,210.60943   L 208.07538,210.07607   L 208.74208,209.67605   L 209.60878,209.60938   L 229.2096,209.60938   L 230.20964,209.74272   L 230.34298,208.67601   L 229.34294,208.54267   L 209.47544,208.54267   L 208.34206,208.74268   L 207.40869,209.27603   L 206.67532,210.07607   L 206.40864,211.00945   L 206.40864,220.54321   L 206.67532,221.47658   L 207.40869,222.20995   L 208.40873,222.67663   L 209.47544,222.87664   L 229.34294,222.87664   L 230.40965,222.67663   L 231.34302,222.27662   L 232.14306,221.54325   L 232.40973,220.60988   L 232.40973,211.00945   L 232.14306,210.07607   L 231.40969,209.27603   L 230.47632,208.74268   L 229.34294,208.54267   L 209.54211,208.54267  z " clip-path="url(#clipWmfPath1)" style="fill:#000000;fill-rule:nonzero;fill-opacity:1;stroke:#000000;stroke-width:0.066669457px;stroke-linecap:round;stroke-linejoin:round;stroke-miterlimit:4;stroke-dasharray:none;stroke-opacity:1;"/>
  <path id="path126" d="  M 361.68181,243.21089   L 77.069894,243.21089   L 77.069894,258.21156   L 361.68181,258.21156   L 361.68181,243.21089  z " clip-path="url(#clipWmfPath1)" style="fill:#000000;fill-rule:nonzero;fill-opacity:1;stroke:none;"/>
  <path id="path128" d="  M 361.68181,243.21089   L 77.069894,243.21089   L 77.069894,258.21156   L 361.68181,258.21156   L 361.68181,243.21089  z " clip-path="url(#clipWmfPath1)" style="fill:none;stroke:#000000;stroke-width:0.066669457px;stroke-linecap:round;stroke-linejoin:round;stroke-miterlimit:4;stroke-dasharray:none;stroke-opacity:1;"/>
  <path id="path130" d="  M 351.54806,253.41134   L 87.003644,253.41134   L 87.003644,247.94443   L 351.54806,247.94443   L 351.54806,253.41134  z " clip-path="url(#clipWmfPath1)" style="fill:#ffffff;fill-rule:nonzero;fill-opacity:1;stroke:none;"/>
  <path id="path132" d="  M 351.54806,253.41134   L 87.003644,253.41134   L 87.003644,247.94443   L 351.54806,247.94443   L 351.54806,253.41134  z " clip-path="url(#clipWmfPath1)" style="fill:none;stroke:#000000;stroke-width:0.066669457px;stroke-linecap:round;stroke-linejoin:round;stroke-miterlimit:4;stroke-dasharray:none;stroke-opacity:1;"/>
  <path id="path134" d="  M 229.27627,244.07759   L 230.27631,244.21093   L 231.07634,244.67762   L 231.67637,245.34432   L 231.87638,246.07768   L 231.87638,255.54477   L 231.67637,256.27814   L 231.07634,256.87817   L 230.27631,257.21151   L 229.27627,257.34485   L 209.54211,257.34485   L 208.54207,257.21151   L 207.74203,256.8115   L 207.14201,256.21147   L 206.942,255.4781   L 206.942,246.07768   L 207.14201,245.34432   L 207.74203,244.67762   L 208.54207,244.21093   L 209.54211,244.07759   L 229.27627,244.07759  z " clip-path="url(#clipWmfPath1)" style="fill:#ffffff;fill-rule:nonzero;fill-opacity:1;stroke:none;"/>
  <path id="path136" d="  M 209.54211,243.54424   L 209.54211,244.61095   L 229.2096,244.61095   L 230.0763,244.67762   L 230.743,245.07764   L 231.20968,245.61099   L 231.34302,246.14435   L 231.34302,255.4781   L 231.20968,256.01146   L 230.80967,256.47815   L 230.14297,256.74483   L 229.2096,256.8115   L 209.60878,256.8115   L 208.67541,256.74483   L 208.07538,256.41148   L 207.60869,255.94479   L 207.47536,255.41143   L 207.47536,246.14435   L 207.60869,245.61099   L 208.07538,245.07764   L 208.74208,244.67762   L 209.60878,244.61095   L 229.2096,244.61095   L 230.20964,244.74429   L 230.34298,243.67757   L 229.34294,243.54424   L 209.47544,243.54424   L 208.34206,243.74424   L 207.40869,244.2776   L 206.67532,245.07764   L 206.40864,246.01101   L 206.40864,255.54477   L 206.67532,256.47815   L 207.40869,257.21151   L 208.40873,257.6782   L 209.47544,257.87821   L 229.34294,257.87821   L 230.40965,257.6782   L 231.34302,257.27818   L 232.14306,256.54482   L 232.40973,255.61144   L 232.40973,246.01101   L 232.14306,245.07764   L 231.40969,244.2776   L 230.47632,243.74424   L 229.34294,243.54424   L 209.54211,243.54424  z " clip-path="url(#clipWmfPath1)" style="fill:#000000;fill-rule:nonzero;fill-opacity:1;stroke:#000000;stroke-width:0.066669457px;stroke-linecap:round;stroke-linejoin:round;stroke-miterlimit:4;stroke-dasharray:none;stroke-opacity:1;"/>
  <path id="path138" d="  M 362.61519,280.87924   L 201.74178,280.87924   L 201.74178,295.87991   L 362.61519,295.87991   L 362.61519,280.87924  z " clip-path="url(#clipWmfPath1)" style="fill:#000000;fill-rule:nonzero;fill-opacity:1;stroke:none;"/>
  <path id="path140" d="  M 362.61519,280.87924   L 201.74178,280.87924   L 201.74178,295.87991   L 362.61519,295.87991   L 362.61519,280.87924  z " clip-path="url(#clipWmfPath1)" style="fill:none;stroke:#000000;stroke-width:0.066669457px;stroke-linecap:round;stroke-linejoin:round;stroke-miterlimit:4;stroke-dasharray:none;stroke-opacity:1;"/>
  <path id="path142" d="  M 356.88161,291.0797   L 207.34202,291.0797   L 207.34202,285.61278   L 356.88161,285.61278   L 356.88161,291.0797  z " clip-path="url(#clipWmfPath1)" style="fill:#ffffff;fill-rule:nonzero;fill-opacity:1;stroke:none;"/>
  <path id="path144" d="  M 356.88161,291.0797   L 207.34202,291.0797   L 207.34202,285.61278   L 356.88161,285.61278   L 356.88161,291.0797  z " clip-path="url(#clipWmfPath1)" style="fill:none;stroke:#000000;stroke-width:0.066669457px;stroke-linecap:round;stroke-linejoin:round;stroke-miterlimit:4;stroke-dasharray:none;stroke-opacity:1;"/>
  <path id="path146" d="  M 192.94141,280.87924   L 91.003811,280.87924   L 91.003811,295.87991   L 192.94141,295.87991   L 192.94141,280.87924  z " clip-path="url(#clipWmfPath1)" style="fill:#000000;fill-rule:nonzero;fill-opacity:1;stroke:none;"/>
  <path id="path148" d="  M 192.94141,280.87924   L 91.003811,280.87924   L 91.003811,295.87991   L 192.94141,295.87991   L 192.94141,280.87924  z " clip-path="url(#clipWmfPath1)" style="fill:none;stroke:#000000;stroke-width:0.066669457px;stroke-linecap:round;stroke-linejoin:round;stroke-miterlimit:4;stroke-dasharray:none;stroke-opacity:1;"/>
  <path id="path150" d="  M 187.47452,291.0797   L 96.404038,291.0797   L 96.404038,285.61278   L 187.47452,285.61278   L 187.47452,291.0797  z " clip-path="url(#clipWmfPath1)" style="fill:#ffffff;fill-rule:nonzero;fill-opacity:1;stroke:none;"/>
  <path id="path152" d="  M 187.47452,291.0797   L 96.404038,291.0797   L 96.404038,285.61278   L 187.47452,285.61278   L 187.47452,291.0797  z " clip-path="url(#clipWmfPath1)" style="fill:none;stroke:#000000;stroke-width:0.066669457px;stroke-linecap:round;stroke-linejoin:round;stroke-miterlimit:4;stroke-dasharray:none;stroke-opacity:1;"/>
  <path id="path154" d="  M 236.67658,281.74595   L 237.67662,281.87928   L 238.47665,282.34597   L 239.07668,283.01267   L 239.27669,283.74603   L 239.27669,293.21313   L 239.07668,293.94649   L 238.47665,294.54652   L 237.67662,294.87987   L 236.67658,295.01321   L 216.94242,295.01321   L 215.94238,294.87987   L 215.14234,294.47985   L 214.54232,293.87982   L 214.34231,293.14646   L 214.34231,283.74603   L 214.54232,283.01267   L 215.14234,282.34597   L 215.94238,281.87928   L 216.94242,281.74595   L 236.67658,281.74595  z " clip-path="url(#clipWmfPath1)" style="fill:#ffffff;fill-rule:nonzero;fill-opacity:1;stroke:none;"/>
  <path id="path156" d="  M 216.94242,281.21259   L 216.94242,282.2793   L 236.60991,282.2793   L 237.47661,282.34597   L 238.14331,282.74599   L 238.60999,283.27935   L 238.74333,283.8127   L 238.74333,293.14646   L 238.60999,293.67981   L 238.20998,294.1465   L 237.54328,294.41318   L 236.60991,294.47985   L 217.00909,294.47985   L 216.07572,294.41318   L 215.47569,294.07983   L 215.009,293.61314   L 214.87567,293.07979   L 214.87567,283.8127   L 215.009,283.27935   L 215.47569,282.74599   L 216.14239,282.34597   L 217.00909,282.2793   L 236.60991,282.2793   L 237.60995,282.41264   L 237.74329,281.34593   L 236.74325,281.21259   L 216.87575,281.21259   L 215.74237,281.4126   L 214.809,281.94595   L 214.07563,282.74599   L 213.80895,283.67937   L 213.80895,293.21313   L 214.07563,294.1465   L 214.809,294.87987   L 215.80904,295.34655   L 216.87575,295.54656   L 236.74325,295.54656   L 237.80996,295.34655   L 238.74333,294.94654   L 239.54337,294.21317   L 239.81004,293.27979   L 239.81004,283.67937   L 239.54337,282.74599   L 238.81,281.94595   L 237.87663,281.4126   L 236.74325,281.21259   L 216.94242,281.21259  z " clip-path="url(#clipWmfPath1)" style="fill:#000000;fill-rule:nonzero;fill-opacity:1;stroke:#000000;stroke-width:0.066669457px;stroke-linecap:round;stroke-linejoin:round;stroke-miterlimit:4;stroke-dasharray:none;stroke-opacity:1;"/>
  <g id="g158" clip-path="url(#clipWmfPath1)"/>
  <g id="g170" clip-path="url(#clipWmfPath1)">
    <text id="text168" y="0.000000" x="0.000000" transform="matrix(1.000000,-0.000000,0.000000,1.000000,211.408854,151.006760) rotate(180,8.88189697265625, 0.5)" style="font-size:10.687500px;font-style:normal;font-variant:normal;font-weight:400;font-stretch:Condensed;line-height:125.000000%;letter-spacing:0px;word-spacing:0px;fill:#000000;fill-opacity:1;stroke:none;font-family:Helvetica-Narrow;text-align:start;text-anchor:start;" xml:space="preserve"><tspan id="tspan166" y="0.000000" x="0.000000"><tspan id="tspan160" style="fill:#000000;font-size:10.687500px;font-style:normal;font-variant:normal;font-weight:400;font-stretch:Condensed;font-family:Helvetica-Narrow;" dy="0.000000" dx="0.000000">S</tspan><tspan id="tspan162" style="fill:#000000;font-size:10.687500px;font-style:normal;font-variant:normal;font-weight:400;font-stretch:Condensed;font-family:Helvetica-Narrow;" dy="0.000000" dx="-0.102258">L</tspan><tspan id="tspan164" style="fill:#000000;font-size:10.687500px;font-style:normal;font-variant:normal;font-weight:400;font-stretch:Condensed;font-family:Helvetica-Narrow;" dy="0.000000" dx="0.003601">2</tspan></tspan></text>
  </g>
  <g id="g172" clip-path="url(#clipWmfPath1)"/>
  <g id="g184" clip-path="url(#clipWmfPath1)">
    <text id="text182" y="0.000000" x="0.000000" transform="matrix(1.000000,-0.000000,0.000000,1.000000,212.342227,185.874987) rotate(180,8.988876342773438, 0.5)" style="font-size:10.687500px;font-style:normal;font-variant:normal;font-weight:400;font-stretch:Condensed;line-height:125.000000%;letter-spacing:0px;word-spacing:0px;fill:#000000;fill-opacity:1;stroke:none;font-family:Helvetica-Narrow;text-align:start;text-anchor:start;" xml:space="preserve"><tspan id="tspan180" y="0.000000" x="0.000000"><tspan id="tspan174" style="fill:#000000;font-size:10.687500px;font-style:normal;font-variant:normal;font-weight:400;font-stretch:Condensed;font-family:Helvetica-Narrow;" dy="0.000000" dx="0.000000">S</tspan><tspan id="tspan176" style="fill:#000000;font-size:10.687500px;font-style:normal;font-variant:normal;font-weight:400;font-stretch:Condensed;font-family:Helvetica-Narrow;" dy="0.000000" dx="-0.102258">L</tspan><tspan id="tspan178" style="fill:#000000;font-size:10.687500px;font-style:normal;font-variant:normal;font-weight:400;font-stretch:Condensed;font-family:Helvetica-Narrow;" dy="0.000000" dx="0.003601">3</tspan></tspan></text>
  </g>
  <g id="g186" clip-path="url(#clipWmfPath1)"/>
  <g id="g198" clip-path="url(#clipWmfPath1)">
    <text id="text196" y="0.000000" x="0.000000" transform="matrix(1.000000,-0.000000,0.000000,1.000000,210.942168,219.809839) rotate(180,9.116729736328125, 0.5)" style="font-size:10.687500px;font-style:normal;font-variant:normal;font-weight:400;font-stretch:Condensed;line-height:125.000000%;letter-spacing:0px;word-spacing:0px;fill:#000000;fill-opacity:1;stroke:none;font-family:Helvetica-Narrow;text-align:start;text-anchor:start;" xml:space="preserve"><tspan id="tspan194" y="0.000000" x="0.000000"><tspan id="tspan188" style="fill:#000000;font-size:10.687500px;font-style:normal;font-variant:normal;font-weight:400;font-stretch:Condensed;font-family:Helvetica-Narrow;" dy="0.000000" dx="0.000000">S</tspan><tspan id="tspan190" style="fill:#000000;font-size:10.687500px;font-style:normal;font-variant:normal;font-weight:400;font-stretch:Condensed;font-family:Helvetica-Narrow;" dy="0.000000" dx="-0.102258">L</tspan><tspan id="tspan192" style="fill:#000000;font-size:10.687500px;font-style:normal;font-variant:normal;font-weight:400;font-stretch:Condensed;font-family:Helvetica-Narrow;" dy="0.000000" dx="0.003601">4</tspan></tspan></text>
  </g>
  <g id="g200" clip-path="url(#clipWmfPath1)"/>
  <g id="g212" clip-path="url(#clipWmfPath1)">
    <text id="text210" y="0.000000" x="0.000000" transform="matrix(1.000000,-0.000000,0.000000,1.000000,210.008795,254.678067) rotate(180,8.949737548828125, 0.5)" style="font-size:10.687500px;font-style:normal;font-variant:normal;font-weight:400;font-stretch:Condensed;line-height:125.000000%;letter-spacing:0px;word-spacing:0px;fill:#000000;fill-opacity:1;stroke:none;font-family:Helvetica-Narrow;text-align:start;text-anchor:start;" xml:space="preserve"><tspan id="tspan208" y="0.000000" x="0.000000"><tspan id="tspan202" style="fill:#000000;font-size:10.687500px;font-style:normal;font-variant:normal;font-weight:400;font-stretch:Condensed;font-family:Helvetica-Narrow;" dy="0.000000" dx="0.000000">S</tspan><tspan id="tspan204" style="fill:#000000;font-size:10.687500px;font-style:normal;font-variant:normal;font-weight:400;font-stretch:Condensed;font-family:Helvetica-Narrow;" dy="0.000000" dx="-0.102258">L</tspan><tspan id="tspan206" style="fill:#000000;font-size:10.687500px;font-style:normal;font-variant:normal;font-weight:400;font-stretch:Condensed;font-family:Helvetica-Narrow;" dy="0.000000" dx="0.003601">5</tspan></tspan></text>
  </g>
  <g id="g214" clip-path="url(#clipWmfPath1)"/>
  <g id="g226" clip-path="url(#clipWmfPath1)">
    <text id="text224" y="0.000000" x="0.000000" transform="matrix(1.000000,-0.000000,0.000000,1.000000,218.075800,292.879777) rotate(180,9.0802001953125, 0.5)" style="font-size:10.687500px;font-style:normal;font-variant:normal;font-weight:400;font-stretch:Condensed;line-height:125.000000%;letter-spacing:0px;word-spacing:0px;fill:#000000;fill-opacity:1;stroke:none;font-family:Helvetica-Narrow;text-align:start;text-anchor:start;" xml:space="preserve"><tspan id="tspan222" y="0.000000" x="0.000000"><tspan id="tspan216" style="fill:#000000;font-size:10.687500px;font-style:normal;font-variant:normal;font-weight:400;font-stretch:Condensed;font-family:Helvetica-Narrow;" dy="0.000000" dx="0.000000">S</tspan><tspan id="tspan218" style="fill:#000000;font-size:10.687500px;font-style:normal;font-variant:normal;font-weight:400;font-stretch:Condensed;font-family:Helvetica-Narrow;" dy="0.000000" dx="-0.102258">L</tspan><tspan id="tspan220" style="fill:#000000;font-size:10.687500px;font-style:normal;font-variant:normal;font-weight:400;font-stretch:Condensed;font-family:Helvetica-Narrow;" dy="0.000000" dx="0.003601">6</tspan></tspan></text>
  </g>
  <g id="g228" clip-path="url(#clipWmfPath1)"/>
  <g id="g244" clip-path="url(#clipWmfPath1)">
    <text id="text242" y="0.000000" x="0.000000" transform="matrix(1.000000,-0.000000,0.000000,1.000000,272.011392,61.002731) rotate(180,16.237380981445312, 0.5)" style="font-size:9.312500px;font-style:normal;font-variant:normal;font-weight:400;font-stretch:Condensed;line-height:125.000000%;letter-spacing:0px;word-spacing:0px;fill:#000000;fill-opacity:1;stroke:none;font-family:Helvetica-Narrow;text-align:start;text-anchor:start;" xml:space="preserve"><tspan id="tspan240" y="0.000000" x="0.000000"><tspan id="tspan230" style="fill:#000000;font-size:9.312500px;font-style:normal;font-variant:normal;font-weight:400;font-stretch:Condensed;font-family:Helvetica-Narrow;" dy="0.000000" dx="0.000000">3</tspan><tspan id="tspan232" style="fill:#000000;font-size:9.312500px;font-style:normal;font-variant:normal;font-weight:400;font-stretch:Condensed;font-family:Helvetica-Narrow;" dy="0.000000" dx="0.183652">4</tspan><tspan id="tspan234" style="fill:#000000;font-size:9.312500px;font-style:normal;font-variant:normal;font-weight:400;font-stretch:Condensed;font-family:Helvetica-Narrow;" dy="0.000000" dx="0.183652">1</tspan><tspan id="tspan236" style="fill:#000000;font-size:9.312500px;font-style:normal;font-variant:normal;font-weight:400;font-stretch:Condensed;font-family:Helvetica-Narrow;" dy="0.000000" dx="0.183652">3</tspan><tspan id="tspan238" style="fill:#000000;font-size:9.312500px;font-style:normal;font-variant:normal;font-weight:400;font-stretch:Condensed;font-family:Helvetica-Narrow;" dy="0.000000" dx="0.183652">0</tspan></tspan></text>
  </g>
</svg>
