<svg xmlns:dc="http://purl.org/dc/elements/1.1/" xmlns:cc="http://creativecommons.org/ns#" xmlns:rdf="http://www.w3.org/1999/02/22-rdf-syntax-ns#" xmlns:svg="http://www.w3.org/2000/svg" xmlns="http://www.w3.org/2000/svg" id="svg542" height="46.52mm" width="78.519997mm" version="1.0">
  <metadata id="metadata546">
    <rdf:RDF>
      <cc:Work rdf:about="">
        <dc:format>image/svg+xml</dc:format>
        <dc:type rdf:resource="http://purl.org/dc/dcmitype/StillImage"/>
      </cc:Work>
    </rdf:RDF>
  </metadata>
  <defs id="defs6">
    <clipPath id="clipWmfPath1" clipPathUnits="userSpaceOnUse">
      <path id="path2" d="M 0,0 L 296.66404,0 L 296.66404,175.71917 L 0,175.71917 z"/>
    </clipPath>
    <pattern y="0" x="0" height="6" width="6" patternUnits="userSpaceOnUse" id="WMFhbasepattern"/>
  </defs>
  <path id="path8" d="  M 1.3333215,174.11929   L 1.3333215,1.3332258   L 262.53101,1.3332258   L 262.53101,174.11929   L 1.3333215,174.11929  z " clip-path="url(#clipWmfPath1)" style="fill:#ffffff;fill-rule:nonzero;fill-opacity:1;stroke:none;"/>
  <path id="path10" d="  M 262.53101,174.31928   L 262.53101,173.91931   L 1.5333198,173.91931   L 1.5333198,1.5332097   L 262.33101,1.5332097   L 262.33101,173.91931   L 1.5333198,173.91931   L 1.5333198,1.3332258   L 1.1333233,1.3332258   L 1.1333233,174.31928   L 262.73101,174.31928   L 262.73101,1.133242   L 1.1333233,1.133242   L 1.1333233,174.31928   L 262.53101,174.31928  z " clip-path="url(#clipWmfPath1)" style="fill:#000000;fill-rule:nonzero;fill-opacity:1;stroke:#000000;stroke-width:0.066666074px;stroke-linecap:round;stroke-linejoin:round;stroke-miterlimit:4;stroke-dasharray:none;stroke-opacity:1;"/>
  <path id="path12" d="  M 163.66522,100.85853   L 162.99856,102.45841   L 162.19857,104.45824   L 160.53191,106.85805   L 158.86526,108.92455   L 156.53195,111.19103   L 153.99864,113.12421   L 151.26533,114.65742   L 148.33202,115.92399   L 145.26538,116.85724   L 141.99874,117.52386   L 138.59877,117.85716   L 135.13214,117.99049   L 131.79883,117.7905   L 128.59886,117.32387   L 125.53222,116.52394   L 122.53225,115.45736   L 119.66561,114.05747   L 116.99897,112.4576   L 114.53232,110.52442   L 112.19901,108.45792   L 110.13236,106.12478   L 108.19904,103.65831   L 106.59906,100.99186   L 105.19907,98.125422   L 104.13241,95.125664   L 103.33242,92.059244   L 102.86576,88.859502   L 102.66576,85.526438   L 102.86576,82.193373   L 103.33242,78.92697   L 104.13241,75.793889   L 105.19907,72.794131   L 106.59906,69.927695   L 108.19904,67.194582   L 110.13236,64.728114   L 112.19901,62.394969   L 114.53232,60.261808   L 116.99897,58.395292   L 119.66561,56.795421   L 122.53225,55.395534   L 125.53222,54.328953   L 128.59886,53.529017   L 131.79883,53.062388   L 135.13214,52.862404   L 138.53211,52.995727   L 141.79875,53.462356   L 144.93205,54.128969   L 147.86536,55.19555   L 150.732,56.462114   L 153.39864,58.061985   L 155.86529,59.928501   L 158.1986,62.128324   L 159.66525,63.728195   L 161.13191,65.794695   L 162.3319,68.061179   L 163.33189,69.994357   L 134.46548,69.994357   L 134.46548,100.9252   L 163.66522,100.85853  z " clip-path="url(#clipWmfPath1)" style="fill:#cccccc;fill-rule:nonzero;fill-opacity:1;stroke:none;"/>
  <path id="path14" d="  M 16.533187,70.127679   L 16.533187,100.79187   L 134.33215,100.79187   L 134.33215,70.127679   L 16.533187,70.127679  z " clip-path="url(#clipWmfPath1)" style="fill:#cccccc;fill-rule:nonzero;fill-opacity:1;stroke:none;"/>
  <path id="path16" d="  M 152.86531,95.858938   L 152.86531,86.526357   L 144.46539,86.526357   L 144.46539,95.858938   L 141.86541,95.858938   L 141.86541,76.593824   L 144.46539,76.593824   L 144.46539,84.326534   L 152.86531,84.326534   L 152.86531,76.593824   L 155.39863,76.593824   L 155.39863,95.858938   L 152.86531,95.858938  z " clip-path="url(#clipWmfPath1)" style="fill:#cccccc;fill-rule:evenodd;fill-opacity:1;stroke:none;"/>
  <path id="path18" d="  M 165.19854,85.993067   L 165.33187,83.993228   L 165.73187,82.193373   L 166.33186,80.526841   L 167.19852,78.993631   L 168.33184,77.727066   L 169.73183,76.86047   L 171.26515,76.260518   L 172.9318,76.060534   L 174.79845,76.260518   L 176.46511,76.793808   L 177.79843,77.660405   L 178.93175,78.726986   L 179.86508,80.193534   L 180.5984,81.860066   L 180.9984,83.793244   L 181.13173,85.993067   L 180.9984,88.25955   L 180.5984,90.259389   L 179.86508,91.992583   L 178.93175,93.459131   L 177.79843,94.659035   L 176.46511,95.45897   L 174.79845,95.858938   L 172.9318,95.99226   L 171.19849,95.858938   L 169.66517,95.392309   L 168.33184,94.525712   L 167.19852,93.325809   L 166.33186,91.792599   L 165.73187,90.059405   L 165.33187,88.126228   L 165.19854,85.993067  z    M 167.73185,85.859744   L 168.06518,88.926163   L 168.46518,90.192728   L 169.13184,91.392631   L 169.7985,92.325889   L 170.66516,92.992502   L 171.59848,93.39247   L 172.73181,93.525793   L 173.99846,93.39247   L 175.06512,93.059164   L 175.99844,92.392551   L 176.79844,91.525954   L 177.39843,90.459373   L 177.86509,89.192809   L 178.19842,87.592938   L 178.26509,85.859744   L 178.19842,84.059889   L 177.93176,82.526679   L 177.4651,81.260115   L 176.8651,80.260195   L 176.06511,79.393599   L 175.13178,78.860308   L 172.73181,78.393679   L 171.59848,78.527002   L 170.59849,78.860308   L 169.73183,79.46026   L 169.06517,80.260195   L 168.06518,82.793325   L 167.73185,85.859744  z   " clip-path="url(#clipWmfPath1)" style="fill:#cccccc;fill-rule:evenodd;fill-opacity:1;stroke:none;"/>
  <path id="path20" d="  M 190.73165,76.527163   L 193.26496,76.527163   L 193.26496,89.726099   L 193.53162,91.392631   L 193.86495,92.059244   L 194.39828,92.592534   L 195.66494,93.525793   L 197.33159,93.792438   L 199.13157,93.525793   L 199.79823,93.192486   L 200.2649,92.659196   L 201.26489,91.392631   L 201.53155,90.526034   L 201.59822,89.592776   L 201.59822,76.527163   L 204.19819,76.527163   L 204.19819,89.926083   L 204.06486,91.392631   L 203.73153,92.592534   L 203.13154,93.592454   L 202.46488,94.459051   L 201.39822,95.258986   L 200.19823,95.725615   L 198.86491,96.058922   L 197.33159,96.125583   L 194.59828,95.725615   L 193.39829,95.258986   L 192.46496,94.459051   L 191.66497,93.659115   L 191.13164,92.592534   L 190.79831,91.392631   L 190.73165,89.926083   L 190.73165,76.527163  z " clip-path="url(#clipWmfPath1)" style="fill:#cccccc;fill-rule:evenodd;fill-opacity:1;stroke:none;"/>
  <path id="path22" d="  M 213.93144,94.92568   L 214.93143,92.525873   L 216.53142,93.459131   L 218.5314,93.792438   L 219.93139,93.525793   L 221.13138,92.85918   L 221.79804,91.925922   L 222.0647,90.659357   L 221.8647,89.859421   L 221.39804,88.926163   L 220.53138,88.059567   L 218.86473,87.126309   L 217.33141,86.326373   L 215.59809,85.393115   L 214.5981,84.193212   L 213.99811,82.726663   L 213.79811,81.060131   L 213.86477,80.060212   L 214.19811,79.193615   L 214.66477,78.327018   L 215.39809,77.527082   L 217.13141,76.460502   L 219.26473,76.060534   L 221.93137,76.327179   L 223.73135,77.060453   L 222.8647,79.326937   L 221.19804,78.660324   L 219.26473,78.327018   L 218.06474,78.527002   L 217.26474,79.060292   L 216.53142,79.99355   L 216.39809,81.060131   L 216.53142,82.393357   L 216.99808,82.993308   L 217.46474,83.393276   L 218.1314,83.926567   L 219.46473,84.726502   L 220.93138,85.526438   L 222.59803,86.459696   L 223.86469,87.72626   L 224.39802,89.126147   L 224.53135,90.926002   L 224.39802,91.925922   L 224.13135,92.925841   L 223.59802,93.792438   L 222.8647,94.592373   L 221.93137,95.258986   L 220.79805,95.792276   L 218.19807,96.125583   L 215.86476,95.858938   L 214.86477,95.525631   L 213.93144,94.92568  z " clip-path="url(#clipWmfPath1)" style="fill:#cccccc;fill-rule:evenodd;fill-opacity:1;stroke:none;"/>
  <path id="path24" d="  M 236.93124,78.993631   L 236.93124,84.193212   L 243.06452,84.193212   L 243.06452,86.526357   L 236.93124,86.526357   L 236.93124,93.459131   L 245.66449,93.459131   L 245.66449,95.858938   L 234.26459,95.858938   L 234.26459,76.527163   L 245.66449,76.527163   L 245.66449,78.993631   L 236.93124,78.993631  z " clip-path="url(#clipWmfPath1)" style="fill:#cccccc;fill-rule:evenodd;fill-opacity:1;stroke:none;"/>
  <path id="path26" d="  M 258.13105,79.260276   L 257.99772,78.860308   L 256.73106,79.126953   L 255.46441,78.92697   L 254.46442,78.260357   L 253.73109,77.260437   L 253.53109,75.927211   L 253.73109,74.593986   L 254.46442,73.527405   L 255.46441,72.727469   L 256.73106,72.527486   L 257.99772,72.727469   L 259.06438,73.527405   L 259.86437,74.593986   L 260.06437,75.927211   L 259.86437,77.260437   L 259.06438,78.260357   L 257.99772,78.92697   L 256.73106,79.126953   L 255.46441,78.860308   L 255.33107,79.260276   L 256.73106,79.526921   L 258.13105,79.193615   L 259.33104,78.527002   L 260.13103,77.39376   L 260.46436,75.927211   L 260.13103,74.460663   L 259.33104,73.26076   L 258.13105,72.460824   L 256.73106,72.127518   L 255.33107,72.460824   L 254.19775,73.26076   L 253.46442,74.460663   L 253.13109,75.927211   L 253.46442,77.39376   L 254.19775,78.527002   L 255.33107,79.193615   L 256.73106,79.526921   L 258.13105,79.260276  z " clip-path="url(#clipWmfPath1)" style="fill:#c0c0c0;fill-rule:nonzero;fill-opacity:1;stroke:#c0c0c0;stroke-width:0.066666074px;stroke-linecap:round;stroke-linejoin:round;stroke-miterlimit:4;stroke-dasharray:none;stroke-opacity:1;"/>
  <path id="path28" d="  M 258.06438,78.660324   L 256.59773,76.327179   L 255.93107,76.327179   L 255.93107,78.660324   L 255.26441,78.660324   L 255.26441,73.327421   L 255.79774,73.327421   L 256.4644,73.26076   L 257.99772,73.660728   L 258.33105,74.127357   L 258.46438,74.79397   L 258.06438,75.727228   L 257.39772,76.260518   L 258.93104,78.660324   L 258.06438,78.660324  z    M 255.93107,73.927373   L 255.93107,75.727228   L 256.33107,75.727228   L 256.99773,75.660566   L 257.39772,75.393921   L 257.73105,75.127276   L 257.79772,74.727308   L 257.73105,74.394002   L 257.39772,74.194018   L 256.93106,73.994034   L 256.2644,73.927373   L 255.93107,73.927373  z   " clip-path="url(#clipWmfPath1)" style="fill:#cccccc;fill-rule:evenodd;fill-opacity:1;stroke:none;"/>
  <path id="path30" d="  M 79.065967,77.060453   L 78.132642,79.326937   L 76.532656,78.726986   L 74.199344,78.460341   L 72.999354,78.593663   L 71.932697,78.993631   L 70.999372,79.660244   L 70.199379,80.660163   L 69.532718,81.860066   L 69.066056,83.193292   L 68.799391,84.659841   L 68.732725,86.326373   L 68.799391,87.926244   L 69.066056,89.326131   L 69.532718,90.592696   L 70.199379,91.725938   L 70.999372,92.592534   L 71.999363,93.259147   L 73.06602,93.659115   L 74.199344,93.792438   L 75.465999,93.659115   L 76.599322,93.325809   L 78.399307,91.85926   L 79.932626,93.792438   L 78.665971,94.859018   L 77.332649,95.592293   L 75.79933,95.99226   L 73.999345,96.125583   L 72.199361,95.99226   L 70.599376,95.525631   L 69.132722,94.659035   L 67.932732,93.459131   L 67.066073,91.992583   L 66.399413,90.326051   L 65.999416,88.326212   L 65.866084,86.19305   L 65.999416,84.12655   L 66.466079,82.193373   L 67.13274,80.526841   L 68.066065,78.993631   L 69.33272,77.727066   L 70.799374,76.86047   L 72.39936,76.327179   L 74.132678,76.127195   L 76.932653,76.393841   L 79.065967,77.060453  z " clip-path="url(#clipWmfPath1)" style="fill:#ffffff;fill-rule:evenodd;fill-opacity:1;stroke:none;"/>
  <path id="path32" d="  M 99.999115,95.792276   L 94.799161,87.592938   L 92.065852,87.459615   L 92.065852,95.792276   L 89.599207,95.792276   L 89.599207,76.727147   L 91.465858,76.660486   L 94.199167,76.260518   L 95.799153,76.327179   L 97.19914,76.593824   L 99.332455,77.727066   L 100.13245,78.527002   L 100.66578,79.526921   L 100.93244,80.660163   L 101.06577,81.993389   L 100.79911,83.659921   L 99.999115,85.193131   L 98.799126,86.459696   L 97.465805,87.059647   L 102.93242,95.792276   L 99.999115,95.792276  z    M 92.199184,78.92697   L 92.199184,85.326454   L 93.865836,85.459776   L 95.932485,85.326454   L 96.665812,85.059808   L 97.19914,84.659841   L 97.799135,84.259873   L 98.132465,83.659921   L 98.39913,81.926728   L 98.065799,80.526841   L 97.19914,79.660244   L 96.599146,79.326937   L 95.799153,79.060292   L 93.532506,78.793647   L 92.199184,78.92697  z   " clip-path="url(#clipWmfPath1)" style="fill:#ffffff;fill-rule:evenodd;fill-opacity:1;stroke:none;"/>
  <path id="path34" d="  M 110.66569,85.859744   L 110.79902,83.859905   L 111.19902,81.993389   L 111.86568,80.260195   L 112.799,78.793647   L 113.99899,77.593744   L 115.33231,76.727147   L 116.79897,76.260518   L 118.39895,76.060534   L 120.33227,76.193857   L 121.99892,76.660486   L 123.39891,77.460421   L 124.53223,78.593663   L 125.53222,80.060212   L 126.19888,81.726744   L 126.59888,83.659921   L 126.73221,85.859744   L 126.59888,88.059567   L 126.19888,90.059405   L 125.53222,91.725938   L 124.53223,93.259147   L 123.39891,94.459051   L 121.99892,95.325647   L 120.33227,95.792276   L 118.39895,95.99226   L 116.7323,95.792276   L 115.19898,95.325647   L 113.93233,94.392389   L 112.799,93.192486   L 111.86568,91.659276   L 111.19902,89.926083   L 110.79902,87.992905   L 110.66569,85.859744  z    M 113.599,85.993067   L 113.86566,89.059486   L 114.26566,90.326051   L 114.86565,91.459293   L 115.59898,92.459212   L 116.39897,93.125825   L 117.3323,93.525793   L 118.46562,93.659115   L 119.73227,93.525793   L 120.79893,93.125825   L 121.73226,92.525873   L 122.53225,91.592615   L 123.13224,90.526034   L 123.59891,89.25947   L 123.93224,87.72626   L 124.06557,85.993067   L 123.9989,84.193212   L 123.73224,82.660002   L 123.26558,81.393437   L 122.66558,80.326857   L 121.86559,79.46026   L 120.93226,78.860308   L 119.79894,78.527002   L 118.46562,78.393679   L 117.3323,78.527002   L 116.3323,78.92697   L 115.53231,79.593583   L 114.79898,80.460179   L 114.26566,81.593421   L 113.86566,82.859986   L 113.599,85.993067  z   " clip-path="url(#clipWmfPath1)" style="fill:#ffffff;fill-rule:evenodd;fill-opacity:1;stroke:none;"/>
  <path id="path36" d="  M 41.332968,95.858938   L 39.066321,83.526599   L 34.933024,96.058922   L 34.33303,96.058922   L 29.933069,83.526599   L 27.86642,95.858938   L 25.266443,95.858938   L 28.933077,76.593824   L 30.133067,76.593824   L 34.533028,90.592696   L 38.732991,76.593824   L 39.999646,76.593824   L 43.799613,95.858938   L 41.332968,95.858938  z " clip-path="url(#clipWmfPath1)" style="fill:#ffffff;fill-rule:evenodd;fill-opacity:1;stroke:none;"/>
  <path id="path38" d="  M 53.066197,95.858938   L 53.066197,76.527163   L 55.666174,76.527163   L 55.666174,95.858938   L 53.066197,95.858938  z " clip-path="url(#clipWmfPath1)" style="fill:#ffffff;fill-rule:evenodd;fill-opacity:1;stroke:none;"/>
  <path id="path40" d="  M 270.39761,63.99484   L 256.19773,63.99484   L 256.19773,59.795179   L 270.39761,59.795179   L 270.39761,63.99484  z " clip-path="url(#clipWmfPath1)" style="fill:#b2b2b2;fill-rule:nonzero;fill-opacity:1;stroke:none;"/>
  <path id="path42" d="  M 270.39761,63.99484   L 256.19773,63.99484   L 256.19773,59.795179   L 270.39761,59.795179   L 270.39761,63.99484  z " clip-path="url(#clipWmfPath1)" style="fill:none;stroke:#000000;stroke-width:0.066666074px;stroke-linecap:round;stroke-linejoin:round;stroke-miterlimit:4;stroke-dasharray:none;stroke-opacity:1;"/>
  <path id="path44" d="  M 270.39761,107.19136   L 256.19773,107.19136   L 256.19773,103.05836   L 270.39761,103.05836   L 270.39761,107.19136  z " clip-path="url(#clipWmfPath1)" style="fill:#b2b2b2;fill-rule:nonzero;fill-opacity:1;stroke:none;"/>
  <path id="path46" d="  M 270.39761,107.19136   L 256.19773,107.19136   L 256.19773,103.05836   L 270.39761,103.05836   L 270.39761,107.19136  z " clip-path="url(#clipWmfPath1)" style="fill:none;stroke:#000000;stroke-width:0.066666074px;stroke-linecap:round;stroke-linejoin:round;stroke-miterlimit:4;stroke-dasharray:none;stroke-opacity:1;"/>
  <path id="path48" d="  M 261.06436,63.99484   L 258.93104,63.99484   L 258.93104,62.261647   L 260.86436,62.261647   L 260.86436,60.995082   L 262.13101,60.995082   L 262.13101,66.461308   L 273.59758,66.461308   L 274.99757,66.727953   L 275.5309,66.994598   L 275.73089,67.261244   L 275.73089,98.792035   L 275.06423,99.525309   L 273.79758,99.791954   L 261.73102,99.791954   L 261.73102,105.12486   L 261.13102,105.12486   L 261.13102,103.79163   L 258.73104,103.79163   L 258.73104,101.99178   L 261.13102,101.99178   L 261.06436,63.99484  z " clip-path="url(#clipWmfPath1)" style="fill:#cccccc;fill-rule:nonzero;fill-opacity:1;stroke:none;"/>
  <path id="path50" d="  M 261.06436,63.99484   L 258.93104,63.99484   L 258.93104,62.261647   L 260.86436,62.261647   L 260.86436,60.995082   L 262.13101,60.995082   L 262.13101,66.461308   L 273.59758,66.461308   L 274.99757,66.727953   L 275.5309,66.994598   L 275.73089,67.261244   L 275.73089,98.792035   L 275.06423,99.525309   L 273.79758,99.791954   L 261.73102,99.791954   L 261.73102,105.12486   L 261.13102,105.12486   L 261.13102,103.79163   L 258.73104,103.79163   L 258.73104,101.99178   L 261.13102,101.99178   L 261.06436,63.99484  z " clip-path="url(#clipWmfPath1)" style="fill:none;stroke:#000000;stroke-width:0.066666074px;stroke-linecap:round;stroke-linejoin:round;stroke-miterlimit:4;stroke-dasharray:none;stroke-opacity:1;"/>
  <path id="path52" d="  M 262.53101,110.52442   L 257.93105,110.52442   L 257.93105,100.9252   L 235.66458,100.9252   L 235.66458,65.861356   L 257.99772,65.861356   L 258.06438,57.328711   L 262.53101,57.328711   L 262.53101,110.52442  z " clip-path="url(#clipWmfPath1)" style="fill:#666666;fill-rule:nonzero;fill-opacity:1;stroke:none;"/>
  <path id="path54" d="  M 262.53101,110.52442   L 257.93105,110.52442   L 257.93105,100.9252   L 235.66458,100.9252   L 235.66458,65.861356   L 257.99772,65.861356   L 258.06438,57.328711   L 262.53101,57.328711   L 262.53101,110.52442  z " clip-path="url(#clipWmfPath1)" style="fill:none;stroke:#000000;stroke-width:0.066666074px;stroke-linecap:round;stroke-linejoin:round;stroke-miterlimit:4;stroke-dasharray:none;stroke-opacity:1;"/>
  <path id="path56" d="  M 261.46435,110.3911   L 261.46435,57.395372   L 262.33101,57.395372   L 262.33101,110.3911   L 261.46435,110.3911  z " clip-path="url(#clipWmfPath1)" style="fill:#cccccc;fill-rule:evenodd;fill-opacity:1;stroke:none;"/>
  <path id="path58" d="  M 261.46435,110.3911   L 261.46435,57.395372   L 262.33101,57.395372   L 262.33101,110.3911   L 261.46435,110.3911  z " clip-path="url(#clipWmfPath1)" style="fill:none;stroke:#000000;stroke-width:0.066666074px;stroke-linecap:round;stroke-linejoin:round;stroke-miterlimit:4;stroke-dasharray:none;stroke-opacity:1;"/>
  <path id="path60" d="  M 262.26435,77.260437   L 263.26434,77.39376   L 264.06433,77.860389   L 264.66433,78.527002   L 264.86432,79.260276   L 264.86432,88.72618   L 264.66433,89.459454   L 264.06433,90.059405   L 263.26434,90.392712   L 262.26435,90.526034   L 249.13113,90.526034   L 248.13114,90.392712   L 247.33115,89.926083   L 246.73115,89.25947   L 246.53115,88.526196   L 246.53115,79.126953   L 246.73115,78.393679   L 247.33115,77.793728   L 248.13114,77.39376   L 249.13113,77.260437   L 262.26435,77.260437  z " clip-path="url(#clipWmfPath1)" style="fill:#ffffff;fill-rule:nonzero;fill-opacity:1;stroke:none;"/>
  <path id="path62" d="  M 249.13113,76.727147   L 249.13113,77.793728   L 262.19768,77.793728   L 263.06434,77.860389   L 263.731,78.260357   L 264.19766,78.793647   L 264.331,79.326937   L 264.331,88.659518   L 264.19766,89.192809   L 263.79767,89.659438   L 263.13101,89.926083   L 262.19768,89.992744   L 249.1978,89.992744   L 248.33114,89.926083   L 247.66448,89.526115   L 247.19781,88.992825   L 247.06448,88.459534   L 247.06448,79.193615   L 247.19781,78.660324   L 247.59781,78.193695   L 248.26447,77.860389   L 249.1978,77.793728   L 262.19768,77.793728   L 263.19767,77.92705   L 263.331,76.86047   L 262.33101,76.727147   L 249.06446,76.727147   L 247.99781,76.927131   L 246.99782,77.39376   L 246.26449,78.127034   L 245.99782,79.060292   L 245.99782,88.592857   L 246.26449,89.526115   L 246.99782,90.326051   L 247.93114,90.859341   L 249.06446,91.059325   L 262.33101,91.059325   L 263.39767,90.859341   L 264.331,90.459373   L 265.13099,89.726099   L 265.39765,88.792841   L 265.39765,79.193615   L 265.13099,78.260357   L 264.39766,77.460421   L 263.46434,76.927131   L 262.33101,76.727147   L 249.13113,76.727147  z " clip-path="url(#clipWmfPath1)" style="fill:#000000;fill-rule:nonzero;fill-opacity:1;stroke:#000000;stroke-width:0.066666074px;stroke-linecap:round;stroke-linejoin:round;stroke-miterlimit:4;stroke-dasharray:none;stroke-opacity:1;"/>
  <path id="path64" d="  M 269.93095,119.857   L 255.73107,119.857   L 255.73107,115.65734   L 269.93095,115.65734   L 269.93095,119.857  z " clip-path="url(#clipWmfPath1)" style="fill:#b2b2b2;fill-rule:nonzero;fill-opacity:1;stroke:none;"/>
  <path id="path66" d="  M 269.93095,119.857   L 255.73107,119.857   L 255.73107,115.65734   L 269.93095,115.65734   L 269.93095,119.857  z " clip-path="url(#clipWmfPath1)" style="fill:none;stroke:#000000;stroke-width:0.066666074px;stroke-linecap:round;stroke-linejoin:round;stroke-miterlimit:4;stroke-dasharray:none;stroke-opacity:1;"/>
  <path id="path68" d="  M 269.93095,163.05352   L 255.73107,163.05352   L 255.73107,158.92052   L 269.93095,158.92052   L 269.93095,163.05352  z " clip-path="url(#clipWmfPath1)" style="fill:#b2b2b2;fill-rule:nonzero;fill-opacity:1;stroke:none;"/>
  <path id="path70" d="  M 269.93095,163.05352   L 255.73107,163.05352   L 255.73107,158.92052   L 269.93095,158.92052   L 269.93095,163.05352  z " clip-path="url(#clipWmfPath1)" style="fill:none;stroke:#000000;stroke-width:0.066666074px;stroke-linecap:round;stroke-linejoin:round;stroke-miterlimit:4;stroke-dasharray:none;stroke-opacity:1;"/>
  <path id="path72" d="  M 260.59769,119.857   L 258.46438,119.857   L 258.46438,118.12381   L 260.3977,118.12381   L 260.3977,116.85724   L 261.66435,116.85724   L 261.66435,122.32347   L 273.13092,122.32347   L 274.53091,122.59012   L 275.06423,122.85676   L 275.26423,123.12341   L 275.26423,154.6542   L 274.59757,155.38747   L 273.33092,155.65412   L 261.26436,155.65412   L 261.26436,160.98702   L 260.66436,160.98702   L 260.66436,159.65379   L 258.26438,159.65379   L 258.26438,157.85394   L 260.66436,157.85394   L 260.59769,119.857  z " clip-path="url(#clipWmfPath1)" style="fill:#cccccc;fill-rule:nonzero;fill-opacity:1;stroke:none;"/>
  <path id="path74" d="  M 260.59769,119.857   L 258.46438,119.857   L 258.46438,118.12381   L 260.3977,118.12381   L 260.3977,116.85724   L 261.66435,116.85724   L 261.66435,122.32347   L 273.13092,122.32347   L 274.53091,122.59012   L 275.06423,122.85676   L 275.26423,123.12341   L 275.26423,154.6542   L 274.59757,155.38747   L 273.33092,155.65412   L 261.26436,155.65412   L 261.26436,160.98702   L 260.66436,160.98702   L 260.66436,159.65379   L 258.26438,159.65379   L 258.26438,157.85394   L 260.66436,157.85394   L 260.59769,119.857  z " clip-path="url(#clipWmfPath1)" style="fill:none;stroke:#000000;stroke-width:0.066666074px;stroke-linecap:round;stroke-linejoin:round;stroke-miterlimit:4;stroke-dasharray:none;stroke-opacity:1;"/>
  <path id="path76" d="  M 262.06435,166.38658   L 257.46439,166.38658   L 257.46439,156.78736   L 235.19792,156.78736   L 235.19792,121.72352   L 257.53106,121.72352   L 257.59772,113.19087   L 262.06435,113.19087   L 262.06435,166.38658  z " clip-path="url(#clipWmfPath1)" style="fill:#666666;fill-rule:nonzero;fill-opacity:1;stroke:none;"/>
  <path id="path78" d="  M 262.06435,166.38658   L 257.46439,166.38658   L 257.46439,156.78736   L 235.19792,156.78736   L 235.19792,121.72352   L 257.53106,121.72352   L 257.59772,113.19087   L 262.06435,113.19087   L 262.06435,166.38658  z " clip-path="url(#clipWmfPath1)" style="fill:none;stroke:#000000;stroke-width:0.066666074px;stroke-linecap:round;stroke-linejoin:round;stroke-miterlimit:4;stroke-dasharray:none;stroke-opacity:1;"/>
  <path id="path80" d="  M 260.99769,166.25326   L 260.99769,113.25753   L 261.86435,113.25753   L 261.86435,166.25326   L 260.99769,166.25326  z " clip-path="url(#clipWmfPath1)" style="fill:#cccccc;fill-rule:evenodd;fill-opacity:1;stroke:none;"/>
  <path id="path82" d="  M 260.99769,166.25326   L 260.99769,113.25753   L 261.86435,113.25753   L 261.86435,166.25326   L 260.99769,166.25326  z " clip-path="url(#clipWmfPath1)" style="fill:none;stroke:#000000;stroke-width:0.066666074px;stroke-linecap:round;stroke-linejoin:round;stroke-miterlimit:4;stroke-dasharray:none;stroke-opacity:1;"/>
  <path id="path84" d="  M 261.79768,133.1226   L 262.79768,133.25592   L 263.59767,133.72255   L 264.19766,134.38916   L 264.39766,135.12244   L 264.39766,144.58834   L 264.19766,145.32162   L 263.59767,145.92157   L 262.79768,146.25487   L 261.79768,146.3882   L 248.66447,146.3882   L 247.66448,146.25487   L 246.86448,145.78825   L 246.26449,145.12163   L 246.06449,144.38836   L 246.06449,134.98912   L 246.26449,134.25584   L 246.86448,133.65589   L 247.66448,133.25592   L 248.66447,133.1226   L 261.79768,133.1226  z " clip-path="url(#clipWmfPath1)" style="fill:#ffffff;fill-rule:nonzero;fill-opacity:1;stroke:none;"/>
  <path id="path86" d="  M 248.66447,132.58931   L 248.66447,133.65589   L 261.73102,133.65589   L 262.59768,133.72255   L 263.26434,134.12252   L 263.731,134.65581   L 263.86433,135.1891   L 263.86433,144.52168   L 263.731,145.05497   L 263.331,145.5216   L 262.66434,145.78825   L 261.73102,145.85491   L 248.73113,145.85491   L 247.86447,145.78825   L 247.19781,145.38828   L 246.73115,144.85499   L 246.59782,144.3217   L 246.59782,135.05578   L 246.73115,134.52249   L 247.13115,134.05586   L 247.79781,133.72255   L 248.73113,133.65589   L 261.73102,133.65589   L 262.73101,133.78921   L 262.86434,132.72263   L 261.86435,132.58931   L 248.5978,132.58931   L 247.53114,132.78929   L 246.53115,133.25592   L 245.79783,133.9892   L 245.53116,134.92245   L 245.53116,144.45502   L 245.79783,145.38828   L 246.53115,146.18821   L 247.46448,146.7215   L 248.5978,146.92149   L 261.86435,146.92149   L 262.93101,146.7215   L 263.86433,146.32154   L 264.66433,145.58826   L 264.93099,144.655   L 264.93099,135.05578   L 264.66433,134.12252   L 263.931,133.32258   L 262.99767,132.78929   L 261.86435,132.58931   L 248.66447,132.58931  z " clip-path="url(#clipWmfPath1)" style="fill:#000000;fill-rule:nonzero;fill-opacity:1;stroke:#000000;stroke-width:0.066666074px;stroke-linecap:round;stroke-linejoin:round;stroke-miterlimit:4;stroke-dasharray:none;stroke-opacity:1;"/>
  <path id="path88" d="  M 112.799,141.32194   L 112.799,150.98783   L 79.53263,150.98783   L 79.53263,141.32194   L 112.799,141.32194  z " clip-path="url(#clipWmfPath1)" style="fill:#bfbfbf;fill-rule:nonzero;fill-opacity:1;stroke:none;"/>
  <path id="path90" d="  M 112.799,141.32194   L 112.799,150.98783   L 79.53263,150.98783   L 79.53263,141.32194   L 112.799,141.32194  z " clip-path="url(#clipWmfPath1)" style="fill:none;stroke:#000000;stroke-width:0.066666074px;stroke-linecap:round;stroke-linejoin:round;stroke-miterlimit:4;stroke-dasharray:none;stroke-opacity:1;"/>
  <path id="path92" d="  M 92.932511,147.18813   L 92.932511,149.92125   L 90.199202,149.92125   L 90.199202,147.18813   L 92.932511,147.18813  z " clip-path="url(#clipWmfPath1)" style="fill:#000000;fill-rule:nonzero;fill-opacity:1;stroke:none;"/>
  <path id="path94" d="  M 92.932511,147.18813   L 92.932511,149.92125   L 90.199202,149.92125   L 90.199202,147.18813   L 92.932511,147.18813  z " clip-path="url(#clipWmfPath1)" style="fill:none;stroke:#000000;stroke-width:0.066666074px;stroke-linecap:round;stroke-linejoin:round;stroke-miterlimit:4;stroke-dasharray:none;stroke-opacity:1;"/>
  <path id="path96" d="  M 88.332552,147.18813   L 88.332552,149.92125   L 85.599243,149.92125   L 85.599243,147.18813   L 88.332552,147.18813  z " clip-path="url(#clipWmfPath1)" style="fill:#000000;fill-rule:nonzero;fill-opacity:1;stroke:none;"/>
  <path id="path98" d="  M 88.332552,147.18813   L 88.332552,149.92125   L 85.599243,149.92125   L 85.599243,147.18813   L 88.332552,147.18813  z " clip-path="url(#clipWmfPath1)" style="fill:none;stroke:#000000;stroke-width:0.066666074px;stroke-linecap:round;stroke-linejoin:round;stroke-miterlimit:4;stroke-dasharray:none;stroke-opacity:1;"/>
  <path id="path100" d="  M 83.599261,147.18813   L 83.599261,149.92125   L 80.865951,149.92125   L 80.865951,147.18813   L 83.599261,147.18813  z " clip-path="url(#clipWmfPath1)" style="fill:#000000;fill-rule:nonzero;fill-opacity:1;stroke:none;"/>
  <path id="path102" d="  M 83.599261,147.18813   L 83.599261,149.92125   L 80.865951,149.92125   L 80.865951,147.18813   L 83.599261,147.18813  z " clip-path="url(#clipWmfPath1)" style="fill:none;stroke:#000000;stroke-width:0.066666074px;stroke-linecap:round;stroke-linejoin:round;stroke-miterlimit:4;stroke-dasharray:none;stroke-opacity:1;"/>
  <path id="path104" d="  M 102.1991,147.18813   L 102.1991,149.92125   L 99.465787,149.92125   L 99.465787,147.18813   L 102.1991,147.18813  z " clip-path="url(#clipWmfPath1)" style="fill:#000000;fill-rule:nonzero;fill-opacity:1;stroke:none;"/>
  <path id="path106" d="  M 102.1991,147.18813   L 102.1991,149.92125   L 99.465787,149.92125   L 99.465787,147.18813   L 102.1991,147.18813  z " clip-path="url(#clipWmfPath1)" style="fill:none;stroke:#000000;stroke-width:0.066666074px;stroke-linecap:round;stroke-linejoin:round;stroke-miterlimit:4;stroke-dasharray:none;stroke-opacity:1;"/>
  <path id="path108" d="  M 97.599137,147.18813   L 97.599137,149.92125   L 94.865828,149.92125   L 94.865828,147.18813   L 97.599137,147.18813  z " clip-path="url(#clipWmfPath1)" style="fill:#000000;fill-rule:nonzero;fill-opacity:1;stroke:none;"/>
  <path id="path110" d="  M 97.599137,147.18813   L 97.599137,149.92125   L 94.865828,149.92125   L 94.865828,147.18813   L 97.599137,147.18813  z " clip-path="url(#clipWmfPath1)" style="fill:none;stroke:#000000;stroke-width:0.066666074px;stroke-linecap:round;stroke-linejoin:round;stroke-miterlimit:4;stroke-dasharray:none;stroke-opacity:1;"/>
  <path id="path112" d="  M 92.932511,142.52184   L 92.932511,145.25496   L 90.199202,145.25496   L 90.199202,142.52184   L 92.932511,142.52184  z " clip-path="url(#clipWmfPath1)" style="fill:#000000;fill-rule:nonzero;fill-opacity:1;stroke:none;"/>
  <path id="path114" d="  M 92.932511,142.52184   L 92.932511,145.25496   L 90.199202,145.25496   L 90.199202,142.52184   L 92.932511,142.52184  z " clip-path="url(#clipWmfPath1)" style="fill:none;stroke:#000000;stroke-width:0.066666074px;stroke-linecap:round;stroke-linejoin:round;stroke-miterlimit:4;stroke-dasharray:none;stroke-opacity:1;"/>
  <path id="path116" d="  M 88.332552,142.52184   L 88.332552,145.25496   L 85.599243,145.25496   L 85.599243,142.52184   L 88.332552,142.52184  z " clip-path="url(#clipWmfPath1)" style="fill:#000000;fill-rule:nonzero;fill-opacity:1;stroke:none;"/>
  <path id="path118" d="  M 88.332552,142.52184   L 88.332552,145.25496   L 85.599243,145.25496   L 85.599243,142.52184   L 88.332552,142.52184  z " clip-path="url(#clipWmfPath1)" style="fill:none;stroke:#000000;stroke-width:0.066666074px;stroke-linecap:round;stroke-linejoin:round;stroke-miterlimit:4;stroke-dasharray:none;stroke-opacity:1;"/>
  <path id="path120" d="  M 83.599261,142.52184   L 83.599261,145.25496   L 80.865951,145.25496   L 80.865951,142.52184   L 83.599261,142.52184  z " clip-path="url(#clipWmfPath1)" style="fill:#000000;fill-rule:nonzero;fill-opacity:1;stroke:none;"/>
  <path id="path122" d="  M 83.599261,142.52184   L 83.599261,145.25496   L 80.865951,145.25496   L 80.865951,142.52184   L 83.599261,142.52184  z " clip-path="url(#clipWmfPath1)" style="fill:none;stroke:#000000;stroke-width:0.066666074px;stroke-linecap:round;stroke-linejoin:round;stroke-miterlimit:4;stroke-dasharray:none;stroke-opacity:1;"/>
  <path id="path124" d="  M 102.1991,142.52184   L 102.1991,145.25496   L 99.465787,145.25496   L 99.465787,142.52184   L 102.1991,142.52184  z " clip-path="url(#clipWmfPath1)" style="fill:#000000;fill-rule:nonzero;fill-opacity:1;stroke:none;"/>
  <path id="path126" d="  M 102.1991,142.52184   L 102.1991,145.25496   L 99.465787,145.25496   L 99.465787,142.52184   L 102.1991,142.52184  z " clip-path="url(#clipWmfPath1)" style="fill:none;stroke:#000000;stroke-width:0.066666074px;stroke-linecap:round;stroke-linejoin:round;stroke-miterlimit:4;stroke-dasharray:none;stroke-opacity:1;"/>
  <path id="path128" d="  M 97.599137,142.52184   L 97.599137,145.25496   L 94.865828,145.25496   L 94.865828,142.52184   L 97.599137,142.52184  z " clip-path="url(#clipWmfPath1)" style="fill:#000000;fill-rule:nonzero;fill-opacity:1;stroke:none;"/>
  <path id="path130" d="  M 97.599137,142.52184   L 97.599137,145.25496   L 94.865828,145.25496   L 94.865828,142.52184   L 97.599137,142.52184  z " clip-path="url(#clipWmfPath1)" style="fill:none;stroke:#000000;stroke-width:0.066666074px;stroke-linecap:round;stroke-linejoin:round;stroke-miterlimit:4;stroke-dasharray:none;stroke-opacity:1;"/>
  <path id="path132" d="  M 111.46568,147.18813   L 111.46568,149.92125   L 108.73237,149.92125   L 108.73237,147.18813   L 111.46568,147.18813  z " clip-path="url(#clipWmfPath1)" style="fill:#000000;fill-rule:nonzero;fill-opacity:1;stroke:none;"/>
  <path id="path134" d="  M 111.46568,147.18813   L 111.46568,149.92125   L 108.73237,149.92125   L 108.73237,147.18813   L 111.46568,147.18813  z " clip-path="url(#clipWmfPath1)" style="fill:none;stroke:#000000;stroke-width:0.066666074px;stroke-linecap:round;stroke-linejoin:round;stroke-miterlimit:4;stroke-dasharray:none;stroke-opacity:1;"/>
  <path id="path136" d="  M 106.86572,147.18813   L 106.86572,149.92125   L 104.13241,149.92125   L 104.13241,147.18813   L 106.86572,147.18813  z " clip-path="url(#clipWmfPath1)" style="fill:#000000;fill-rule:nonzero;fill-opacity:1;stroke:none;"/>
  <path id="path138" d="  M 106.86572,147.18813   L 106.86572,149.92125   L 104.13241,149.92125   L 104.13241,147.18813   L 106.86572,147.18813  z " clip-path="url(#clipWmfPath1)" style="fill:none;stroke:#000000;stroke-width:0.066666074px;stroke-linecap:round;stroke-linejoin:round;stroke-miterlimit:4;stroke-dasharray:none;stroke-opacity:1;"/>
  <path id="path140" d="  M 111.46568,142.52184   L 111.46568,145.25496   L 108.73237,145.25496   L 108.73237,142.52184   L 111.46568,142.52184  z " clip-path="url(#clipWmfPath1)" style="fill:#000000;fill-rule:nonzero;fill-opacity:1;stroke:none;"/>
  <path id="path142" d="  M 111.46568,142.52184   L 111.46568,145.25496   L 108.73237,145.25496   L 108.73237,142.52184   L 111.46568,142.52184  z " clip-path="url(#clipWmfPath1)" style="fill:none;stroke:#000000;stroke-width:0.066666074px;stroke-linecap:round;stroke-linejoin:round;stroke-miterlimit:4;stroke-dasharray:none;stroke-opacity:1;"/>
  <path id="path144" d="  M 106.86572,142.52184   L 106.86572,145.25496   L 104.13241,145.25496   L 104.13241,142.52184   L 106.86572,142.52184  z " clip-path="url(#clipWmfPath1)" style="fill:#000000;fill-rule:nonzero;fill-opacity:1;stroke:none;"/>
  <path id="path146" d="  M 106.86572,142.52184   L 106.86572,145.25496   L 104.13241,145.25496   L 104.13241,142.52184   L 106.86572,142.52184  z " clip-path="url(#clipWmfPath1)" style="fill:none;stroke:#000000;stroke-width:0.066666074px;stroke-linecap:round;stroke-linejoin:round;stroke-miterlimit:4;stroke-dasharray:none;stroke-opacity:1;"/>
  <path id="path148" d="  M 274.79757,46.262937   L 274.79757,49.062711   L 274.9309,49.795985   L 275.39756,50.329275   L 275.99756,50.595921   L 276.73089,50.729243   L 291.79742,50.729243   L 292.53075,50.595921   L 293.19741,50.195953   L 293.5974,49.596001   L 293.73074,48.862727   L 293.73074,39.396824   L 293.5974,38.663549   L 293.19741,38.130259   L 292.53075,37.730291   L 291.79742,37.596969   L 276.73089,37.596969   L 275.99756,37.796953   L 275.39756,38.263582   L 274.9309,38.863533   L 274.79757,39.663469   L 274.79757,42.196598   L 262.73101,44.196437   L 274.79757,46.262937  z " clip-path="url(#clipWmfPath1)" style="fill:#ffffff;fill-rule:nonzero;fill-opacity:1;stroke:none;"/>
  <path id="path150" d="  M 262.79768,43.729807   L 262.19768,44.129775   L 262.66434,44.663066   L 274.26424,46.662904   L 274.26424,49.129372   L 274.46424,49.995969   L 275.06423,50.729243   L 275.86423,51.06255   L 276.66422,51.262533   L 291.86409,51.262533   L 292.73074,51.06255   L 293.53074,50.595921   L 294.06407,49.795985   L 294.26406,48.929388   L 294.26406,39.330162   L 294.06407,38.463565   L 293.53074,37.730291   L 292.73074,37.263662   L 291.86409,37.063678   L 276.66422,37.063678   L 275.79756,37.330323   L 275.06423,37.930275   L 274.46424,38.663549   L 274.26424,39.596807   L 274.26424,41.79663   L 262.66434,43.729807   L 262.66434,44.663066   L 274.26424,46.662904   L 274.26424,49.062711   L 274.79757,49.596001   L 275.3309,49.062711   L 275.3309,45.862969   L 265.79765,44.196437   L 275.3309,42.596566   L 275.3309,39.73013   L 275.39756,39.063517   L 275.73089,38.596888   L 276.19756,38.263582   L 276.79755,38.130259   L 291.73075,38.130259   L 292.33075,38.19692   L 292.86408,38.530227   L 293.13074,38.863533   L 293.19741,39.463485   L 293.19741,48.796066   L 293.13074,49.396017   L 292.86408,49.795985   L 292.33075,50.129292   L 291.73075,50.195953   L 276.79755,50.195953   L 276.13089,50.129292   L 275.73089,49.929308   L 275.39756,49.596001   L 275.3309,48.99605   L 275.3309,45.862969   L 262.79768,43.729807  z " clip-path="url(#clipWmfPath1)" style="fill:#000000;fill-rule:nonzero;fill-opacity:1;stroke:#000000;stroke-width:0.066666074px;stroke-linecap:round;stroke-linejoin:round;stroke-miterlimit:4;stroke-dasharray:none;stroke-opacity:1;"/>
  <g id="g152" clip-path="url(#clipWmfPath1)"/>
  <g id="g162" clip-path="url(#clipWmfPath1)">
    <text id="text160" y="0.000000" x="0.000000" transform="matrix(1.000000,-0.000000,0.000000,1.000000,248.597801,144.055052) rotate(180,5.56292724609375, 0.5)" style="font-size:10.687500px;font-style:normal;font-variant:normal;font-weight:400;font-stretch:Condensed;line-height:125.000000%;letter-spacing:0px;word-spacing:0px;fill:#000000;fill-opacity:1;stroke:none;font-family:Helvetica-Narrow;text-align:start;text-anchor:start;" xml:space="preserve"><tspan id="tspan158" y="0.000000" x="0.000000"><tspan id="tspan154" style="fill:#000000;font-size:10.687500px;font-style:normal;font-variant:normal;font-weight:400;font-stretch:Condensed;font-family:Helvetica-Narrow;" dy="0.000000" dx="0.000000">P</tspan><tspan id="tspan156" style="fill:#000000;font-size:10.687500px;font-style:normal;font-variant:normal;font-weight:400;font-stretch:Condensed;font-family:Helvetica-Narrow;" dy="0.000000" dx="0.081544">2</tspan></tspan></text>
  </g>
  <g id="g164" clip-path="url(#clipWmfPath1)"/>
  <g id="g174" clip-path="url(#clipWmfPath1)">
    <text id="text172" y="0.000000" x="0.000000" transform="matrix(1.000000,-0.000000,0.000000,1.000000,249.064464,87.792921) rotate(180,5.6699066162109375, 0.5)" style="font-size:10.687500px;font-style:normal;font-variant:normal;font-weight:400;font-stretch:Condensed;line-height:125.000000%;letter-spacing:0px;word-spacing:0px;fill:#000000;fill-opacity:1;stroke:none;font-family:Helvetica-Narrow;text-align:start;text-anchor:start;" xml:space="preserve"><tspan id="tspan170" y="0.000000" x="0.000000"><tspan id="tspan166" style="fill:#000000;font-size:10.687500px;font-style:normal;font-variant:normal;font-weight:400;font-stretch:Condensed;font-family:Helvetica-Narrow;" dy="0.000000" dx="0.000000">P</tspan><tspan id="tspan168" style="fill:#000000;font-size:10.687500px;font-style:normal;font-variant:normal;font-weight:400;font-stretch:Condensed;font-family:Helvetica-Narrow;" dy="0.000000" dx="2.553863">3</tspan></tspan></text>
  </g>
  <g id="g176" clip-path="url(#clipWmfPath1)"/>
  <g id="g186" clip-path="url(#clipWmfPath1)">
    <text id="text184" y="0.000000" x="0.000000" transform="matrix(1.000000,-0.000000,0.000000,1.000000,278.197539,48.329437) rotate(180,6.6509857177734375, 0.5)" style="font-size:10.687500px;font-style:normal;font-variant:normal;font-weight:400;font-stretch:Condensed;line-height:125.000000%;letter-spacing:0px;word-spacing:0px;fill:#000000;fill-opacity:1;stroke:none;font-family:Helvetica-Narrow;text-align:start;text-anchor:start;" xml:space="preserve"><tspan id="tspan182" y="0.000000" x="0.000000"><tspan id="tspan178" style="fill:#000000;font-size:10.687500px;font-style:normal;font-variant:normal;font-weight:400;font-stretch:Condensed;font-family:Helvetica-Narrow;" dy="0.000000" dx="0.000000">J</tspan><tspan id="tspan180" style="fill:#000000;font-size:10.687500px;font-style:normal;font-variant:normal;font-weight:400;font-stretch:Condensed;font-family:Helvetica-Narrow;" dy="0.000000" dx="-0.161572"> 4</tspan></tspan></text>
  </g>
  <path id="path188" d="  M 172.39848,65.194743   L 172.39848,55.528856   L 196.53159,55.528856   L 196.53159,65.194743   L 172.39848,65.194743  z " clip-path="url(#clipWmfPath1)" style="fill:#bfbfbf;fill-rule:nonzero;fill-opacity:1;stroke:none;"/>
  <path id="path190" d="  M 172.39848,65.194743   L 172.39848,55.528856   L 196.53159,55.528856   L 196.53159,65.194743   L 172.39848,65.194743  z " clip-path="url(#clipWmfPath1)" style="fill:none;stroke:#000000;stroke-width:0.066666074px;stroke-linecap:round;stroke-linejoin:round;stroke-miterlimit:4;stroke-dasharray:none;stroke-opacity:1;"/>
  <path id="path192" d="  M 183.19838,59.395211   L 183.19838,56.662098   L 185.93169,56.662098   L 185.93169,59.395211   L 183.19838,59.395211  z " clip-path="url(#clipWmfPath1)" style="fill:#000000;fill-rule:nonzero;fill-opacity:1;stroke:none;"/>
  <path id="path194" d="  M 183.19838,59.395211   L 183.19838,56.662098   L 185.93169,56.662098   L 185.93169,59.395211   L 183.19838,59.395211  z " clip-path="url(#clipWmfPath1)" style="fill:none;stroke:#000000;stroke-width:0.066666074px;stroke-linecap:round;stroke-linejoin:round;stroke-miterlimit:4;stroke-dasharray:none;stroke-opacity:1;"/>
  <path id="path196" d="  M 187.79834,59.395211   L 187.79834,56.662098   L 190.53165,56.662098   L 190.53165,59.395211   L 187.79834,59.395211  z " clip-path="url(#clipWmfPath1)" style="fill:#000000;fill-rule:nonzero;fill-opacity:1;stroke:none;"/>
  <path id="path198" d="  M 187.79834,59.395211   L 187.79834,56.662098   L 190.53165,56.662098   L 190.53165,59.395211   L 187.79834,59.395211  z " clip-path="url(#clipWmfPath1)" style="fill:none;stroke:#000000;stroke-width:0.066666074px;stroke-linecap:round;stroke-linejoin:round;stroke-miterlimit:4;stroke-dasharray:none;stroke-opacity:1;"/>
  <path id="path200" d="  M 192.53163,59.395211   L 192.53163,56.662098   L 195.26494,56.662098   L 195.26494,59.395211   L 192.53163,59.395211  z " clip-path="url(#clipWmfPath1)" style="fill:#000000;fill-rule:nonzero;fill-opacity:1;stroke:none;"/>
  <path id="path202" d="  M 192.53163,59.395211   L 192.53163,56.662098   L 195.26494,56.662098   L 195.26494,59.395211   L 192.53163,59.395211  z " clip-path="url(#clipWmfPath1)" style="fill:none;stroke:#000000;stroke-width:0.066666074px;stroke-linecap:round;stroke-linejoin:round;stroke-miterlimit:4;stroke-dasharray:none;stroke-opacity:1;"/>
  <path id="path204" d="  M 173.93179,59.395211   L 173.93179,56.662098   L 176.6651,56.662098   L 176.6651,59.395211   L 173.93179,59.395211  z " clip-path="url(#clipWmfPath1)" style="fill:#000000;fill-rule:nonzero;fill-opacity:1;stroke:none;"/>
  <path id="path206" d="  M 173.93179,59.395211   L 173.93179,56.662098   L 176.6651,56.662098   L 176.6651,59.395211   L 173.93179,59.395211  z " clip-path="url(#clipWmfPath1)" style="fill:none;stroke:#000000;stroke-width:0.066666074px;stroke-linecap:round;stroke-linejoin:round;stroke-miterlimit:4;stroke-dasharray:none;stroke-opacity:1;"/>
  <path id="path208" d="  M 178.53175,59.395211   L 178.53175,56.662098   L 181.26506,56.662098   L 181.26506,59.395211   L 178.53175,59.395211  z " clip-path="url(#clipWmfPath1)" style="fill:#000000;fill-rule:nonzero;fill-opacity:1;stroke:none;"/>
  <path id="path210" d="  M 178.53175,59.395211   L 178.53175,56.662098   L 181.26506,56.662098   L 181.26506,59.395211   L 178.53175,59.395211  z " clip-path="url(#clipWmfPath1)" style="fill:none;stroke:#000000;stroke-width:0.066666074px;stroke-linecap:round;stroke-linejoin:round;stroke-miterlimit:4;stroke-dasharray:none;stroke-opacity:1;"/>
  <path id="path212" d="  M 183.19838,64.061502   L 183.19838,61.328389   L 185.93169,61.328389   L 185.93169,64.061502   L 183.19838,64.061502  z " clip-path="url(#clipWmfPath1)" style="fill:#000000;fill-rule:nonzero;fill-opacity:1;stroke:none;"/>
  <path id="path214" d="  M 183.19838,64.061502   L 183.19838,61.328389   L 185.93169,61.328389   L 185.93169,64.061502   L 183.19838,64.061502  z " clip-path="url(#clipWmfPath1)" style="fill:none;stroke:#000000;stroke-width:0.066666074px;stroke-linecap:round;stroke-linejoin:round;stroke-miterlimit:4;stroke-dasharray:none;stroke-opacity:1;"/>
  <path id="path216" d="  M 187.79834,64.061502   L 187.79834,61.328389   L 190.53165,61.328389   L 190.53165,64.061502   L 187.79834,64.061502  z " clip-path="url(#clipWmfPath1)" style="fill:#000000;fill-rule:nonzero;fill-opacity:1;stroke:none;"/>
  <path id="path218" d="  M 187.79834,64.061502   L 187.79834,61.328389   L 190.53165,61.328389   L 190.53165,64.061502   L 187.79834,64.061502  z " clip-path="url(#clipWmfPath1)" style="fill:none;stroke:#000000;stroke-width:0.066666074px;stroke-linecap:round;stroke-linejoin:round;stroke-miterlimit:4;stroke-dasharray:none;stroke-opacity:1;"/>
  <path id="path220" d="  M 192.53163,64.061502   L 192.53163,61.328389   L 195.26494,61.328389   L 195.26494,64.061502   L 192.53163,64.061502  z " clip-path="url(#clipWmfPath1)" style="fill:#000000;fill-rule:nonzero;fill-opacity:1;stroke:none;"/>
  <path id="path222" d="  M 192.53163,64.061502   L 192.53163,61.328389   L 195.26494,61.328389   L 195.26494,64.061502   L 192.53163,64.061502  z " clip-path="url(#clipWmfPath1)" style="fill:none;stroke:#000000;stroke-width:0.066666074px;stroke-linecap:round;stroke-linejoin:round;stroke-miterlimit:4;stroke-dasharray:none;stroke-opacity:1;"/>
  <path id="path224" d="  M 173.93179,64.061502   L 173.93179,61.328389   L 176.6651,61.328389   L 176.6651,64.061502   L 173.93179,64.061502  z " clip-path="url(#clipWmfPath1)" style="fill:#000000;fill-rule:nonzero;fill-opacity:1;stroke:none;"/>
  <path id="path226" d="  M 173.93179,64.061502   L 173.93179,61.328389   L 176.6651,61.328389   L 176.6651,64.061502   L 173.93179,64.061502  z " clip-path="url(#clipWmfPath1)" style="fill:none;stroke:#000000;stroke-width:0.066666074px;stroke-linecap:round;stroke-linejoin:round;stroke-miterlimit:4;stroke-dasharray:none;stroke-opacity:1;"/>
  <path id="path228" d="  M 178.53175,64.061502   L 178.53175,61.328389   L 181.26506,61.328389   L 181.26506,64.061502   L 178.53175,64.061502  z " clip-path="url(#clipWmfPath1)" style="fill:#000000;fill-rule:nonzero;fill-opacity:1;stroke:none;"/>
  <path id="path230" d="  M 178.53175,64.061502   L 178.53175,61.328389   L 181.26506,61.328389   L 181.26506,64.061502   L 178.53175,64.061502  z " clip-path="url(#clipWmfPath1)" style="fill:none;stroke:#000000;stroke-width:0.066666074px;stroke-linecap:round;stroke-linejoin:round;stroke-miterlimit:4;stroke-dasharray:none;stroke-opacity:1;"/>
  <path id="path232" d="  M 89.132545,65.194743   L 89.132545,55.528856   L 150.79867,55.528856   L 150.79867,65.194743   L 89.132545,65.194743  z " clip-path="url(#clipWmfPath1)" style="fill:#bfbfbf;fill-rule:nonzero;fill-opacity:1;stroke:none;"/>
  <path id="path234" d="  M 89.132545,65.194743   L 89.132545,55.528856   L 150.79867,55.528856   L 150.79867,65.194743   L 89.132545,65.194743  z " clip-path="url(#clipWmfPath1)" style="fill:none;stroke:#000000;stroke-width:0.066666074px;stroke-linecap:round;stroke-linejoin:round;stroke-miterlimit:4;stroke-dasharray:none;stroke-opacity:1;"/>
  <path id="path236" d="  M 99.999115,59.32855   L 99.999115,56.595437   L 102.73242,56.595437   L 102.73242,59.32855   L 99.999115,59.32855  z " clip-path="url(#clipWmfPath1)" style="fill:#000000;fill-rule:nonzero;fill-opacity:1;stroke:none;"/>
  <path id="path238" d="  M 99.999115,59.32855   L 99.999115,56.595437   L 102.73242,56.595437   L 102.73242,59.32855   L 99.999115,59.32855  z " clip-path="url(#clipWmfPath1)" style="fill:none;stroke:#000000;stroke-width:0.066666074px;stroke-linecap:round;stroke-linejoin:round;stroke-miterlimit:4;stroke-dasharray:none;stroke-opacity:1;"/>
  <path id="path240" d="  M 104.59907,59.32855   L 104.59907,56.595437   L 107.33238,56.595437   L 107.33238,59.32855   L 104.59907,59.32855  z " clip-path="url(#clipWmfPath1)" style="fill:#000000;fill-rule:nonzero;fill-opacity:1;stroke:none;"/>
  <path id="path242" d="  M 104.59907,59.32855   L 104.59907,56.595437   L 107.33238,56.595437   L 107.33238,59.32855   L 104.59907,59.32855  z " clip-path="url(#clipWmfPath1)" style="fill:none;stroke:#000000;stroke-width:0.066666074px;stroke-linecap:round;stroke-linejoin:round;stroke-miterlimit:4;stroke-dasharray:none;stroke-opacity:1;"/>
  <path id="path244" d="  M 90.732531,59.32855   L 90.732531,56.595437   L 93.46584,56.595437   L 93.46584,59.32855   L 90.732531,59.32855  z " clip-path="url(#clipWmfPath1)" style="fill:#000000;fill-rule:nonzero;fill-opacity:1;stroke:none;"/>
  <path id="path246" d="  M 90.732531,59.32855   L 90.732531,56.595437   L 93.46584,56.595437   L 93.46584,59.32855   L 90.732531,59.32855  z " clip-path="url(#clipWmfPath1)" style="fill:none;stroke:#000000;stroke-width:0.066666074px;stroke-linecap:round;stroke-linejoin:round;stroke-miterlimit:4;stroke-dasharray:none;stroke-opacity:1;"/>
  <path id="path248" d="  M 95.33249,59.32855   L 95.33249,56.595437   L 98.065799,56.595437   L 98.065799,59.32855   L 95.33249,59.32855  z " clip-path="url(#clipWmfPath1)" style="fill:#000000;fill-rule:nonzero;fill-opacity:1;stroke:none;"/>
  <path id="path250" d="  M 95.33249,59.32855   L 95.33249,56.595437   L 98.065799,56.595437   L 98.065799,59.32855   L 95.33249,59.32855  z " clip-path="url(#clipWmfPath1)" style="fill:none;stroke:#000000;stroke-width:0.066666074px;stroke-linecap:round;stroke-linejoin:round;stroke-miterlimit:4;stroke-dasharray:none;stroke-opacity:1;"/>
  <path id="path252" d="  M 99.999115,63.99484   L 99.999115,61.261727   L 102.73242,61.261727   L 102.73242,63.99484   L 99.999115,63.99484  z " clip-path="url(#clipWmfPath1)" style="fill:#000000;fill-rule:nonzero;fill-opacity:1;stroke:none;"/>
  <path id="path254" d="  M 99.999115,63.99484   L 99.999115,61.261727   L 102.73242,61.261727   L 102.73242,63.99484   L 99.999115,63.99484  z " clip-path="url(#clipWmfPath1)" style="fill:none;stroke:#000000;stroke-width:0.066666074px;stroke-linecap:round;stroke-linejoin:round;stroke-miterlimit:4;stroke-dasharray:none;stroke-opacity:1;"/>
  <path id="path256" d="  M 104.59907,63.99484   L 104.59907,61.261727   L 107.33238,61.261727   L 107.33238,63.99484   L 104.59907,63.99484  z " clip-path="url(#clipWmfPath1)" style="fill:#000000;fill-rule:nonzero;fill-opacity:1;stroke:none;"/>
  <path id="path258" d="  M 104.59907,63.99484   L 104.59907,61.261727   L 107.33238,61.261727   L 107.33238,63.99484   L 104.59907,63.99484  z " clip-path="url(#clipWmfPath1)" style="fill:none;stroke:#000000;stroke-width:0.066666074px;stroke-linecap:round;stroke-linejoin:round;stroke-miterlimit:4;stroke-dasharray:none;stroke-opacity:1;"/>
  <path id="path260" d="  M 90.732531,63.99484   L 90.732531,61.261727   L 93.46584,61.261727   L 93.46584,63.99484   L 90.732531,63.99484  z " clip-path="url(#clipWmfPath1)" style="fill:#000000;fill-rule:nonzero;fill-opacity:1;stroke:none;"/>
  <path id="path262" d="  M 90.732531,63.99484   L 90.732531,61.261727   L 93.46584,61.261727   L 93.46584,63.99484   L 90.732531,63.99484  z " clip-path="url(#clipWmfPath1)" style="fill:none;stroke:#000000;stroke-width:0.066666074px;stroke-linecap:round;stroke-linejoin:round;stroke-miterlimit:4;stroke-dasharray:none;stroke-opacity:1;"/>
  <path id="path264" d="  M 95.33249,63.99484   L 95.33249,61.261727   L 98.065799,61.261727   L 98.065799,63.99484   L 95.33249,63.99484  z " clip-path="url(#clipWmfPath1)" style="fill:#000000;fill-rule:nonzero;fill-opacity:1;stroke:none;"/>
  <path id="path266" d="  M 95.33249,63.99484   L 95.33249,61.261727   L 98.065799,61.261727   L 98.065799,63.99484   L 95.33249,63.99484  z " clip-path="url(#clipWmfPath1)" style="fill:none;stroke:#000000;stroke-width:0.066666074px;stroke-linecap:round;stroke-linejoin:round;stroke-miterlimit:4;stroke-dasharray:none;stroke-opacity:1;"/>
  <path id="path268" d="  M 118.66562,59.32855   L 118.66562,56.595437   L 121.39893,56.595437   L 121.39893,59.32855   L 118.66562,59.32855  z " clip-path="url(#clipWmfPath1)" style="fill:#000000;fill-rule:nonzero;fill-opacity:1;stroke:none;"/>
  <path id="path270" d="  M 118.66562,59.32855   L 118.66562,56.595437   L 121.39893,56.595437   L 121.39893,59.32855   L 118.66562,59.32855  z " clip-path="url(#clipWmfPath1)" style="fill:none;stroke:#000000;stroke-width:0.066666074px;stroke-linecap:round;stroke-linejoin:round;stroke-miterlimit:4;stroke-dasharray:none;stroke-opacity:1;"/>
  <path id="path272" d="  M 123.26558,59.32855   L 123.26558,56.595437   L 125.99889,56.595437   L 125.99889,59.32855   L 123.26558,59.32855  z " clip-path="url(#clipWmfPath1)" style="fill:#000000;fill-rule:nonzero;fill-opacity:1;stroke:none;"/>
  <path id="path274" d="  M 123.26558,59.32855   L 123.26558,56.595437   L 125.99889,56.595437   L 125.99889,59.32855   L 123.26558,59.32855  z " clip-path="url(#clipWmfPath1)" style="fill:none;stroke:#000000;stroke-width:0.066666074px;stroke-linecap:round;stroke-linejoin:round;stroke-miterlimit:4;stroke-dasharray:none;stroke-opacity:1;"/>
  <path id="path276" d="  M 109.39903,59.32855   L 109.39903,56.595437   L 112.13234,56.595437   L 112.13234,59.32855   L 109.39903,59.32855  z " clip-path="url(#clipWmfPath1)" style="fill:#000000;fill-rule:nonzero;fill-opacity:1;stroke:none;"/>
  <path id="path278" d="  M 109.39903,59.32855   L 109.39903,56.595437   L 112.13234,56.595437   L 112.13234,59.32855   L 109.39903,59.32855  z " clip-path="url(#clipWmfPath1)" style="fill:none;stroke:#000000;stroke-width:0.066666074px;stroke-linecap:round;stroke-linejoin:round;stroke-miterlimit:4;stroke-dasharray:none;stroke-opacity:1;"/>
  <path id="path280" d="  M 113.99899,59.32855   L 113.99899,56.595437   L 116.7323,56.595437   L 116.7323,59.32855   L 113.99899,59.32855  z " clip-path="url(#clipWmfPath1)" style="fill:#000000;fill-rule:nonzero;fill-opacity:1;stroke:none;"/>
  <path id="path282" d="  M 113.99899,59.32855   L 113.99899,56.595437   L 116.7323,56.595437   L 116.7323,59.32855   L 113.99899,59.32855  z " clip-path="url(#clipWmfPath1)" style="fill:none;stroke:#000000;stroke-width:0.066666074px;stroke-linecap:round;stroke-linejoin:round;stroke-miterlimit:4;stroke-dasharray:none;stroke-opacity:1;"/>
  <path id="path284" d="  M 118.66562,63.99484   L 118.66562,61.261727   L 121.39893,61.261727   L 121.39893,63.99484   L 118.66562,63.99484  z " clip-path="url(#clipWmfPath1)" style="fill:#000000;fill-rule:nonzero;fill-opacity:1;stroke:none;"/>
  <path id="path286" d="  M 118.66562,63.99484   L 118.66562,61.261727   L 121.39893,61.261727   L 121.39893,63.99484   L 118.66562,63.99484  z " clip-path="url(#clipWmfPath1)" style="fill:none;stroke:#000000;stroke-width:0.066666074px;stroke-linecap:round;stroke-linejoin:round;stroke-miterlimit:4;stroke-dasharray:none;stroke-opacity:1;"/>
  <path id="path288" d="  M 123.26558,63.99484   L 123.26558,61.261727   L 125.99889,61.261727   L 125.99889,63.99484   L 123.26558,63.99484  z " clip-path="url(#clipWmfPath1)" style="fill:#000000;fill-rule:nonzero;fill-opacity:1;stroke:none;"/>
  <path id="path290" d="  M 123.26558,63.99484   L 123.26558,61.261727   L 125.99889,61.261727   L 125.99889,63.99484   L 123.26558,63.99484  z " clip-path="url(#clipWmfPath1)" style="fill:none;stroke:#000000;stroke-width:0.066666074px;stroke-linecap:round;stroke-linejoin:round;stroke-miterlimit:4;stroke-dasharray:none;stroke-opacity:1;"/>
  <path id="path292" d="  M 109.39903,63.99484   L 109.39903,61.261727   L 112.13234,61.261727   L 112.13234,63.99484   L 109.39903,63.99484  z " clip-path="url(#clipWmfPath1)" style="fill:#000000;fill-rule:nonzero;fill-opacity:1;stroke:none;"/>
  <path id="path294" d="  M 109.39903,63.99484   L 109.39903,61.261727   L 112.13234,61.261727   L 112.13234,63.99484   L 109.39903,63.99484  z " clip-path="url(#clipWmfPath1)" style="fill:none;stroke:#000000;stroke-width:0.066666074px;stroke-linecap:round;stroke-linejoin:round;stroke-miterlimit:4;stroke-dasharray:none;stroke-opacity:1;"/>
  <path id="path296" d="  M 113.99899,63.99484   L 113.99899,61.261727   L 116.7323,61.261727   L 116.7323,63.99484   L 113.99899,63.99484  z " clip-path="url(#clipWmfPath1)" style="fill:#000000;fill-rule:nonzero;fill-opacity:1;stroke:none;"/>
  <path id="path298" d="  M 113.99899,63.99484   L 113.99899,61.261727   L 116.7323,61.261727   L 116.7323,63.99484   L 113.99899,63.99484  z " clip-path="url(#clipWmfPath1)" style="fill:none;stroke:#000000;stroke-width:0.066666074px;stroke-linecap:round;stroke-linejoin:round;stroke-miterlimit:4;stroke-dasharray:none;stroke-opacity:1;"/>
  <path id="path300" d="  M 137.33212,59.32855   L 137.33212,56.595437   L 140.06543,56.595437   L 140.06543,59.32855   L 137.33212,59.32855  z " clip-path="url(#clipWmfPath1)" style="fill:#000000;fill-rule:nonzero;fill-opacity:1;stroke:none;"/>
  <path id="path302" d="  M 137.33212,59.32855   L 137.33212,56.595437   L 140.06543,56.595437   L 140.06543,59.32855   L 137.33212,59.32855  z " clip-path="url(#clipWmfPath1)" style="fill:none;stroke:#000000;stroke-width:0.066666074px;stroke-linecap:round;stroke-linejoin:round;stroke-miterlimit:4;stroke-dasharray:none;stroke-opacity:1;"/>
  <path id="path304" d="  M 141.93208,59.32855   L 141.93208,56.595437   L 144.66539,56.595437   L 144.66539,59.32855   L 141.93208,59.32855  z " clip-path="url(#clipWmfPath1)" style="fill:#000000;fill-rule:nonzero;fill-opacity:1;stroke:none;"/>
  <path id="path306" d="  M 141.93208,59.32855   L 141.93208,56.595437   L 144.66539,56.595437   L 144.66539,59.32855   L 141.93208,59.32855  z " clip-path="url(#clipWmfPath1)" style="fill:none;stroke:#000000;stroke-width:0.066666074px;stroke-linecap:round;stroke-linejoin:round;stroke-miterlimit:4;stroke-dasharray:none;stroke-opacity:1;"/>
  <path id="path308" d="  M 146.66537,59.32855   L 146.66537,56.595437   L 149.39868,56.595437   L 149.39868,59.32855   L 146.66537,59.32855  z " clip-path="url(#clipWmfPath1)" style="fill:#000000;fill-rule:nonzero;fill-opacity:1;stroke:none;"/>
  <path id="path310" d="  M 146.66537,59.32855   L 146.66537,56.595437   L 149.39868,56.595437   L 149.39868,59.32855   L 146.66537,59.32855  z " clip-path="url(#clipWmfPath1)" style="fill:none;stroke:#000000;stroke-width:0.066666074px;stroke-linecap:round;stroke-linejoin:round;stroke-miterlimit:4;stroke-dasharray:none;stroke-opacity:1;"/>
  <path id="path312" d="  M 128.06553,59.32855   L 128.06553,56.595437   L 130.79884,56.595437   L 130.79884,59.32855   L 128.06553,59.32855  z " clip-path="url(#clipWmfPath1)" style="fill:#000000;fill-rule:nonzero;fill-opacity:1;stroke:none;"/>
  <path id="path314" d="  M 128.06553,59.32855   L 128.06553,56.595437   L 130.79884,56.595437   L 130.79884,59.32855   L 128.06553,59.32855  z " clip-path="url(#clipWmfPath1)" style="fill:none;stroke:#000000;stroke-width:0.066666074px;stroke-linecap:round;stroke-linejoin:round;stroke-miterlimit:4;stroke-dasharray:none;stroke-opacity:1;"/>
  <path id="path316" d="  M 132.66549,59.32855   L 132.66549,56.595437   L 135.3988,56.595437   L 135.3988,59.32855   L 132.66549,59.32855  z " clip-path="url(#clipWmfPath1)" style="fill:#000000;fill-rule:nonzero;fill-opacity:1;stroke:none;"/>
  <path id="path318" d="  M 132.66549,59.32855   L 132.66549,56.595437   L 135.3988,56.595437   L 135.3988,59.32855   L 132.66549,59.32855  z " clip-path="url(#clipWmfPath1)" style="fill:none;stroke:#000000;stroke-width:0.066666074px;stroke-linecap:round;stroke-linejoin:round;stroke-miterlimit:4;stroke-dasharray:none;stroke-opacity:1;"/>
  <path id="path320" d="  M 137.33212,63.99484   L 137.33212,61.261727   L 140.06543,61.261727   L 140.06543,63.99484   L 137.33212,63.99484  z " clip-path="url(#clipWmfPath1)" style="fill:#000000;fill-rule:nonzero;fill-opacity:1;stroke:none;"/>
  <path id="path322" d="  M 137.33212,63.99484   L 137.33212,61.261727   L 140.06543,61.261727   L 140.06543,63.99484   L 137.33212,63.99484  z " clip-path="url(#clipWmfPath1)" style="fill:none;stroke:#000000;stroke-width:0.066666074px;stroke-linecap:round;stroke-linejoin:round;stroke-miterlimit:4;stroke-dasharray:none;stroke-opacity:1;"/>
  <path id="path324" d="  M 141.93208,63.99484   L 141.93208,61.261727   L 144.66539,61.261727   L 144.66539,63.99484   L 141.93208,63.99484  z " clip-path="url(#clipWmfPath1)" style="fill:#000000;fill-rule:nonzero;fill-opacity:1;stroke:none;"/>
  <path id="path326" d="  M 141.93208,63.99484   L 141.93208,61.261727   L 144.66539,61.261727   L 144.66539,63.99484   L 141.93208,63.99484  z " clip-path="url(#clipWmfPath1)" style="fill:none;stroke:#000000;stroke-width:0.066666074px;stroke-linecap:round;stroke-linejoin:round;stroke-miterlimit:4;stroke-dasharray:none;stroke-opacity:1;"/>
  <path id="path328" d="  M 146.66537,63.99484   L 146.66537,61.261727   L 149.39868,61.261727   L 149.39868,63.99484   L 146.66537,63.99484  z " clip-path="url(#clipWmfPath1)" style="fill:#000000;fill-rule:nonzero;fill-opacity:1;stroke:none;"/>
  <path id="path330" d="  M 146.66537,63.99484   L 146.66537,61.261727   L 149.39868,61.261727   L 149.39868,63.99484   L 146.66537,63.99484  z " clip-path="url(#clipWmfPath1)" style="fill:none;stroke:#000000;stroke-width:0.066666074px;stroke-linecap:round;stroke-linejoin:round;stroke-miterlimit:4;stroke-dasharray:none;stroke-opacity:1;"/>
  <path id="path332" d="  M 128.06553,63.99484   L 128.06553,61.261727   L 130.79884,61.261727   L 130.79884,63.99484   L 128.06553,63.99484  z " clip-path="url(#clipWmfPath1)" style="fill:#000000;fill-rule:nonzero;fill-opacity:1;stroke:none;"/>
  <path id="path334" d="  M 128.06553,63.99484   L 128.06553,61.261727   L 130.79884,61.261727   L 130.79884,63.99484   L 128.06553,63.99484  z " clip-path="url(#clipWmfPath1)" style="fill:none;stroke:#000000;stroke-width:0.066666074px;stroke-linecap:round;stroke-linejoin:round;stroke-miterlimit:4;stroke-dasharray:none;stroke-opacity:1;"/>
  <path id="path336" d="  M 132.66549,63.99484   L 132.66549,61.261727   L 135.3988,61.261727   L 135.3988,63.99484   L 132.66549,63.99484  z " clip-path="url(#clipWmfPath1)" style="fill:#000000;fill-rule:nonzero;fill-opacity:1;stroke:none;"/>
  <path id="path338" d="  M 132.66549,63.99484   L 132.66549,61.261727   L 135.3988,61.261727   L 135.3988,63.99484   L 132.66549,63.99484  z " clip-path="url(#clipWmfPath1)" style="fill:none;stroke:#000000;stroke-width:0.066666074px;stroke-linecap:round;stroke-linejoin:round;stroke-miterlimit:4;stroke-dasharray:none;stroke-opacity:1;"/>
  <path id="path340" d="  M 124.13224,140.1887   L 124.13224,130.52281   L 185.79836,130.52281   L 185.79836,140.1887   L 124.13224,140.1887  z " clip-path="url(#clipWmfPath1)" style="fill:#bfbfbf;fill-rule:nonzero;fill-opacity:1;stroke:none;"/>
  <path id="path342" d="  M 124.13224,140.1887   L 124.13224,130.52281   L 185.79836,130.52281   L 185.79836,140.1887   L 124.13224,140.1887  z " clip-path="url(#clipWmfPath1)" style="fill:none;stroke:#000000;stroke-width:0.066666074px;stroke-linecap:round;stroke-linejoin:round;stroke-miterlimit:4;stroke-dasharray:none;stroke-opacity:1;"/>
  <path id="path344" d="  M 134.99881,134.3225   L 134.99881,131.58939   L 137.73212,131.58939   L 137.73212,134.3225   L 134.99881,134.3225  z " clip-path="url(#clipWmfPath1)" style="fill:#000000;fill-rule:nonzero;fill-opacity:1;stroke:none;"/>
  <path id="path346" d="  M 134.99881,134.3225   L 134.99881,131.58939   L 137.73212,131.58939   L 137.73212,134.3225   L 134.99881,134.3225  z " clip-path="url(#clipWmfPath1)" style="fill:none;stroke:#000000;stroke-width:0.066666074px;stroke-linecap:round;stroke-linejoin:round;stroke-miterlimit:4;stroke-dasharray:none;stroke-opacity:1;"/>
  <path id="path348" d="  M 139.59877,134.3225   L 139.59877,131.58939   L 142.33207,131.58939   L 142.33207,134.3225   L 139.59877,134.3225  z " clip-path="url(#clipWmfPath1)" style="fill:#000000;fill-rule:nonzero;fill-opacity:1;stroke:none;"/>
  <path id="path350" d="  M 139.59877,134.3225   L 139.59877,131.58939   L 142.33207,131.58939   L 142.33207,134.3225   L 139.59877,134.3225  z " clip-path="url(#clipWmfPath1)" style="fill:none;stroke:#000000;stroke-width:0.066666074px;stroke-linecap:round;stroke-linejoin:round;stroke-miterlimit:4;stroke-dasharray:none;stroke-opacity:1;"/>
  <path id="path352" d="  M 125.73222,134.3225   L 125.73222,131.58939   L 128.46553,131.58939   L 128.46553,134.3225   L 125.73222,134.3225  z " clip-path="url(#clipWmfPath1)" style="fill:#000000;fill-rule:nonzero;fill-opacity:1;stroke:none;"/>
  <path id="path354" d="  M 125.73222,134.3225   L 125.73222,131.58939   L 128.46553,131.58939   L 128.46553,134.3225   L 125.73222,134.3225  z " clip-path="url(#clipWmfPath1)" style="fill:none;stroke:#000000;stroke-width:0.066666074px;stroke-linecap:round;stroke-linejoin:round;stroke-miterlimit:4;stroke-dasharray:none;stroke-opacity:1;"/>
  <path id="path356" d="  M 130.33218,134.3225   L 130.33218,131.58939   L 133.06549,131.58939   L 133.06549,134.3225   L 130.33218,134.3225  z " clip-path="url(#clipWmfPath1)" style="fill:#000000;fill-rule:nonzero;fill-opacity:1;stroke:none;"/>
  <path id="path358" d="  M 130.33218,134.3225   L 130.33218,131.58939   L 133.06549,131.58939   L 133.06549,134.3225   L 130.33218,134.3225  z " clip-path="url(#clipWmfPath1)" style="fill:none;stroke:#000000;stroke-width:0.066666074px;stroke-linecap:round;stroke-linejoin:round;stroke-miterlimit:4;stroke-dasharray:none;stroke-opacity:1;"/>
  <path id="path360" d="  M 134.99881,138.98879   L 134.99881,136.25568   L 137.73212,136.25568   L 137.73212,138.98879   L 134.99881,138.98879  z " clip-path="url(#clipWmfPath1)" style="fill:#000000;fill-rule:nonzero;fill-opacity:1;stroke:none;"/>
  <path id="path362" d="  M 134.99881,138.98879   L 134.99881,136.25568   L 137.73212,136.25568   L 137.73212,138.98879   L 134.99881,138.98879  z " clip-path="url(#clipWmfPath1)" style="fill:none;stroke:#000000;stroke-width:0.066666074px;stroke-linecap:round;stroke-linejoin:round;stroke-miterlimit:4;stroke-dasharray:none;stroke-opacity:1;"/>
  <path id="path364" d="  M 139.59877,138.98879   L 139.59877,136.25568   L 142.33207,136.25568   L 142.33207,138.98879   L 139.59877,138.98879  z " clip-path="url(#clipWmfPath1)" style="fill:#000000;fill-rule:nonzero;fill-opacity:1;stroke:none;"/>
  <path id="path366" d="  M 139.59877,138.98879   L 139.59877,136.25568   L 142.33207,136.25568   L 142.33207,138.98879   L 139.59877,138.98879  z " clip-path="url(#clipWmfPath1)" style="fill:none;stroke:#000000;stroke-width:0.066666074px;stroke-linecap:round;stroke-linejoin:round;stroke-miterlimit:4;stroke-dasharray:none;stroke-opacity:1;"/>
  <path id="path368" d="  M 125.73222,138.98879   L 125.73222,136.25568   L 128.46553,136.25568   L 128.46553,138.98879   L 125.73222,138.98879  z " clip-path="url(#clipWmfPath1)" style="fill:#000000;fill-rule:nonzero;fill-opacity:1;stroke:none;"/>
  <path id="path370" d="  M 125.73222,138.98879   L 125.73222,136.25568   L 128.46553,136.25568   L 128.46553,138.98879   L 125.73222,138.98879  z " clip-path="url(#clipWmfPath1)" style="fill:none;stroke:#000000;stroke-width:0.066666074px;stroke-linecap:round;stroke-linejoin:round;stroke-miterlimit:4;stroke-dasharray:none;stroke-opacity:1;"/>
  <path id="path372" d="  M 130.33218,138.98879   L 130.33218,136.25568   L 133.06549,136.25568   L 133.06549,138.98879   L 130.33218,138.98879  z " clip-path="url(#clipWmfPath1)" style="fill:#000000;fill-rule:nonzero;fill-opacity:1;stroke:none;"/>
  <path id="path374" d="  M 130.33218,138.98879   L 130.33218,136.25568   L 133.06549,136.25568   L 133.06549,138.98879   L 130.33218,138.98879  z " clip-path="url(#clipWmfPath1)" style="fill:none;stroke:#000000;stroke-width:0.066666074px;stroke-linecap:round;stroke-linejoin:round;stroke-miterlimit:4;stroke-dasharray:none;stroke-opacity:1;"/>
  <path id="path376" d="  M 153.66531,134.3225   L 153.66531,131.58939   L 156.39862,131.58939   L 156.39862,134.3225   L 153.66531,134.3225  z " clip-path="url(#clipWmfPath1)" style="fill:#000000;fill-rule:nonzero;fill-opacity:1;stroke:none;"/>
  <path id="path378" d="  M 153.66531,134.3225   L 153.66531,131.58939   L 156.39862,131.58939   L 156.39862,134.3225   L 153.66531,134.3225  z " clip-path="url(#clipWmfPath1)" style="fill:none;stroke:#000000;stroke-width:0.066666074px;stroke-linecap:round;stroke-linejoin:round;stroke-miterlimit:4;stroke-dasharray:none;stroke-opacity:1;"/>
  <path id="path380" d="  M 158.26527,134.3225   L 158.26527,131.58939   L 160.99858,131.58939   L 160.99858,134.3225   L 158.26527,134.3225  z " clip-path="url(#clipWmfPath1)" style="fill:#000000;fill-rule:nonzero;fill-opacity:1;stroke:none;"/>
  <path id="path382" d="  M 158.26527,134.3225   L 158.26527,131.58939   L 160.99858,131.58939   L 160.99858,134.3225   L 158.26527,134.3225  z " clip-path="url(#clipWmfPath1)" style="fill:none;stroke:#000000;stroke-width:0.066666074px;stroke-linecap:round;stroke-linejoin:round;stroke-miterlimit:4;stroke-dasharray:none;stroke-opacity:1;"/>
  <path id="path384" d="  M 144.39872,134.3225   L 144.39872,131.58939   L 147.13203,131.58939   L 147.13203,134.3225   L 144.39872,134.3225  z " clip-path="url(#clipWmfPath1)" style="fill:#000000;fill-rule:nonzero;fill-opacity:1;stroke:none;"/>
  <path id="path386" d="  M 144.39872,134.3225   L 144.39872,131.58939   L 147.13203,131.58939   L 147.13203,134.3225   L 144.39872,134.3225  z " clip-path="url(#clipWmfPath1)" style="fill:none;stroke:#000000;stroke-width:0.066666074px;stroke-linecap:round;stroke-linejoin:round;stroke-miterlimit:4;stroke-dasharray:none;stroke-opacity:1;"/>
  <path id="path388" d="  M 148.99868,134.3225   L 148.99868,131.58939   L 151.73199,131.58939   L 151.73199,134.3225   L 148.99868,134.3225  z " clip-path="url(#clipWmfPath1)" style="fill:#000000;fill-rule:nonzero;fill-opacity:1;stroke:none;"/>
  <path id="path390" d="  M 148.99868,134.3225   L 148.99868,131.58939   L 151.73199,131.58939   L 151.73199,134.3225   L 148.99868,134.3225  z " clip-path="url(#clipWmfPath1)" style="fill:none;stroke:#000000;stroke-width:0.066666074px;stroke-linecap:round;stroke-linejoin:round;stroke-miterlimit:4;stroke-dasharray:none;stroke-opacity:1;"/>
  <path id="path392" d="  M 153.66531,138.98879   L 153.66531,136.25568   L 156.39862,136.25568   L 156.39862,138.98879   L 153.66531,138.98879  z " clip-path="url(#clipWmfPath1)" style="fill:#000000;fill-rule:nonzero;fill-opacity:1;stroke:none;"/>
  <path id="path394" d="  M 153.66531,138.98879   L 153.66531,136.25568   L 156.39862,136.25568   L 156.39862,138.98879   L 153.66531,138.98879  z " clip-path="url(#clipWmfPath1)" style="fill:none;stroke:#000000;stroke-width:0.066666074px;stroke-linecap:round;stroke-linejoin:round;stroke-miterlimit:4;stroke-dasharray:none;stroke-opacity:1;"/>
  <path id="path396" d="  M 158.26527,138.98879   L 158.26527,136.25568   L 160.99858,136.25568   L 160.99858,138.98879   L 158.26527,138.98879  z " clip-path="url(#clipWmfPath1)" style="fill:#000000;fill-rule:nonzero;fill-opacity:1;stroke:none;"/>
  <path id="path398" d="  M 158.26527,138.98879   L 158.26527,136.25568   L 160.99858,136.25568   L 160.99858,138.98879   L 158.26527,138.98879  z " clip-path="url(#clipWmfPath1)" style="fill:none;stroke:#000000;stroke-width:0.066666074px;stroke-linecap:round;stroke-linejoin:round;stroke-miterlimit:4;stroke-dasharray:none;stroke-opacity:1;"/>
  <path id="path400" d="  M 144.39872,138.98879   L 144.39872,136.25568   L 147.13203,136.25568   L 147.13203,138.98879   L 144.39872,138.98879  z " clip-path="url(#clipWmfPath1)" style="fill:#000000;fill-rule:nonzero;fill-opacity:1;stroke:none;"/>
  <path id="path402" d="  M 144.39872,138.98879   L 144.39872,136.25568   L 147.13203,136.25568   L 147.13203,138.98879   L 144.39872,138.98879  z " clip-path="url(#clipWmfPath1)" style="fill:none;stroke:#000000;stroke-width:0.066666074px;stroke-linecap:round;stroke-linejoin:round;stroke-miterlimit:4;stroke-dasharray:none;stroke-opacity:1;"/>
  <path id="path404" d="  M 148.99868,138.98879   L 148.99868,136.25568   L 151.73199,136.25568   L 151.73199,138.98879   L 148.99868,138.98879  z " clip-path="url(#clipWmfPath1)" style="fill:#000000;fill-rule:nonzero;fill-opacity:1;stroke:none;"/>
  <path id="path406" d="  M 148.99868,138.98879   L 148.99868,136.25568   L 151.73199,136.25568   L 151.73199,138.98879   L 148.99868,138.98879  z " clip-path="url(#clipWmfPath1)" style="fill:none;stroke:#000000;stroke-width:0.066666074px;stroke-linecap:round;stroke-linejoin:round;stroke-miterlimit:4;stroke-dasharray:none;stroke-opacity:1;"/>
  <path id="path408" d="  M 172.33181,134.3225   L 172.33181,131.58939   L 175.06512,131.58939   L 175.06512,134.3225   L 172.33181,134.3225  z " clip-path="url(#clipWmfPath1)" style="fill:#000000;fill-rule:nonzero;fill-opacity:1;stroke:none;"/>
  <path id="path410" d="  M 172.33181,134.3225   L 172.33181,131.58939   L 175.06512,131.58939   L 175.06512,134.3225   L 172.33181,134.3225  z " clip-path="url(#clipWmfPath1)" style="fill:none;stroke:#000000;stroke-width:0.066666074px;stroke-linecap:round;stroke-linejoin:round;stroke-miterlimit:4;stroke-dasharray:none;stroke-opacity:1;"/>
  <path id="path412" d="  M 176.93177,134.3225   L 176.93177,131.58939   L 179.66508,131.58939   L 179.66508,134.3225   L 176.93177,134.3225  z " clip-path="url(#clipWmfPath1)" style="fill:#000000;fill-rule:nonzero;fill-opacity:1;stroke:none;"/>
  <path id="path414" d="  M 176.93177,134.3225   L 176.93177,131.58939   L 179.66508,131.58939   L 179.66508,134.3225   L 176.93177,134.3225  z " clip-path="url(#clipWmfPath1)" style="fill:none;stroke:#000000;stroke-width:0.066666074px;stroke-linecap:round;stroke-linejoin:round;stroke-miterlimit:4;stroke-dasharray:none;stroke-opacity:1;"/>
  <path id="path416" d="  M 181.66506,134.3225   L 181.66506,131.58939   L 184.39837,131.58939   L 184.39837,134.3225   L 181.66506,134.3225  z " clip-path="url(#clipWmfPath1)" style="fill:#000000;fill-rule:nonzero;fill-opacity:1;stroke:none;"/>
  <path id="path418" d="  M 181.66506,134.3225   L 181.66506,131.58939   L 184.39837,131.58939   L 184.39837,134.3225   L 181.66506,134.3225  z " clip-path="url(#clipWmfPath1)" style="fill:none;stroke:#000000;stroke-width:0.066666074px;stroke-linecap:round;stroke-linejoin:round;stroke-miterlimit:4;stroke-dasharray:none;stroke-opacity:1;"/>
  <path id="path420" d="  M 163.06522,134.3225   L 163.06522,131.58939   L 165.79853,131.58939   L 165.79853,134.3225   L 163.06522,134.3225  z " clip-path="url(#clipWmfPath1)" style="fill:#000000;fill-rule:nonzero;fill-opacity:1;stroke:none;"/>
  <path id="path422" d="  M 163.06522,134.3225   L 163.06522,131.58939   L 165.79853,131.58939   L 165.79853,134.3225   L 163.06522,134.3225  z " clip-path="url(#clipWmfPath1)" style="fill:none;stroke:#000000;stroke-width:0.066666074px;stroke-linecap:round;stroke-linejoin:round;stroke-miterlimit:4;stroke-dasharray:none;stroke-opacity:1;"/>
  <path id="path424" d="  M 167.66518,134.3225   L 167.66518,131.58939   L 170.39849,131.58939   L 170.39849,134.3225   L 167.66518,134.3225  z " clip-path="url(#clipWmfPath1)" style="fill:#000000;fill-rule:nonzero;fill-opacity:1;stroke:none;"/>
  <path id="path426" d="  M 167.66518,134.3225   L 167.66518,131.58939   L 170.39849,131.58939   L 170.39849,134.3225   L 167.66518,134.3225  z " clip-path="url(#clipWmfPath1)" style="fill:none;stroke:#000000;stroke-width:0.066666074px;stroke-linecap:round;stroke-linejoin:round;stroke-miterlimit:4;stroke-dasharray:none;stroke-opacity:1;"/>
  <path id="path428" d="  M 172.33181,138.98879   L 172.33181,136.25568   L 175.06512,136.25568   L 175.06512,138.98879   L 172.33181,138.98879  z " clip-path="url(#clipWmfPath1)" style="fill:#000000;fill-rule:nonzero;fill-opacity:1;stroke:none;"/>
  <path id="path430" d="  M 172.33181,138.98879   L 172.33181,136.25568   L 175.06512,136.25568   L 175.06512,138.98879   L 172.33181,138.98879  z " clip-path="url(#clipWmfPath1)" style="fill:none;stroke:#000000;stroke-width:0.066666074px;stroke-linecap:round;stroke-linejoin:round;stroke-miterlimit:4;stroke-dasharray:none;stroke-opacity:1;"/>
  <path id="path432" d="  M 176.93177,138.98879   L 176.93177,136.25568   L 179.66508,136.25568   L 179.66508,138.98879   L 176.93177,138.98879  z " clip-path="url(#clipWmfPath1)" style="fill:#000000;fill-rule:nonzero;fill-opacity:1;stroke:none;"/>
  <path id="path434" d="  M 176.93177,138.98879   L 176.93177,136.25568   L 179.66508,136.25568   L 179.66508,138.98879   L 176.93177,138.98879  z " clip-path="url(#clipWmfPath1)" style="fill:none;stroke:#000000;stroke-width:0.066666074px;stroke-linecap:round;stroke-linejoin:round;stroke-miterlimit:4;stroke-dasharray:none;stroke-opacity:1;"/>
  <path id="path436" d="  M 181.66506,138.98879   L 181.66506,136.25568   L 184.39837,136.25568   L 184.39837,138.98879   L 181.66506,138.98879  z " clip-path="url(#clipWmfPath1)" style="fill:#000000;fill-rule:nonzero;fill-opacity:1;stroke:none;"/>
  <path id="path438" d="  M 181.66506,138.98879   L 181.66506,136.25568   L 184.39837,136.25568   L 184.39837,138.98879   L 181.66506,138.98879  z " clip-path="url(#clipWmfPath1)" style="fill:none;stroke:#000000;stroke-width:0.066666074px;stroke-linecap:round;stroke-linejoin:round;stroke-miterlimit:4;stroke-dasharray:none;stroke-opacity:1;"/>
  <path id="path440" d="  M 163.06522,138.98879   L 163.06522,136.25568   L 165.79853,136.25568   L 165.79853,138.98879   L 163.06522,138.98879  z " clip-path="url(#clipWmfPath1)" style="fill:#000000;fill-rule:nonzero;fill-opacity:1;stroke:none;"/>
  <path id="path442" d="  M 163.06522,138.98879   L 163.06522,136.25568   L 165.79853,136.25568   L 165.79853,138.98879   L 163.06522,138.98879  z " clip-path="url(#clipWmfPath1)" style="fill:none;stroke:#000000;stroke-width:0.066666074px;stroke-linecap:round;stroke-linejoin:round;stroke-miterlimit:4;stroke-dasharray:none;stroke-opacity:1;"/>
  <path id="path444" d="  M 167.66518,138.98879   L 167.66518,136.25568   L 170.39849,136.25568   L 170.39849,138.98879   L 167.66518,138.98879  z " clip-path="url(#clipWmfPath1)" style="fill:#000000;fill-rule:nonzero;fill-opacity:1;stroke:none;"/>
  <path id="path446" d="  M 167.66518,138.98879   L 167.66518,136.25568   L 170.39849,136.25568   L 170.39849,138.98879   L 167.66518,138.98879  z " clip-path="url(#clipWmfPath1)" style="fill:none;stroke:#000000;stroke-width:0.066666074px;stroke-linecap:round;stroke-linejoin:round;stroke-miterlimit:4;stroke-dasharray:none;stroke-opacity:1;"/>
  <path id="path448" d="  M 122.59892,41.663307   L 128.66553,41.663307   L 129.39886,41.529985   L 130.06552,41.130017   L 130.46551,40.530065   L 130.59884,39.796791   L 130.59884,30.330888   L 130.46551,29.597614   L 130.06552,28.997662   L 129.39886,28.531033   L 128.66553,28.39771   L 113.66566,28.39771   L 112.93233,28.531033   L 112.33234,28.997662   L 111.86568,29.597614   L 111.73235,30.330888   L 111.73235,39.73013   L 111.86568,40.463404   L 112.33234,41.063356   L 112.93233,41.396662   L 113.66566,41.529985   L 118.79895,41.529985   L 120.39894,54.728921   L 122.59892,41.663307  z " clip-path="url(#clipWmfPath1)" style="fill:#ffffff;fill-rule:nonzero;fill-opacity:1;stroke:none;"/>
  <path id="path450" d="  M 119.93227,54.662259   L 120.33227,55.262211   L 120.8656,54.795582   L 122.99891,42.196598   L 128.73219,42.196598   L 129.59885,41.996614   L 130.39885,41.529985   L 130.93218,40.730049   L 131.13217,39.863453   L 131.13217,30.264227   L 130.93218,29.39763   L 130.46551,28.664356   L 129.59885,28.064404   L 128.73219,27.86442   L 113.599,27.86442   L 112.73234,28.064404   L 111.99901,28.664356   L 111.39901,29.39763   L 111.19902,30.264227   L 111.19902,39.796791   L 111.39901,40.663388   L 111.99901,41.463324   L 112.73234,41.863291   L 113.599,42.063275   L 118.33229,42.063275   L 119.86561,54.795582   L 120.8656,54.795582   L 122.99891,42.196598   L 128.66553,42.196598   L 129.19886,41.663307   L 128.66553,41.130017   L 122.19892,41.130017   L 120.4656,51.195872   L 119.26561,40.996695   L 113.73233,40.996695   L 113.13233,40.930033   L 112.66567,40.663388   L 112.33234,40.26342   L 112.26567,39.663469   L 112.26567,30.397549   L 112.33234,29.797597   L 112.66567,29.330968   L 113.13233,28.997662   L 113.73233,28.931001   L 128.59886,28.931001   L 129.19886,28.997662   L 129.66552,29.330968   L 129.99885,29.797597   L 130.06552,30.397549   L 130.06552,39.73013   L 129.99885,40.330082   L 129.73219,40.730049   L 129.19886,41.063356   L 128.59886,41.130017   L 122.19892,41.130017   L 119.93227,54.662259  z " clip-path="url(#clipWmfPath1)" style="fill:#000000;fill-rule:nonzero;fill-opacity:1;stroke:#000000;stroke-width:0.066666074px;stroke-linecap:round;stroke-linejoin:round;stroke-miterlimit:4;stroke-dasharray:none;stroke-opacity:1;"/>
  <path id="path452" d="  M 186.93168,41.663307   L 192.99829,41.663307   L 193.73162,41.529985   L 194.39828,41.130017   L 194.79828,40.530065   L 194.93161,39.796791   L 194.93161,30.330888   L 194.79828,29.597614   L 194.39828,28.997662   L 193.73162,28.531033   L 192.99829,28.39771   L 177.99843,28.39771   L 177.2651,28.531033   L 176.6651,28.997662   L 176.19844,29.597614   L 176.06511,30.330888   L 176.06511,39.73013   L 176.19844,40.463404   L 176.6651,41.063356   L 177.2651,41.396662   L 177.99843,41.529985   L 183.13171,41.529985   L 184.7317,54.728921   L 186.93168,41.663307  z " clip-path="url(#clipWmfPath1)" style="fill:#ffffff;fill-rule:nonzero;fill-opacity:1;stroke:none;"/>
  <path id="path454" d="  M 184.26504,54.662259   L 184.66503,55.262211   L 185.19836,54.795582   L 187.33168,42.196598   L 193.06496,42.196598   L 193.93162,41.996614   L 194.73161,41.529985   L 195.26494,40.730049   L 195.46494,39.863453   L 195.46494,30.264227   L 195.26494,29.39763   L 194.79828,28.664356   L 193.93162,28.064404   L 193.06496,27.86442   L 177.93176,27.86442   L 177.0651,28.064404   L 176.33177,28.664356   L 175.73178,29.39763   L 175.53178,30.264227   L 175.53178,39.796791   L 175.73178,40.663388   L 176.33177,41.463324   L 177.0651,41.863291   L 177.93176,42.063275   L 182.66505,42.063275   L 184.19837,54.795582   L 185.19836,54.795582   L 187.33168,42.196598   L 192.99829,42.196598   L 193.53162,41.663307   L 192.99829,41.130017   L 186.53168,41.130017   L 184.79837,51.195872   L 183.59838,40.996695   L 178.06509,40.996695   L 177.4651,40.930033   L 176.99843,40.663388   L 176.6651,40.26342   L 176.59844,39.663469   L 176.59844,30.397549   L 176.6651,29.797597   L 176.99843,29.330968   L 177.4651,28.997662   L 178.06509,28.931001   L 192.93163,28.931001   L 193.53162,28.997662   L 193.99828,29.330968   L 194.33161,29.797597   L 194.39828,30.397549   L 194.39828,39.73013   L 194.33161,40.330082   L 194.06495,40.730049   L 193.53162,41.063356   L 192.93163,41.130017   L 186.53168,41.130017   L 184.26504,54.662259  z " clip-path="url(#clipWmfPath1)" style="fill:#000000;fill-rule:nonzero;fill-opacity:1;stroke:#000000;stroke-width:0.066666074px;stroke-linecap:round;stroke-linejoin:round;stroke-miterlimit:4;stroke-dasharray:none;stroke-opacity:1;"/>
  <path id="path456" d="  M 158.1986,117.32387   L 164.26521,117.32387   L 164.99854,117.19055   L 165.6652,116.79058   L 166.0652,116.19063   L 166.19853,115.45736   L 166.19853,105.99145   L 166.0652,105.25818   L 165.6652,104.65823   L 164.99854,104.1916   L 164.26521,104.05828   L 149.26535,104.05828   L 148.53202,104.1916   L 147.93202,104.65823   L 147.46536,105.25818   L 147.33203,105.99145   L 147.33203,115.3907   L 147.46536,116.12397   L 147.93202,116.72392   L 148.53202,117.05723   L 149.26535,117.19055   L 154.39863,117.19055   L 155.99862,130.38949   L 158.1986,117.32387  z " clip-path="url(#clipWmfPath1)" style="fill:#ffffff;fill-rule:nonzero;fill-opacity:1;stroke:none;"/>
  <path id="path458" d="  M 155.53196,130.32283   L 155.93195,130.92278   L 156.46528,130.45615   L 158.5986,117.85716   L 164.33188,117.85716   L 165.19854,117.65718   L 165.99853,117.19055   L 166.53186,116.39062   L 166.73186,115.52402   L 166.73186,105.92479   L 166.53186,105.0582   L 166.0652,104.32492   L 165.19854,103.72497   L 164.33188,103.52499   L 149.19868,103.52499   L 148.33202,103.72497   L 147.59869,104.32492   L 146.9987,105.0582   L 146.7987,105.92479   L 146.7987,115.45736   L 146.9987,116.32395   L 147.59869,117.12389   L 148.33202,117.52386   L 149.19868,117.72384   L 153.93197,117.72384   L 155.46529,130.45615   L 156.46528,130.45615   L 158.5986,117.85716   L 164.26521,117.85716   L 164.79854,117.32387   L 164.26521,116.79058   L 157.7986,116.79058   L 156.06529,126.85644   L 154.8653,116.65726   L 149.33201,116.65726   L 148.73202,116.5906   L 148.26536,116.32395   L 147.93202,115.92399   L 147.86536,115.32404   L 147.86536,106.05812   L 147.93202,105.45816   L 148.26536,104.99153   L 148.73202,104.65823   L 149.33201,104.59157   L 164.19855,104.59157   L 164.79854,104.65823   L 165.2652,104.99153   L 165.59854,105.45816   L 165.6652,106.05812   L 165.6652,115.3907   L 165.59854,115.99065   L 165.33187,116.39062   L 164.79854,116.72392   L 164.19855,116.79058   L 157.7986,116.79058   L 155.53196,130.32283  z " clip-path="url(#clipWmfPath1)" style="fill:#000000;fill-rule:nonzero;fill-opacity:1;stroke:#000000;stroke-width:0.066666074px;stroke-linecap:round;stroke-linejoin:round;stroke-miterlimit:4;stroke-dasharray:none;stroke-opacity:1;"/>
  <path id="path460" d="  M 98.39913,127.92302   L 104.46574,127.92302   L 105.19907,127.7897   L 105.86573,127.38973   L 106.26573,126.78978   L 106.39906,126.0565   L 106.39906,116.5906   L 106.26573,115.85733   L 105.86573,115.25737   L 105.19907,114.79074   L 104.46574,114.65742   L 89.465875,114.65742   L 88.732548,114.79074   L 88.132554,115.25737   L 87.665891,115.85733   L 87.532559,116.5906   L 87.532559,125.98984   L 87.665891,126.72312   L 88.132554,127.32307   L 88.732548,127.65637   L 89.465875,127.7897   L 94.599163,127.7897   L 96.199149,140.98863   L 98.39913,127.92302  z " clip-path="url(#clipWmfPath1)" style="fill:#ffffff;fill-rule:nonzero;fill-opacity:1;stroke:none;"/>
  <path id="path462" d="  M 95.732487,140.92197   L 96.132483,141.52192   L 96.665812,141.05529   L 98.799126,128.45631   L 104.53241,128.45631   L 105.39907,128.25633   L 106.19906,127.7897   L 106.73239,126.98976   L 106.93239,126.12316   L 106.93239,116.52394   L 106.73239,115.65734   L 106.26573,114.92407   L 105.39907,114.32412   L 104.53241,114.12413   L 89.399209,114.12413   L 88.53255,114.32412   L 87.799223,114.92407   L 87.199229,115.65734   L 86.99923,116.52394   L 86.99923,126.0565   L 87.199229,126.9231   L 87.799223,127.72304   L 88.53255,128.123   L 89.399209,128.32299   L 94.132501,128.32299   L 95.66582,141.05529   L 96.665812,141.05529   L 98.799126,128.45631   L 104.46574,128.45631   L 104.99907,127.92302   L 104.46574,127.38973   L 97.999133,127.38973   L 96.265815,137.45558   L 95.065826,127.25641   L 89.532541,127.25641   L 88.932547,127.18974   L 88.465884,126.9231   L 88.132554,126.52313   L 88.065888,125.92318   L 88.065888,116.65726   L 88.132554,116.05731   L 88.465884,115.59068   L 88.932547,115.25737   L 89.532541,115.19071   L 104.39908,115.19071   L 104.99907,115.25737   L 105.46573,115.59068   L 105.79906,116.05731   L 105.86573,116.65726   L 105.86573,125.98984   L 105.79906,126.58979   L 105.5324,126.98976   L 104.99907,127.32307   L 104.39908,127.38973   L 97.999133,127.38973   L 95.732487,140.92197  z " clip-path="url(#clipWmfPath1)" style="fill:#000000;fill-rule:nonzero;fill-opacity:1;stroke:#000000;stroke-width:0.066666074px;stroke-linecap:round;stroke-linejoin:round;stroke-miterlimit:4;stroke-dasharray:none;stroke-opacity:1;"/>
  <g id="g464" clip-path="url(#clipWmfPath1)"/>
  <g id="g474" clip-path="url(#clipWmfPath1)">
    <text id="text472" y="0.000000" x="0.000000" transform="matrix(1.000000,-0.000000,0.000000,1.000000,90.399200,125.256568) rotate(180,6.4944305419921875, 0.5)" style="font-size:10.687500px;font-style:normal;font-variant:normal;font-weight:400;font-stretch:Condensed;line-height:125.000000%;letter-spacing:0px;word-spacing:0px;fill:#000000;fill-opacity:1;stroke:none;font-family:Helvetica-Narrow;text-align:start;text-anchor:start;" xml:space="preserve"><tspan id="tspan470" y="0.000000" x="0.000000"><tspan id="tspan466" style="fill:#000000;font-size:10.687500px;font-style:normal;font-variant:normal;font-weight:400;font-stretch:Condensed;font-family:Helvetica-Narrow;" dy="0.000000" dx="0.000000">J</tspan><tspan id="tspan468" style="fill:#000000;font-size:10.687500px;font-style:normal;font-variant:normal;font-weight:400;font-stretch:Condensed;font-family:Helvetica-Narrow;" dy="0.000000" dx="-0.094906"> 7</tspan></tspan></text>
  </g>
  <g id="g476" clip-path="url(#clipWmfPath1)"/>
  <g id="g486" clip-path="url(#clipWmfPath1)">
    <text id="text484" y="0.000000" x="0.000000" transform="matrix(1.000000,-0.000000,0.000000,1.000000,150.532002,114.657422) rotate(180,6.58575439453125, 0.5)" style="font-size:10.687500px;font-style:normal;font-variant:normal;font-weight:400;font-stretch:Condensed;line-height:125.000000%;letter-spacing:0px;word-spacing:0px;fill:#000000;fill-opacity:1;stroke:none;font-family:Helvetica-Narrow;text-align:start;text-anchor:start;" xml:space="preserve"><tspan id="tspan482" y="0.000000" x="0.000000"><tspan id="tspan478" style="fill:#000000;font-size:10.687500px;font-style:normal;font-variant:normal;font-weight:400;font-stretch:Condensed;font-family:Helvetica-Narrow;" dy="0.000000" dx="0.000000">J</tspan><tspan id="tspan480" style="fill:#000000;font-size:10.687500px;font-style:normal;font-variant:normal;font-weight:400;font-stretch:Condensed;font-family:Helvetica-Narrow;" dy="0.000000" dx="-0.094906"> 8</tspan></tspan></text>
  </g>
  <g id="g488" clip-path="url(#clipWmfPath1)"/>
  <g id="g498" clip-path="url(#clipWmfPath1)">
    <text id="text496" y="0.000000" x="0.000000" transform="matrix(1.000000,-0.000000,0.000000,1.000000,115.732310,38.996856) rotate(180,6.4579010009765625, 0.5)" style="font-size:10.687500px;font-style:normal;font-variant:normal;font-weight:400;font-stretch:Condensed;line-height:125.000000%;letter-spacing:0px;word-spacing:0px;fill:#000000;fill-opacity:1;stroke:none;font-family:Helvetica-Narrow;text-align:start;text-anchor:start;" xml:space="preserve"><tspan id="tspan494" y="0.000000" x="0.000000"><tspan id="tspan490" style="fill:#000000;font-size:10.687500px;font-style:normal;font-variant:normal;font-weight:400;font-stretch:Condensed;font-family:Helvetica-Narrow;" dy="0.000000" dx="0.000000">J</tspan><tspan id="tspan492" style="fill:#000000;font-size:10.687500px;font-style:normal;font-variant:normal;font-weight:400;font-stretch:Condensed;font-family:Helvetica-Narrow;" dy="0.000000" dx="-0.094906"> 1</tspan></tspan></text>
  </g>
  <g id="g500" clip-path="url(#clipWmfPath1)"/>
  <g id="g510" clip-path="url(#clipWmfPath1)">
    <text id="text508" y="0.000000" x="0.000000" transform="matrix(1.000000,-0.000000,0.000000,1.000000,178.931751,38.596888) rotate(180,6.52313232421875, 0.5)" style="font-size:10.687500px;font-style:normal;font-variant:normal;font-weight:400;font-stretch:Condensed;line-height:125.000000%;letter-spacing:0px;word-spacing:0px;fill:#000000;fill-opacity:1;stroke:none;font-family:Helvetica-Narrow;text-align:start;text-anchor:start;" xml:space="preserve"><tspan id="tspan506" y="0.000000" x="0.000000"><tspan id="tspan502" style="fill:#000000;font-size:10.687500px;font-style:normal;font-variant:normal;font-weight:400;font-stretch:Condensed;font-family:Helvetica-Narrow;" dy="0.000000" dx="0.000000">J</tspan><tspan id="tspan504" style="fill:#000000;font-size:10.687500px;font-style:normal;font-variant:normal;font-weight:400;font-stretch:Condensed;font-family:Helvetica-Narrow;" dy="0.000000" dx="-0.094906"> 3</tspan></tspan></text>
  </g>
  <g id="g512" clip-path="url(#clipWmfPath1)"/>
  <g id="g528" clip-path="url(#clipWmfPath1)">
    <text id="text526" y="0.000000" x="0.000000" transform="matrix(1.000000,-0.000000,0.000000,1.000000,166.465194,79.793566) rotate(180,16.1356201171875, 0.5)" style="font-size:9.312500px;font-style:normal;font-variant:normal;font-weight:400;font-stretch:Condensed;line-height:125.000000%;letter-spacing:0px;word-spacing:0px;fill:#000000;fill-opacity:1;stroke:none;font-family:Helvetica-Narrow;text-align:start;text-anchor:start;" xml:space="preserve"><tspan id="tspan524" y="0.000000" x="0.000000"><tspan id="tspan514" style="fill:#000000;font-size:9.312500px;font-style:normal;font-variant:normal;font-weight:400;font-stretch:Condensed;font-family:Helvetica-Narrow;" dy="0.000000" dx="0.000000">3</tspan><tspan id="tspan516" style="fill:#000000;font-size:9.312500px;font-style:normal;font-variant:normal;font-weight:400;font-stretch:Condensed;font-family:Helvetica-Narrow;" dy="0.000000" dx="2.220109">4</tspan><tspan id="tspan518" style="fill:#000000;font-size:9.312500px;font-style:normal;font-variant:normal;font-weight:400;font-stretch:Condensed;font-family:Helvetica-Narrow;" dy="0.000000" dx="2.220109">9</tspan><tspan id="tspan520" style="fill:#000000;font-size:9.312500px;font-style:normal;font-variant:normal;font-weight:400;font-stretch:Condensed;font-family:Helvetica-Narrow;" dy="0.000000" dx="2.286776">3</tspan><tspan id="tspan522" style="fill:#000000;font-size:9.312500px;font-style:normal;font-variant:normal;font-weight:400;font-stretch:Condensed;font-family:Helvetica-Narrow;" dy="0.000000" dx="2.220109">7</tspan></tspan></text>
  </g>
  <path id="path530" d="  M 233.53127,53.66234   L 233.53127,34.263904   L 262.39768,34.263904   L 262.39768,53.66234   L 233.53127,53.66234  z " clip-path="url(#clipWmfPath1)" style="fill:#000000;fill-rule:evenodd;fill-opacity:1;stroke:none;"/>
  <path id="path532" d="  M 233.53127,53.66234   L 233.53127,34.263904   L 262.39768,34.263904   L 262.39768,53.66234   L 233.53127,53.66234  z " clip-path="url(#clipWmfPath1)" style="fill:none;stroke:#000000;stroke-width:0.066666074px;stroke-linecap:round;stroke-linejoin:round;stroke-miterlimit:4;stroke-dasharray:none;stroke-opacity:1;"/>
  <path id="path534" d="  M 239.59788,48.062791   L 239.59788,38.996856   L 258.19772,38.996856   L 258.19772,48.062791   L 239.59788,48.062791  z " clip-path="url(#clipWmfPath1)" style="fill:#d9d9d9;fill-rule:evenodd;fill-opacity:1;stroke:none;"/>
  <path id="path536" d="  M 239.59788,48.062791   L 239.59788,38.996856   L 258.19772,38.996856   L 258.19772,48.062791   L 239.59788,48.062791  z " clip-path="url(#clipWmfPath1)" style="fill:none;stroke:#000000;stroke-width:0.066666074px;stroke-linecap:round;stroke-linejoin:round;stroke-miterlimit:4;stroke-dasharray:none;stroke-opacity:1;"/>
  <path id="path538" d="  M 233.53127,51.195872   L 233.53127,36.13042   L 253.53109,36.13042   L 253.53109,38.530227   L 249.39779,38.530227   L 244.19784,38.530227   L 242.79785,38.796872   L 241.39786,39.596807   L 240.46454,40.930033   L 240.06454,42.996533   L 240.19788,44.996372   L 240.86454,47.129533   L 242.33119,48.262775   L 244.59784,48.796066   L 249.13113,48.796066   L 253.53109,48.796066   L 253.53109,51.195872   L 233.53127,51.195872  z " clip-path="url(#clipWmfPath1)" style="fill:#d9d9d9;fill-rule:evenodd;fill-opacity:1;stroke:none;"/>
  <path id="path540" d="  M 233.53127,51.195872   L 233.53127,36.13042   L 253.53109,36.13042   L 253.53109,38.530227   L 249.39779,38.530227   L 244.19784,38.530227   L 242.79785,38.796872   L 241.39786,39.596807   L 240.46454,40.930033   L 240.06454,42.996533   L 240.19788,44.996372   L 240.86454,47.129533   L 242.33119,48.262775   L 244.59784,48.796066   L 249.13113,48.796066   L 253.53109,48.796066   L 253.53109,51.195872   L 233.53127,51.195872  z " clip-path="url(#clipWmfPath1)" style="fill:none;stroke:#000000;stroke-width:0.066666074px;stroke-linecap:round;stroke-linejoin:round;stroke-miterlimit:4;stroke-dasharray:none;stroke-opacity:1;"/>
</svg>
